<svg width="32" height="32" viewBox="0 0 32 32" fill="none" xmlns="http://www.w3.org/2000/svg">
<path fill-rule="evenodd" clip-rule="evenodd" d="M8.90126 1.5H23.0988C24.4284 1.49993 25.5742 1.49987 26.4917 1.62322C27.475 1.75542 28.4175 2.05354 29.182 2.81803C29.9465 3.58252 30.2446 4.52505 30.3768 5.50832C30.5002 6.4258 30.5001 7.57151 30.5 8.90123V9.09875C30.5001 10.4285 30.5002 11.5742 30.3768 12.4917C30.2446 13.475 29.9465 14.4175 29.182 15.182C28.4175 15.9465 27.475 16.2446 26.4917 16.3768C25.5742 16.5002 24.4285 16.5001 23.0987 16.5H8.90127C7.57154 16.5001 6.42582 16.5002 5.50832 16.3768C4.52505 16.2446 3.58252 15.9465 2.81803 15.182C2.05354 14.4175 1.75542 13.475 1.62322 12.4917C1.49987 11.5742 1.49993 10.4285 1.5 9.09886V8.90126C1.49993 7.57158 1.49987 6.42579 1.62322 5.50832C1.75542 4.52505 2.05354 3.58252 2.81803 2.81803C3.58252 2.05354 4.52505 1.75542 5.50832 1.62322C6.42579 1.49987 7.57158 1.49993 8.90126 1.5ZM5.90807 4.59647C5.25746 4.68394 5.05354 4.82516 4.93935 4.93935C4.82516 5.05354 4.68394 5.25746 4.59647 5.90807C4.5032 6.60183 4.50001 7.54339 4.50001 9.00001C4.50001 10.4566 4.5032 11.3982 4.59647 12.092C4.68394 12.7426 4.82516 12.9465 4.93935 13.0607C5.05354 13.1749 5.25746 13.3161 5.90807 13.4036C6.60183 13.4968 7.54339 13.5 9.00001 13.5H23C24.4566 13.5 25.3982 13.4968 26.092 13.4036C26.7426 13.3161 26.9465 13.1749 27.0607 13.0607C27.1749 12.9465 27.3161 12.7426 27.4036 12.092C27.4968 11.3982 27.5 10.4566 27.5 9.00001C27.5 7.54339 27.4968 6.60183 27.4036 5.90807C27.3161 5.25746 27.1749 5.05354 27.0607 4.93935C26.9465 4.82516 26.7426 4.68394 26.092 4.59647C25.3982 4.5032 24.4566 4.50001 23 4.50001H9.00001C7.54339 4.50001 6.60183 4.5032 5.90807 4.59647Z" fill="black"/>
<path d="M2.5 22C2.5 21.1716 3.17158 20.5 4 20.5H28C28.8284 20.5 29.5 21.1716 29.5 22C29.5 22.8284 28.8284 23.5 28 23.5H4C3.17158 23.5 2.5 22.8284 2.5 22Z" fill="black"/>
<path d="M4 26.5C3.17158 26.5 2.5 27.1716 2.5 28C2.5 28.8284 3.17158 29.5 4 29.5H16C16.8284 29.5 17.5 28.8284 17.5 28C17.5 27.1716 16.8284 26.5 16 26.5H4Z" fill="black"/>
</svg>
