<svg width="32" height="32" viewBox="0 0 32 32" fill="none" xmlns="http://www.w3.org/2000/svg">
<path d="M16 0.5C16.8284 0.5 17.5 1.17157 17.5 2V4.5H26C26.8284 4.5 27.5 5.17157 27.5 6C27.5 6.82843 26.8284 7.5 26 7.5H9C7.067 7.5 5.5 9.067 5.5 11C5.5 12.933 7.067 14.5 9 14.5H23C26.5899 14.5 29.5 17.4101 29.5 21C29.5 24.5899 26.5899 27.5 23 27.5H17.5V30C17.5 30.8284 16.8284 31.5 16 31.5C15.1716 31.5 14.5 30.8284 14.5 30V27.5H5C4.17157 27.5 3.5 26.8284 3.5 26C3.5 25.1716 4.17157 24.5 5 24.5H23C24.933 24.5 26.5 22.933 26.5 21C26.5 19.067 24.933 17.5 23 17.5H9C5.41015 17.5 2.5 14.5899 2.5 11C2.5 7.41015 5.41015 4.5 9 4.5H14.5V2C14.5 1.17157 15.1716 0.5 16 0.5Z" fill="black"/>
</svg>
