<svg width="20" height="20" viewBox="0 0 20 20" fill="none" xmlns="http://www.w3.org/2000/svg">
<path d="M1.5625 3.125C1.5625 2.60723 1.98223 2.1875 2.5 2.1875H17.5C18.0178 2.1875 18.4375 2.60723 18.4375 3.125C18.4375 3.64277 18.0178 4.0625 17.5 4.0625H5.9375V6.25C5.9375 7.8033 7.1967 9.0625 8.75 9.0625H17.5C18.0178 9.0625 18.4375 9.48223 18.4375 10C18.4375 10.5178 18.0178 10.9375 17.5 10.9375H10.9375V13.125C10.9375 14.6783 12.1967 15.9375 13.75 15.9375H17.5C18.0178 15.9375 18.4375 16.3572 18.4375 16.875C18.4375 17.3928 18.0178 17.8125 17.5 17.8125H13.75C11.1612 17.8125 9.0625 15.7138 9.0625 13.125V10.9375H8.75C6.16117 10.9375 4.0625 8.83883 4.0625 6.25V4.0625H2.5C1.98223 4.0625 1.5625 3.64277 1.5625 3.125Z" fill="#1F1F1F"/>
</svg>
