<svg width="32" height="32" viewBox="0 0 32 32" fill="none" xmlns="http://www.w3.org/2000/svg">
<g clip-path="url(#clip0_6750_5914)">
<path d="M23.0607 12.0607C23.6464 11.4749 23.6464 10.5251 23.0607 9.93934C22.4749 9.35355 21.5251 9.35355 20.9393 9.93934L14 16.8787L12.0607 14.9393C11.4749 14.3536 10.5251 14.3536 9.93934 14.9393C9.35355 15.5251 9.35355 16.4749 9.93934 17.0607L12.9393 20.0607C13.5251 20.6464 14.4749 20.6464 15.0607 20.0607L23.0607 12.0607Z" fill="black"/>
<path fill-rule="evenodd" clip-rule="evenodd" d="M16 0.5C7.43959 0.5 0.5 7.43959 0.5 16C0.5 24.5604 7.43959 31.5 16 31.5C24.5604 31.5 31.5 24.5604 31.5 16C31.5 7.43959 24.5604 0.5 16 0.5ZM3.5 16C3.5 9.09644 9.09644 3.5 16 3.5C22.9036 3.5 28.5 9.09644 28.5 16C28.5 22.9036 22.9036 28.5 16 28.5C9.09644 28.5 3.5 22.9036 3.5 16Z" fill="black"/>
</g>
<defs>
<clipPath id="clip0_6750_5914">
<rect width="32" height="32" fill="white"/>
</clipPath>
</defs>
</svg>
