<svg width="20" height="20" viewBox="0 0 20 20" fill="none" xmlns="http://www.w3.org/2000/svg">
<g clip-path="url(#clip0_6761_14178)">
<path fill-rule="evenodd" clip-rule="evenodd" d="M5.3125 1.25C5.3125 0.732233 4.89277 0.3125 4.375 0.3125C3.85723 0.3125 3.4375 0.732233 3.4375 1.25C3.4375 2.14715 3.21384 2.64782 2.93083 2.93084C2.64781 3.21385 2.14714 3.4375 1.25 3.4375C0.732233 3.4375 0.3125 3.85723 0.3125 4.375C0.3125 4.89277 0.732233 5.3125 1.25 5.3125C2.14716 5.3125 2.64783 5.53615 2.93084 5.81916C3.21385 6.10217 3.4375 6.60284 3.4375 7.5C3.4375 8.01777 3.85723 8.4375 4.375 8.4375C4.89277 8.4375 5.3125 8.01777 5.3125 7.5C5.3125 6.60284 5.53615 6.10217 5.81916 5.81916C6.10217 5.53615 6.60284 5.3125 7.5 5.3125C8.01777 5.3125 8.4375 4.89277 8.4375 4.375C8.4375 3.85723 8.01777 3.4375 7.5 3.4375C6.60284 3.4375 6.10217 3.21385 5.81916 2.93084C5.53615 2.64783 5.3125 2.14716 5.3125 1.25Z" fill="#1F1F1F"/>
<path fill-rule="evenodd" clip-rule="evenodd" d="M13.4375 6.25C13.4375 5.73223 13.0178 5.3125 12.5 5.3125C11.9822 5.3125 11.5625 5.73223 11.5625 6.25C11.5625 8.18882 11.0784 9.47074 10.2746 10.2746C9.47072 11.0784 8.18879 11.5625 6.25 11.5625C5.73223 11.5625 5.3125 11.9822 5.3125 12.5C5.3125 13.0178 5.73223 13.4375 6.25 13.4375C8.18882 13.4375 9.47075 13.9216 10.2746 14.7254C11.0784 15.5293 11.5625 16.8112 11.5625 18.75C11.5625 19.2678 11.9822 19.6875 12.5 19.6875C13.0178 19.6875 13.4375 19.2678 13.4375 18.75C13.4375 16.8112 13.9216 15.5293 14.7254 14.7254C15.5293 13.9216 16.8112 13.4375 18.75 13.4375C19.2678 13.4375 19.6875 13.0178 19.6875 12.5C19.6875 11.9822 19.2678 11.5625 18.75 11.5625C16.8112 11.5625 15.5293 11.0784 14.7254 10.2746C13.9216 9.47075 13.4375 8.18882 13.4375 6.25ZM11.6004 11.6004C11.9543 11.2465 12.253 10.8494 12.5 10.413C12.7469 10.8494 13.0456 11.2465 13.3996 11.6004C13.7535 11.9544 14.1506 12.2531 14.587 12.5C14.1506 12.7469 13.7535 13.0456 13.3996 13.3996C13.0456 13.7535 12.7469 14.1506 12.5 14.587C12.2531 14.1506 11.9544 13.7535 11.6004 13.3996C11.2465 13.0456 10.8494 12.7469 10.413 12.5C10.8494 12.2531 11.2464 11.9544 11.6004 11.6004Z" fill="#1F1F1F"/>
</g>
<defs>
<clipPath id="clip0_6761_14178">
<rect width="20" height="20" fill="white"/>
</clipPath>
</defs>
</svg>
