<svg width="32" height="32" viewBox="0 0 32 32" fill="none" xmlns="http://www.w3.org/2000/svg">
<path fill-rule="evenodd" clip-rule="evenodd" d="M9.72704 2.5L11.7639 2.5C13.7025 2.5 15.4747 3.59527 16.3416 5.32918C16.7004 6.04674 17.4338 6.5 18.2361 6.5L22.4012 6.5C23.5896 6.49998 24.5814 6.49995 25.3886 6.57311C26.2317 6.64953 27.0196 6.81514 27.75 7.23686C28.5861 7.71959 29.2804 8.4139 29.7631 9.25C30.1849 9.98045 30.3505 10.7683 30.4269 11.6114C30.5001 12.4186 30.5 13.4104 30.5 14.5989V15.0688C30.5 17.3451 30.5 19.149 30.3765 20.601C30.2502 22.0861 29.9865 23.3403 29.3783 24.4783C28.4925 26.1353 27.1353 27.4925 25.4783 28.3783C24.3403 28.9865 23.0861 29.2502 21.601 29.3765C20.149 29.5 18.3451 29.5 16.0688 29.5H15.9312C13.6549 29.5 11.851 29.5 10.399 29.3765C8.91386 29.2502 7.65971 28.9865 6.52173 28.3783C4.86467 27.4925 3.50747 26.1353 2.62175 24.4783C2.01349 23.3403 1.7498 22.0861 1.62348 20.601C1.49998 19.149 1.49999 17.3451 1.5 15.0688L1.5 10.727C1.49997 9.47917 1.49995 8.43778 1.58033 7.59194C1.66435 6.70773 1.84666 5.88369 2.30956 5.12776C2.76345 4.38655 3.38655 3.76345 4.12776 3.30956C4.88369 2.84666 5.70773 2.66435 6.59194 2.58033C7.43778 2.49995 8.47917 2.49997 9.72704 2.5ZM6.87574 5.56687C6.21098 5.63004 5.89999 5.74211 5.69444 5.86799C5.35752 6.0743 5.0743 6.35752 4.86799 6.69444C4.74211 6.89999 4.63004 7.21098 4.56687 7.87574C4.50158 8.5628 4.5 9.46075 4.5 10.7984V15C4.5 17.3605 4.50127 19.0368 4.61268 20.3467C4.72252 21.638 4.93114 22.4348 5.26751 23.0641C5.87353 24.1979 6.80214 25.1265 7.93592 25.7325C8.56523 26.0689 9.36203 26.2775 10.6533 26.3873C11.9632 26.4987 13.6396 26.5 16 26.5C18.3605 26.5 20.0368 26.4987 21.3467 26.3873C22.638 26.2775 23.4348 26.0689 24.0641 25.7325C25.1979 25.1265 26.1265 24.1979 26.7325 23.0641C27.0689 22.4348 27.2775 21.638 27.3873 20.3467C27.4987 19.0368 27.5 17.3605 27.5 15V14.6667C27.5 13.3929 27.4986 12.5379 27.4391 11.8822C27.3816 11.2471 27.2792 10.9478 27.1651 10.75C26.9456 10.37 26.6301 10.0544 26.25 9.83494C26.0522 9.72077 25.7529 9.61842 25.1178 9.56087C24.4621 9.50144 23.6071 9.5 22.3333 9.5H18.2361C16.2975 9.5 14.5253 8.40473 13.6584 6.67082C13.2996 5.95327 12.5662 5.5 11.7639 5.5H9.79838C8.46075 5.5 7.5628 5.50158 6.87574 5.56687Z" fill="black"/>
</svg>
