<svg width="278" height="278" viewBox="0 0 278 278" fill="none" xmlns="http://www.w3.org/2000/svg">
<g clip-path="url(#clip0_6808_15892)">
<path d="M0 16C0 7.16344 7.16344 0 16 0H262C270.837 0 278 7.16344 278 16V262C278 270.837 270.837 278 262 278H16C7.16344 278 0 270.837 0 262V16Z" fill="#F5F5F5"/>
<rect x="12" y="12" width="60" height="20" rx="6" fill="#6696FF" fill-opacity="0.16"/>
<rect x="12.5" y="12.5" width="59" height="19" rx="5.5" stroke="#6696FF" stroke-opacity="0.32"/>
<path d="M18.9602 18.7273H20.8565L22.8594 23.6136H22.9446L24.9474 18.7273H26.8438V26H25.3523V21.2663H25.2919L23.4098 25.9645H22.3942L20.5121 21.2486H20.4517V26H18.9602V18.7273ZM29.3642 26H27.7164L30.2271 18.7273H32.2086L34.7157 26H33.068L31.2463 20.3892H31.1895L29.3642 26ZM29.2612 23.1413H33.1532V24.3416H29.2612V23.1413ZM35.5911 26V18.7273H38.4604C39.012 18.7273 39.4819 18.8326 39.8702 19.0433C40.2585 19.2517 40.5544 19.5417 40.758 19.9134C40.964 20.2827 41.0669 20.7088 41.0669 21.1918C41.0669 21.6747 40.9628 22.1009 40.7544 22.4702C40.5461 22.8395 40.2443 23.1271 39.8489 23.3331C39.4559 23.5391 38.9801 23.642 38.4213 23.642H36.5925V22.4098H38.1728C38.4687 22.4098 38.7125 22.3589 38.9043 22.2571C39.0984 22.1529 39.2428 22.0097 39.3375 21.8274C39.4346 21.6428 39.4831 21.4309 39.4831 21.1918C39.4831 20.9503 39.4346 20.7396 39.3375 20.5597C39.2428 20.3774 39.0984 20.2365 38.9043 20.1371C38.7102 20.0353 38.464 19.9844 38.1657 19.9844H37.1287V26H35.5911ZM42.0657 26V18.7273H44.935C45.4866 18.7273 45.9566 18.8326 46.3448 19.0433C46.7331 19.2517 47.029 19.5417 47.2326 19.9134C47.4386 20.2827 47.5415 20.7088 47.5415 21.1918C47.5415 21.6747 47.4374 22.1009 47.229 22.4702C47.0207 22.8395 46.7189 23.1271 46.3235 23.3331C45.9305 23.5391 45.4547 23.642 44.896 23.642H43.0671V22.4098H44.6474C44.9433 22.4098 45.1871 22.3589 45.3789 22.2571C45.573 22.1529 45.7174 22.0097 45.8121 21.8274C45.9092 21.6428 45.9577 21.4309 45.9577 21.1918C45.9577 20.9503 45.9092 20.7396 45.8121 20.5597C45.7174 20.3774 45.573 20.2365 45.3789 20.1371C45.1848 20.0353 44.9386 19.9844 44.6403 19.9844H43.6033V26H42.0657ZM50.0779 18.7273V26H48.5403V18.7273H50.0779ZM57.4261 18.7273V26H56.098L52.9339 21.4226H52.8807V26H51.343V18.7273H52.6925L55.8317 23.3011H55.8956V18.7273H57.4261ZM63.519 21.0781C63.4693 20.9053 63.3994 20.7526 63.3095 20.62C63.2195 20.4851 63.1094 20.3714 62.9792 20.2791C62.8514 20.1844 62.7046 20.1122 62.5389 20.0625C62.3755 20.0128 62.1944 19.9879 61.9956 19.9879C61.6239 19.9879 61.2972 20.0803 61.0154 20.2649C60.7361 20.4496 60.5183 20.7183 60.362 21.071C60.2058 21.4214 60.1277 21.8499 60.1277 22.3565C60.1277 22.8632 60.2046 23.294 60.3585 23.6491C60.5124 24.0043 60.7302 24.2753 61.0119 24.4624C61.2936 24.647 61.6262 24.7393 62.0098 24.7393C62.3578 24.7393 62.6549 24.6778 62.9011 24.5547C63.1497 24.4292 63.3391 24.2528 63.4693 24.0256C63.6019 23.7983 63.6681 23.5296 63.6681 23.2195L63.9806 23.2656H62.1056V22.108H65.149V23.0241C65.149 23.6634 65.014 24.2126 64.7441 24.6719C64.4743 25.1288 64.1026 25.4815 63.6291 25.7301C63.1556 25.9763 62.6135 26.0994 62.0027 26.0994C61.3208 26.0994 60.7219 25.9491 60.2058 25.6484C59.6897 25.3454 59.2872 24.9157 58.9984 24.3594C58.7119 23.8007 58.5687 23.1378 58.5687 22.3707C58.5687 21.7812 58.6539 21.2557 58.8244 20.794C58.9972 20.33 59.2387 19.937 59.5488 19.6151C59.859 19.2931 60.22 19.0481 60.6319 18.88C61.0439 18.7119 61.4901 18.6278 61.9707 18.6278C62.3826 18.6278 62.7662 18.6882 63.1213 18.8089C63.4764 18.9273 63.7913 19.0954 64.0659 19.3132C64.3429 19.531 64.569 19.7902 64.7441 20.0909C64.9193 20.3892 65.0318 20.7183 65.0815 21.0781H63.519Z" fill="#293C66"/>
<rect x="59" y="72" width="160" height="320" rx="16" fill="white"/>
<rect x="59" y="72" width="160" height="320" rx="16" stroke="#1F1F1F" stroke-width="2"/>
<path d="M80.0114 106V94.3636H87.7159V96.392H82.4716V99.1648H87.2045V101.193H82.4716V106H80.0114ZM92.3419 106.17C91.4442 106.17 90.6715 105.989 90.0238 105.625C89.3798 105.258 88.8836 104.739 88.5351 104.068C88.1866 103.394 88.0124 102.597 88.0124 101.676C88.0124 100.778 88.1866 99.9905 88.5351 99.3125C88.8836 98.6345 89.3741 98.1061 90.0067 97.7273C90.6431 97.3485 91.3893 97.1591 92.2453 97.1591C92.8211 97.1591 93.3571 97.2519 93.8533 97.4375C94.3533 97.6193 94.7889 97.8939 95.1601 98.2614C95.5351 98.6288 95.8268 99.0909 96.0351 99.6477C96.2434 100.201 96.3476 100.848 96.3476 101.591V102.256H88.9783V100.756H94.0692C94.0692 100.407 93.9934 100.098 93.8419 99.8295C93.6904 99.5606 93.4802 99.3504 93.2113 99.1989C92.9461 99.0436 92.6374 98.9659 92.2851 98.9659C91.9177 98.9659 91.5919 99.0511 91.3078 99.2216C91.0275 99.3883 90.8078 99.6136 90.6488 99.8977C90.4897 100.178 90.4082 100.491 90.4044 100.835V102.261C90.4044 102.693 90.484 103.066 90.6431 103.381C90.8059 103.695 91.0351 103.938 91.3306 104.108C91.626 104.278 91.9764 104.364 92.3817 104.364C92.6506 104.364 92.8969 104.326 93.1203 104.25C93.3438 104.174 93.5351 104.061 93.6942 103.909C93.8533 103.758 93.9745 103.572 94.0578 103.352L96.2965 103.5C96.1828 104.038 95.9499 104.508 95.5976 104.909C95.2491 105.307 94.7984 105.617 94.2453 105.841C93.6961 106.061 93.0616 106.17 92.3419 106.17ZM100.096 106.165C99.539 106.165 99.0428 106.068 98.6072 105.875C98.1716 105.678 97.8269 105.388 97.5731 105.006C97.3231 104.619 97.1981 104.138 97.1981 103.562C97.1981 103.078 97.2871 102.67 97.4651 102.341C97.6431 102.011 97.8856 101.746 98.1924 101.545C98.4992 101.345 98.8477 101.193 99.2378 101.091C99.6318 100.989 100.045 100.917 100.476 100.875C100.984 100.822 101.393 100.773 101.704 100.727C102.014 100.678 102.24 100.606 102.38 100.511C102.52 100.417 102.59 100.277 102.59 100.091V100.057C102.59 99.697 102.476 99.4186 102.249 99.2216C102.026 99.0246 101.708 98.9261 101.295 98.9261C100.859 98.9261 100.512 99.0227 100.255 99.2159C99.9973 99.4053 99.8269 99.6439 99.7435 99.9318L97.5049 99.75C97.6185 99.2197 97.842 98.7614 98.1753 98.375C98.5087 97.9848 98.9386 97.6856 99.4651 97.4773C99.9954 97.2652 100.609 97.1591 101.306 97.1591C101.791 97.1591 102.255 97.2159 102.698 97.3295C103.145 97.4432 103.541 97.6193 103.886 97.858C104.234 98.0966 104.509 98.4034 104.709 98.7784C104.91 99.1496 105.011 99.5947 105.011 100.114V106H102.715V104.79H102.647C102.507 105.062 102.319 105.303 102.084 105.511C101.85 105.716 101.567 105.877 101.238 105.994C100.908 106.108 100.528 106.165 100.096 106.165ZM100.789 104.494C101.145 104.494 101.459 104.424 101.732 104.284C102.005 104.14 102.219 103.947 102.374 103.705C102.53 103.462 102.607 103.187 102.607 102.881V101.955C102.531 102.004 102.427 102.049 102.295 102.091C102.166 102.129 102.02 102.165 101.857 102.199C101.694 102.229 101.531 102.258 101.369 102.284C101.206 102.307 101.058 102.328 100.925 102.347C100.641 102.388 100.393 102.455 100.181 102.545C99.9689 102.636 99.8041 102.759 99.6867 102.915C99.5693 103.066 99.5106 103.256 99.5106 103.483C99.5106 103.812 99.6299 104.064 99.8685 104.239C100.111 104.409 100.418 104.494 100.789 104.494ZM111.21 97.2727V99.0909H105.955V97.2727H111.21ZM107.148 95.1818H109.568V103.318C109.568 103.542 109.603 103.716 109.671 103.841C109.739 103.962 109.834 104.047 109.955 104.097C110.08 104.146 110.224 104.17 110.387 104.17C110.5 104.17 110.614 104.161 110.728 104.142C110.841 104.119 110.928 104.102 110.989 104.091L111.37 105.892C111.248 105.93 111.078 105.973 110.858 106.023C110.638 106.076 110.371 106.108 110.057 106.119C109.474 106.142 108.962 106.064 108.523 105.886C108.087 105.708 107.748 105.432 107.506 105.057C107.263 104.682 107.144 104.208 107.148 103.636V95.1818ZM118.064 102.284V97.2727H120.484V106H118.16V104.415H118.069C117.872 104.926 117.545 105.337 117.086 105.648C116.632 105.958 116.077 106.114 115.422 106.114C114.838 106.114 114.325 105.981 113.882 105.716C113.439 105.451 113.092 105.074 112.842 104.585C112.596 104.097 112.471 103.511 112.467 102.83V97.2727H114.888V102.398C114.891 102.913 115.03 103.32 115.302 103.619C115.575 103.919 115.941 104.068 116.399 104.068C116.691 104.068 116.963 104.002 117.217 103.869C117.471 103.733 117.675 103.532 117.831 103.267C117.99 103.002 118.068 102.674 118.064 102.284ZM122.1 106V97.2727H124.447V98.7955H124.538C124.697 98.2538 124.964 97.8447 125.339 97.5682C125.714 97.2879 126.146 97.1477 126.634 97.1477C126.756 97.1477 126.886 97.1553 127.026 97.1705C127.167 97.1856 127.29 97.2064 127.396 97.233V99.3807C127.282 99.3466 127.125 99.3163 126.924 99.2898C126.723 99.2633 126.54 99.25 126.373 99.25C126.017 99.25 125.699 99.3277 125.418 99.483C125.142 99.6345 124.922 99.8466 124.759 100.119C124.6 100.392 124.521 100.706 124.521 101.062V106H122.1ZM131.898 106.17C131 106.17 130.228 105.989 129.58 105.625C128.936 105.258 128.44 104.739 128.091 104.068C127.743 103.394 127.569 102.597 127.569 101.676C127.569 100.778 127.743 99.9905 128.091 99.3125C128.44 98.6345 128.93 98.1061 129.563 97.7273C130.199 97.3485 130.946 97.1591 131.802 97.1591C132.377 97.1591 132.913 97.2519 133.41 97.4375C133.91 97.6193 134.345 97.8939 134.716 98.2614C135.091 98.6288 135.383 99.0909 135.591 99.6477C135.8 100.201 135.904 100.848 135.904 101.591V102.256H128.535V100.756H133.625C133.625 100.407 133.55 100.098 133.398 99.8295C133.247 99.5606 133.036 99.3504 132.768 99.1989C132.502 99.0436 132.194 98.9659 131.841 98.9659C131.474 98.9659 131.148 99.0511 130.864 99.2216C130.584 99.3883 130.364 99.6136 130.205 99.8977C130.046 100.178 129.964 100.491 129.961 100.835V102.261C129.961 102.693 130.04 103.066 130.199 103.381C130.362 103.695 130.591 103.938 130.887 104.108C131.182 104.278 131.533 104.364 131.938 104.364C132.207 104.364 132.453 104.326 132.677 104.25C132.9 104.174 133.091 104.061 133.25 103.909C133.41 103.758 133.531 103.572 133.614 103.352L135.853 103.5C135.739 104.038 135.506 104.508 135.154 104.909C134.805 105.307 134.355 105.617 133.802 105.841C133.252 106.061 132.618 106.17 131.898 106.17ZM144.425 99.7614L142.209 99.8977C142.171 99.7083 142.09 99.5379 141.965 99.3864C141.84 99.2311 141.675 99.108 141.47 99.017C141.269 98.9223 141.029 98.875 140.749 98.875C140.374 98.875 140.057 98.9545 139.8 99.1136C139.542 99.2689 139.413 99.4773 139.413 99.7386C139.413 99.947 139.497 100.123 139.663 100.267C139.83 100.411 140.116 100.527 140.521 100.614L142.101 100.932C142.949 101.106 143.582 101.386 143.999 101.773C144.415 102.159 144.624 102.667 144.624 103.295C144.624 103.867 144.455 104.369 144.118 104.801C143.785 105.233 143.326 105.57 142.743 105.812C142.163 106.051 141.495 106.17 140.737 106.17C139.582 106.17 138.662 105.93 137.976 105.449C137.294 104.964 136.894 104.305 136.777 103.472L139.158 103.347C139.23 103.699 139.404 103.968 139.68 104.153C139.957 104.335 140.311 104.426 140.743 104.426C141.167 104.426 141.508 104.345 141.766 104.182C142.027 104.015 142.16 103.801 142.163 103.54C142.16 103.32 142.067 103.14 141.885 103C141.703 102.856 141.423 102.746 141.044 102.67L139.533 102.369C138.68 102.199 138.046 101.903 137.629 101.483C137.216 101.062 137.01 100.527 137.01 99.875C137.01 99.3144 137.162 98.8314 137.465 98.4261C137.771 98.0208 138.201 97.7083 138.754 97.4886C139.311 97.2689 139.963 97.1591 140.709 97.1591C141.811 97.1591 142.679 97.392 143.311 97.858C143.947 98.3239 144.319 98.9583 144.425 99.7614Z" fill="#1F1F1F"/>
<rect x="79" y="118" width="55" height="16" rx="8" fill="#1F1F1F"/>
<path d="M88.2763 123.182V129H87.0462V124.349H87.0121L85.6797 125.185V124.094L87.12 123.182H88.2763ZM89.6591 129V128.114L91.7301 126.196C91.9063 126.026 92.054 125.872 92.1733 125.736C92.2945 125.599 92.3864 125.466 92.4489 125.335C92.5114 125.203 92.5426 125.06 92.5426 124.906C92.5426 124.736 92.5038 124.589 92.4261 124.466C92.3485 124.341 92.2424 124.245 92.108 124.179C91.9735 124.111 91.821 124.077 91.6506 124.077C91.4725 124.077 91.3172 124.113 91.1847 124.185C91.0521 124.257 90.9498 124.36 90.8778 124.494C90.8059 124.629 90.7699 124.789 90.7699 124.974H89.6023C89.6023 124.594 89.6884 124.263 89.8608 123.983C90.0331 123.703 90.2746 123.486 90.5852 123.332C90.8958 123.179 91.2538 123.102 91.6591 123.102C92.0758 123.102 92.4384 123.176 92.7472 123.324C93.0578 123.47 93.2992 123.672 93.4716 123.932C93.6439 124.191 93.7301 124.489 93.7301 124.824C93.7301 125.044 93.6866 125.26 93.5994 125.474C93.5142 125.688 93.3617 125.926 93.142 126.188C92.9223 126.447 92.6127 126.759 92.2131 127.122L91.3636 127.955V127.994H93.8068V129H89.6591ZM94.7322 129V123.182H95.9624V125.582H98.4595V123.182H99.6868V129H98.4595V126.597H95.9624V129H94.7322ZM105.064 122.909L103.189 129.875H102.146L104.021 122.909H105.064ZM109.442 129.727V122.455H109.908V129.727H109.442ZM110.678 124.855C110.655 124.626 110.557 124.448 110.385 124.321C110.213 124.194 109.979 124.131 109.683 124.131C109.482 124.131 109.313 124.159 109.175 124.216C109.036 124.271 108.93 124.348 108.857 124.446C108.785 124.545 108.749 124.656 108.749 124.781C108.745 124.885 108.767 124.976 108.814 125.054C108.863 125.132 108.93 125.199 109.016 125.256C109.101 125.311 109.199 125.359 109.311 125.401C109.423 125.44 109.542 125.474 109.669 125.503L110.192 125.628C110.446 125.685 110.679 125.76 110.891 125.855C111.103 125.95 111.286 126.066 111.442 126.205C111.597 126.343 111.717 126.506 111.803 126.693C111.89 126.881 111.934 127.096 111.936 127.338C111.934 127.694 111.843 128.003 111.663 128.264C111.485 128.524 111.228 128.725 110.891 128.869C110.555 129.011 110.151 129.082 109.678 129.082C109.208 129.082 108.799 129.01 108.45 128.866C108.104 128.723 107.833 128.509 107.638 128.227C107.445 127.943 107.343 127.592 107.334 127.173H108.524C108.537 127.368 108.593 127.531 108.692 127.662C108.792 127.791 108.926 127.888 109.092 127.955C109.261 128.019 109.451 128.051 109.663 128.051C109.872 128.051 110.053 128.021 110.206 127.96C110.361 127.9 110.482 127.815 110.567 127.707C110.652 127.599 110.695 127.475 110.695 127.335C110.695 127.205 110.656 127.095 110.578 127.006C110.502 126.917 110.391 126.841 110.243 126.778C110.097 126.716 109.918 126.659 109.706 126.608L109.072 126.449C108.582 126.33 108.195 126.143 107.911 125.889C107.626 125.635 107.485 125.294 107.487 124.864C107.485 124.511 107.579 124.204 107.768 123.94C107.96 123.677 108.222 123.472 108.555 123.324C108.889 123.176 109.268 123.102 109.692 123.102C110.124 123.102 110.5 123.176 110.822 123.324C111.146 123.472 111.398 123.677 111.578 123.94C111.758 124.204 111.851 124.509 111.857 124.855H110.678ZM112.96 129L115.371 124.227V124.188H112.562V123.182H116.644V124.202L114.229 129H112.96ZM119.514 123.102C119.813 123.102 120.101 123.152 120.378 123.253C120.656 123.353 120.904 123.513 121.122 123.733C121.342 123.953 121.515 124.244 121.642 124.608C121.771 124.97 121.836 125.414 121.838 125.94C121.838 126.435 121.782 126.876 121.67 127.264C121.561 127.651 121.402 127.979 121.196 128.25C120.99 128.521 120.741 128.727 120.449 128.869C120.157 129.009 119.831 129.08 119.472 129.08C119.083 129.08 118.741 129.005 118.443 128.855C118.146 128.704 117.906 128.498 117.724 128.239C117.545 127.977 117.436 127.684 117.398 127.358H118.611C118.658 127.57 118.758 127.735 118.909 127.852C119.061 127.968 119.248 128.026 119.472 128.026C119.85 128.026 120.138 127.861 120.335 127.531C120.532 127.2 120.632 126.746 120.634 126.17H120.594C120.507 126.341 120.389 126.488 120.241 126.611C120.094 126.732 119.924 126.826 119.733 126.892C119.544 126.958 119.342 126.991 119.128 126.991C118.785 126.991 118.479 126.911 118.21 126.75C117.941 126.589 117.729 126.367 117.574 126.085C117.419 125.803 117.341 125.481 117.341 125.119C117.339 124.729 117.429 124.382 117.611 124.077C117.793 123.772 118.046 123.533 118.372 123.361C118.7 123.187 119.08 123.1 119.514 123.102ZM119.523 124.068C119.331 124.068 119.161 124.114 119.011 124.205C118.864 124.295 118.746 124.418 118.659 124.571C118.574 124.724 118.532 124.896 118.534 125.085C118.534 125.277 118.576 125.449 118.659 125.602C118.744 125.754 118.86 125.875 119.006 125.966C119.153 126.055 119.322 126.099 119.511 126.099C119.653 126.099 119.785 126.073 119.906 126.02C120.027 125.967 120.133 125.894 120.222 125.801C120.313 125.706 120.384 125.598 120.435 125.474C120.486 125.351 120.511 125.221 120.511 125.082C120.509 124.899 120.466 124.73 120.381 124.577C120.295 124.423 120.178 124.3 120.028 124.207C119.879 124.115 119.71 124.068 119.523 124.068ZM124.972 129.128C124.483 129.126 124.063 129.006 123.71 128.767C123.36 128.528 123.09 128.183 122.901 127.73C122.713 127.277 122.62 126.733 122.622 126.097C122.622 125.462 122.716 124.921 122.903 124.474C123.093 124.027 123.363 123.687 123.713 123.455C124.065 123.22 124.485 123.102 124.972 123.102C125.458 123.102 125.877 123.22 126.227 123.455C126.58 123.689 126.85 124.03 127.04 124.477C127.229 124.922 127.323 125.462 127.321 126.097C127.321 126.735 127.226 127.28 127.037 127.733C126.849 128.186 126.58 128.531 126.23 128.77C125.88 129.009 125.46 129.128 124.972 129.128ZM124.972 128.108C125.305 128.108 125.571 127.94 125.77 127.605C125.969 127.27 126.067 126.767 126.065 126.097C126.065 125.655 126.02 125.288 125.929 124.994C125.84 124.701 125.713 124.48 125.548 124.332C125.385 124.185 125.193 124.111 124.972 124.111C124.64 124.111 124.375 124.277 124.176 124.608C123.977 124.939 123.877 125.436 123.875 126.097C123.875 126.544 123.92 126.917 124.009 127.216C124.099 127.513 124.227 127.737 124.392 127.886C124.557 128.034 124.75 128.108 124.972 128.108Z" fill="white"/>
<rect x="138" y="118" width="32" height="16" rx="8" fill="#F5CC00" fill-opacity="0.4"/>
<rect x="138.5" y="118.5" width="31" height="15" rx="7.5" stroke="#F5CC00" stroke-opacity="0.4"/>
<path d="M149.837 123.182V129H148.775L146.243 125.338H146.201V129H144.971V123.182H146.05L148.561 126.841H148.613V123.182H149.837ZM150.853 129V123.182H154.774V124.196H152.083V125.582H154.572V126.597H152.083V127.986H154.785V129H150.853ZM157.061 129L155.397 123.182H156.74L157.703 127.224H157.752L158.814 123.182H159.965L161.025 127.233H161.076L162.039 123.182H163.382L161.718 129H160.519L159.411 125.196H159.365L158.26 129H157.061Z" fill="#625200"/>
<rect x="69" y="146" width="140" height="36" rx="8" fill="#F5CC00" fill-opacity="0.16"/>
<path d="M81.8608 159.273H83.7955L86.3864 165.597H86.4886L89.0795 159.273H91.0142V168H89.4972V162.004H89.4162L87.0043 167.974H85.8707L83.4588 161.991H83.3778V168H81.8608V159.273ZM95.5653 168.128C94.9091 168.128 94.3423 167.991 93.8651 167.719C93.3906 167.443 93.0256 167.054 92.7699 166.551C92.5142 166.045 92.3864 165.45 92.3864 164.766C92.3864 164.092 92.5142 163.501 92.7699 162.993C93.0284 162.482 93.3892 162.084 93.8523 161.8C94.3153 161.513 94.8594 161.369 95.4844 161.369C95.8878 161.369 96.2685 161.435 96.6264 161.565C96.9872 161.693 97.3054 161.892 97.581 162.162C97.8594 162.432 98.0781 162.776 98.2372 163.193C98.3963 163.608 98.4759 164.102 98.4759 164.676V165.149H93.1108V164.109H96.9972C96.9943 163.814 96.9304 163.551 96.8054 163.321C96.6804 163.088 96.5057 162.905 96.2812 162.771C96.0597 162.638 95.8011 162.571 95.5057 162.571C95.1903 162.571 94.9134 162.648 94.6747 162.801C94.4361 162.952 94.25 163.151 94.1165 163.398C93.9858 163.642 93.919 163.911 93.9162 164.203V165.111C93.9162 165.491 93.9858 165.818 94.125 166.091C94.2642 166.361 94.4588 166.568 94.7088 166.713C94.9588 166.855 95.2514 166.926 95.5866 166.926C95.8111 166.926 96.0142 166.895 96.196 166.832C96.3778 166.767 96.5355 166.672 96.669 166.547C96.8026 166.422 96.9034 166.267 96.9716 166.082L98.4119 166.244C98.321 166.625 98.1477 166.957 97.892 167.241C97.6392 167.523 97.3153 167.741 96.9205 167.898C96.5256 168.051 96.0739 168.128 95.5653 168.128ZM101.324 164.165V168H99.7809V161.455H101.255V162.567H101.332C101.483 162.2 101.723 161.909 102.052 161.693C102.385 161.477 102.795 161.369 103.284 161.369C103.735 161.369 104.129 161.466 104.464 161.659C104.802 161.852 105.064 162.132 105.248 162.499C105.436 162.865 105.528 163.31 105.525 163.832V168H103.983V164.071C103.983 163.634 103.869 163.291 103.642 163.044C103.417 162.797 103.106 162.673 102.708 162.673C102.439 162.673 102.199 162.733 101.988 162.852C101.781 162.969 101.618 163.138 101.498 163.359C101.382 163.581 101.324 163.849 101.324 164.165ZM111.265 165.247V161.455H112.808V168H111.312V166.837H111.244C111.096 167.203 110.853 167.503 110.515 167.736C110.18 167.969 109.767 168.085 109.275 168.085C108.846 168.085 108.467 167.99 108.137 167.8C107.811 167.607 107.555 167.327 107.37 166.96C107.186 166.591 107.093 166.145 107.093 165.622V161.455H108.636V165.384C108.636 165.798 108.75 166.128 108.977 166.372C109.204 166.616 109.502 166.739 109.872 166.739C110.099 166.739 110.319 166.683 110.532 166.572C110.745 166.462 110.92 166.297 111.056 166.078C111.196 165.857 111.265 165.58 111.265 165.247Z" fill="#625200"/>
<g clip-path="url(#clip1_6808_15892)">
<path d="M191.761 169.5H190.239C189.8 169.5 189.412 169.214 189.283 168.794L187.898 164.294C187.7 163.651 188.181 163 188.854 163H190.25V161.5C190.25 161.086 190.586 160.75 191 160.75C191.414 160.75 191.75 161.086 191.75 161.5V163H193.146C193.819 163 194.3 163.651 194.102 164.294L192.717 168.794C192.588 169.214 192.2 169.5 191.761 169.5Z" fill="#625200"/>
<path d="M186.25 159.75C185.836 159.75 185.5 159.414 185.5 159C185.5 158.586 185.836 158.25 186.25 158.25H195.75C196.164 158.25 196.5 158.586 196.5 159C196.5 159.414 196.164 159.75 195.75 159.75H186.25Z" fill="#625200"/>
</g>
<rect x="69" y="186" width="140" height="36" rx="8" fill="#36EB8D" fill-opacity="0.16"/>
<path d="M81.8608 208V199.273H83.4418V202.967H87.4858V199.273H89.071V208H87.4858V204.293H83.4418V208H81.8608ZM93.62 208.128C92.9638 208.128 92.397 207.991 91.9197 207.719C91.4453 207.443 91.0803 207.054 90.8246 206.551C90.5689 206.045 90.4411 205.45 90.4411 204.766C90.4411 204.092 90.5689 203.501 90.8246 202.993C91.0831 202.482 91.4439 202.084 91.907 201.8C92.37 201.513 92.9141 201.369 93.5391 201.369C93.9425 201.369 94.3232 201.435 94.6811 201.565C95.0419 201.693 95.3601 201.892 95.6357 202.162C95.9141 202.432 96.1328 202.776 96.2919 203.193C96.451 203.608 96.5305 204.102 96.5305 204.676V205.149H91.1655V204.109H95.0518C95.049 203.814 94.9851 203.551 94.8601 203.321C94.7351 203.088 94.5604 202.905 94.3359 202.771C94.1143 202.638 93.8558 202.571 93.5604 202.571C93.245 202.571 92.968 202.648 92.7294 202.801C92.4908 202.952 92.3047 203.151 92.1712 203.398C92.0405 203.642 91.9737 203.911 91.9709 204.203V205.111C91.9709 205.491 92.0405 205.818 92.1797 206.091C92.3189 206.361 92.5135 206.568 92.7635 206.713C93.0135 206.855 93.3061 206.926 93.6413 206.926C93.8658 206.926 94.0689 206.895 94.2507 206.832C94.4325 206.767 94.5902 206.672 94.7237 206.547C94.8572 206.422 94.9581 206.267 95.0263 206.082L96.4666 206.244C96.3757 206.625 96.2024 206.957 95.9467 207.241C95.6939 207.523 95.37 207.741 94.9751 207.898C94.5803 208.051 94.1286 208.128 93.62 208.128ZM99.7191 208.132C99.3043 208.132 98.9308 208.058 98.5984 207.911C98.2688 207.76 98.0075 207.538 97.8143 207.246C97.6239 206.953 97.5288 206.592 97.5288 206.163C97.5288 205.794 97.5969 205.489 97.7333 205.247C97.8697 205.006 98.0558 204.812 98.2915 204.668C98.5273 204.523 98.793 204.413 99.0884 204.339C99.3867 204.263 99.695 204.207 100.013 204.173C100.397 204.134 100.708 204.098 100.946 204.067C101.185 204.033 101.358 203.982 101.466 203.913C101.577 203.842 101.632 203.733 101.632 203.585V203.56C101.632 203.239 101.537 202.99 101.347 202.814C101.157 202.638 100.882 202.55 100.525 202.55C100.147 202.55 99.8469 202.632 99.6254 202.797C99.4066 202.962 99.2589 203.156 99.1822 203.381L97.7418 203.176C97.8555 202.778 98.043 202.446 98.3043 202.179C98.5657 201.909 98.8853 201.707 99.2631 201.574C99.641 201.438 100.059 201.369 100.516 201.369C100.831 201.369 101.145 201.406 101.458 201.48C101.77 201.554 102.056 201.676 102.314 201.847C102.573 202.014 102.78 202.243 102.936 202.533C103.096 202.822 103.175 203.185 103.175 203.619V208H101.692V207.101H101.641C101.547 207.283 101.415 207.453 101.245 207.612C101.077 207.768 100.865 207.895 100.61 207.991C100.357 208.085 100.06 208.132 99.7191 208.132ZM100.12 206.999C100.429 206.999 100.698 206.937 100.925 206.815C101.152 206.69 101.327 206.526 101.449 206.321C101.574 206.116 101.637 205.893 101.637 205.652V204.881C101.588 204.92 101.506 204.957 101.39 204.991C101.276 205.026 101.148 205.055 101.006 205.081C100.864 205.107 100.723 205.129 100.584 205.149C100.445 205.169 100.324 205.186 100.222 205.2C99.9918 205.232 99.7859 205.283 99.604 205.354C99.4222 205.425 99.2788 205.524 99.1737 205.652C99.0685 205.777 99.016 205.939 99.016 206.138C99.016 206.422 99.1197 206.636 99.3271 206.781C99.5344 206.926 99.7987 206.999 100.12 206.999ZM107.155 208.115C106.641 208.115 106.181 207.983 105.775 207.719C105.368 207.455 105.047 207.071 104.811 206.568C104.576 206.065 104.458 205.455 104.458 204.736C104.458 204.009 104.577 203.395 104.816 202.895C105.057 202.392 105.382 202.013 105.792 201.757C106.201 201.499 106.657 201.369 107.159 201.369C107.543 201.369 107.858 201.435 108.105 201.565C108.353 201.693 108.549 201.848 108.694 202.03C108.838 202.209 108.951 202.378 109.03 202.537H109.094V199.273H110.641V208H109.124V206.969H109.03C108.951 207.128 108.836 207.297 108.685 207.476C108.534 207.652 108.336 207.803 108.088 207.928C107.841 208.053 107.53 208.115 107.155 208.115ZM107.586 206.849C107.912 206.849 108.191 206.761 108.421 206.585C108.651 206.406 108.826 206.158 108.945 205.839C109.064 205.521 109.124 205.151 109.124 204.727C109.124 204.304 109.064 203.936 108.945 203.624C108.828 203.311 108.655 203.068 108.425 202.895C108.198 202.722 107.918 202.635 107.586 202.635C107.242 202.635 106.955 202.724 106.725 202.903C106.495 203.082 106.321 203.33 106.205 203.645C106.088 203.96 106.03 204.321 106.03 204.727C106.03 205.136 106.088 205.501 106.205 205.822C106.324 206.141 106.499 206.392 106.729 206.577C106.962 206.759 107.248 206.849 107.586 206.849ZM115.183 208.128C114.526 208.128 113.96 207.991 113.482 207.719C113.008 207.443 112.643 207.054 112.387 206.551C112.131 206.045 112.004 205.45 112.004 204.766C112.004 204.092 112.131 203.501 112.387 202.993C112.646 202.482 113.006 202.084 113.469 201.8C113.933 201.513 114.477 201.369 115.102 201.369C115.505 201.369 115.886 201.435 116.244 201.565C116.604 201.693 116.923 201.892 117.198 202.162C117.477 202.432 117.695 202.776 117.854 203.193C118.013 203.608 118.093 204.102 118.093 204.676V205.149H112.728V204.109H116.614C116.612 203.814 116.548 203.551 116.423 203.321C116.298 203.088 116.123 202.905 115.898 202.771C115.677 202.638 115.418 202.571 115.123 202.571C114.808 202.571 114.531 202.648 114.292 202.801C114.053 202.952 113.867 203.151 113.734 203.398C113.603 203.642 113.536 203.911 113.533 204.203V205.111C113.533 205.491 113.603 205.818 113.742 206.091C113.881 206.361 114.076 206.568 114.326 206.713C114.576 206.855 114.869 206.926 115.204 206.926C115.428 206.926 115.631 206.895 115.813 206.832C115.995 206.767 116.153 206.672 116.286 206.547C116.42 206.422 116.521 206.267 116.589 206.082L118.029 206.244C117.938 206.625 117.765 206.957 117.509 207.241C117.256 207.523 116.933 207.741 116.538 207.898C116.143 208.051 115.691 208.128 115.183 208.128ZM119.398 208V201.455H120.894V202.545H120.962C121.081 202.168 121.286 201.876 121.576 201.672C121.868 201.464 122.202 201.361 122.577 201.361C122.662 201.361 122.757 201.365 122.863 201.374C122.971 201.379 123.06 201.389 123.131 201.403V202.822C123.066 202.8 122.962 202.78 122.82 202.763C122.681 202.743 122.546 202.733 122.415 202.733C122.134 202.733 121.881 202.794 121.657 202.916C121.435 203.036 121.26 203.202 121.132 203.415C121.005 203.628 120.941 203.874 120.941 204.152V208H119.398Z" fill="#165E38"/>
<g clip-path="url(#clip2_6808_15892)">
<path d="M191.761 209.5H190.239C189.8 209.5 189.412 209.214 189.283 208.794L187.898 204.294C187.7 203.651 188.181 203 188.854 203H190.25V201.5C190.25 201.086 190.586 200.75 191 200.75C191.414 200.75 191.75 201.086 191.75 201.5V203H193.146C193.819 203 194.3 203.651 194.102 204.294L192.717 208.794C192.588 209.214 192.2 209.5 191.761 209.5Z" fill="#165E38"/>
<path d="M186.25 199.75C185.836 199.75 185.5 199.414 185.5 199C185.5 198.586 185.836 198.25 186.25 198.25H195.75C196.164 198.25 196.5 198.586 196.5 199C196.5 199.414 196.164 199.75 195.75 199.75H186.25Z" fill="#165E38"/>
</g>
<rect x="69" y="226" width="140" height="36" rx="8" fill="#9B70FF" fill-opacity="0.16"/>
<path d="M89.0327 239.273V248H87.6264L83.5142 242.055H83.4418V248H81.8608V239.273H83.2756L87.3835 245.222H87.4602V239.273H89.0327ZM93.5423 248.128C92.9031 248.128 92.3491 247.987 91.8803 247.706C91.4116 247.425 91.0479 247.031 90.7894 246.526C90.5337 246.02 90.4059 245.429 90.4059 244.753C90.4059 244.077 90.5337 243.484 90.7894 242.976C91.0479 242.467 91.4116 242.072 91.8803 241.791C92.3491 241.51 92.9031 241.369 93.5423 241.369C94.1815 241.369 94.7354 241.51 95.2042 241.791C95.6729 242.072 96.0352 242.467 96.2908 242.976C96.5494 243.484 96.6786 244.077 96.6786 244.753C96.6786 245.429 96.5494 246.02 96.2908 246.526C96.0352 247.031 95.6729 247.425 95.2042 247.706C94.7354 247.987 94.1815 248.128 93.5423 248.128ZM93.5508 246.892C93.8974 246.892 94.1871 246.797 94.4201 246.607C94.6531 246.413 94.8263 246.155 94.94 245.831C95.0565 245.507 95.1147 245.146 95.1147 244.749C95.1147 244.348 95.0565 243.986 94.94 243.662C94.8263 243.335 94.6531 243.075 94.4201 242.882C94.1871 242.689 93.8974 242.592 93.5508 242.592C93.1957 242.592 92.9002 242.689 92.6644 242.882C92.4315 243.075 92.2567 243.335 92.1403 243.662C92.0266 243.986 91.9698 244.348 91.9698 244.749C91.9698 245.146 92.0266 245.507 92.1403 245.831C92.2567 246.155 92.4315 246.413 92.6644 246.607C92.9002 246.797 93.1957 246.892 93.5508 246.892ZM101.955 243.73V245H98.0263V243.73H101.955ZM106.433 248.128C105.779 248.128 105.218 247.984 104.75 247.697C104.284 247.411 103.924 247.014 103.672 246.509C103.422 246 103.297 245.415 103.297 244.753C103.297 244.088 103.424 243.501 103.68 242.993C103.936 242.482 104.297 242.084 104.762 241.8C105.231 241.513 105.785 241.369 106.424 241.369C106.956 241.369 107.426 241.467 107.835 241.663C108.247 241.857 108.575 242.131 108.819 242.486C109.064 242.838 109.203 243.25 109.237 243.722H107.762C107.703 243.406 107.561 243.143 107.336 242.933C107.115 242.72 106.818 242.614 106.446 242.614C106.13 242.614 105.853 242.699 105.615 242.869C105.376 243.037 105.19 243.278 105.056 243.594C104.926 243.909 104.86 244.287 104.86 244.727C104.86 245.173 104.926 245.557 105.056 245.878C105.187 246.196 105.37 246.442 105.606 246.615C105.845 246.786 106.125 246.871 106.446 246.871C106.673 246.871 106.876 246.828 107.055 246.743C107.237 246.655 107.389 246.528 107.511 246.364C107.633 246.199 107.717 245.999 107.762 245.763H109.237C109.2 246.226 109.064 246.636 108.828 246.994C108.592 247.349 108.271 247.628 107.865 247.83C107.458 248.028 106.981 248.128 106.433 248.128ZM113.359 248.128C112.719 248.128 112.165 247.987 111.697 247.706C111.228 247.425 110.864 247.031 110.606 246.526C110.35 246.02 110.222 245.429 110.222 244.753C110.222 244.077 110.35 243.484 110.606 242.976C110.864 242.467 111.228 242.072 111.697 241.791C112.165 241.51 112.719 241.369 113.359 241.369C113.998 241.369 114.552 241.51 115.021 241.791C115.489 242.072 115.852 242.467 116.107 242.976C116.366 243.484 116.495 244.077 116.495 244.753C116.495 245.429 116.366 246.02 116.107 246.526C115.852 247.031 115.489 247.425 115.021 247.706C114.552 247.987 113.998 248.128 113.359 248.128ZM113.367 246.892C113.714 246.892 114.004 246.797 114.237 246.607C114.469 246.413 114.643 246.155 114.756 245.831C114.873 245.507 114.931 245.146 114.931 244.749C114.931 244.348 114.873 243.986 114.756 243.662C114.643 243.335 114.469 243.075 114.237 242.882C114.004 242.689 113.714 242.592 113.367 242.592C113.012 242.592 112.717 242.689 112.481 242.882C112.248 243.075 112.073 243.335 111.957 243.662C111.843 243.986 111.786 244.348 111.786 244.749C111.786 245.146 111.843 245.507 111.957 245.831C112.073 246.155 112.248 246.413 112.481 246.607C112.717 246.797 113.012 246.892 113.367 246.892ZM120.233 248.115C119.719 248.115 119.259 247.983 118.853 247.719C118.446 247.455 118.125 247.071 117.89 246.568C117.654 246.065 117.536 245.455 117.536 244.736C117.536 244.009 117.655 243.395 117.894 242.895C118.135 242.392 118.461 242.013 118.87 241.757C119.279 241.499 119.735 241.369 120.238 241.369C120.621 241.369 120.936 241.435 121.184 241.565C121.431 241.693 121.627 241.848 121.772 242.03C121.917 242.209 122.029 242.378 122.108 242.537H122.172V239.273H123.719V248H122.202V246.969H122.108C122.029 247.128 121.914 247.297 121.763 247.476C121.613 247.652 121.414 247.803 121.167 247.928C120.919 248.053 120.608 248.115 120.233 248.115ZM120.664 246.849C120.99 246.849 121.269 246.761 121.499 246.585C121.729 246.406 121.904 246.158 122.023 245.839C122.142 245.521 122.202 245.151 122.202 244.727C122.202 244.304 122.142 243.936 122.023 243.624C121.907 243.311 121.733 243.068 121.503 242.895C121.276 242.722 120.996 242.635 120.664 242.635C120.32 242.635 120.033 242.724 119.803 242.903C119.573 243.082 119.4 243.33 119.283 243.645C119.167 243.96 119.108 244.321 119.108 244.727C119.108 245.136 119.167 245.501 119.283 245.822C119.402 246.141 119.577 246.392 119.807 246.577C120.04 246.759 120.326 246.849 120.664 246.849ZM128.261 248.128C127.604 248.128 127.038 247.991 126.56 247.719C126.086 247.443 125.721 247.054 125.465 246.551C125.21 246.045 125.082 245.45 125.082 244.766C125.082 244.092 125.21 243.501 125.465 242.993C125.724 242.482 126.085 242.084 126.548 241.8C127.011 241.513 127.555 241.369 128.18 241.369C128.583 241.369 128.964 241.435 129.322 241.565C129.683 241.693 130.001 241.892 130.276 242.162C130.555 242.432 130.773 242.776 130.933 243.193C131.092 243.608 131.171 244.102 131.171 244.676V245.149H125.806V244.109H129.692C129.69 243.814 129.626 243.551 129.501 243.321C129.376 243.088 129.201 242.905 128.977 242.771C128.755 242.638 128.496 242.571 128.201 242.571C127.886 242.571 127.609 242.648 127.37 242.801C127.131 242.952 126.945 243.151 126.812 243.398C126.681 243.642 126.614 243.911 126.612 244.203V245.111C126.612 245.491 126.681 245.818 126.82 246.091C126.96 246.361 127.154 246.568 127.404 246.713C127.654 246.855 127.947 246.926 128.282 246.926C128.506 246.926 128.71 246.895 128.891 246.832C129.073 246.767 129.231 246.672 129.364 246.547C129.498 246.422 129.599 246.267 129.667 246.082L131.107 246.244C131.016 246.625 130.843 246.957 130.587 247.241C130.335 247.523 130.011 247.741 129.616 247.898C129.221 248.051 128.769 248.128 128.261 248.128ZM136.642 248H134.954L138.027 239.273H139.978L143.055 248H141.368L139.037 241.062H138.968L136.642 248ZM136.697 244.578H141.299V245.848H136.697V244.578ZM144.136 250.455V241.455H145.653V242.537H145.743C145.822 242.378 145.935 242.209 146.08 242.03C146.224 241.848 146.42 241.693 146.668 241.565C146.915 241.435 147.23 241.369 147.614 241.369C148.119 241.369 148.575 241.499 148.982 241.757C149.391 242.013 149.714 242.392 149.953 242.895C150.195 243.395 150.315 244.009 150.315 244.736C150.315 245.455 150.197 246.065 149.962 246.568C149.726 247.071 149.405 247.455 148.999 247.719C148.592 247.983 148.132 248.115 147.618 248.115C147.243 248.115 146.932 248.053 146.685 247.928C146.438 247.803 146.239 247.652 146.088 247.476C145.94 247.297 145.825 247.128 145.743 246.969H145.679V250.455H144.136ZM145.649 244.727C145.649 245.151 145.709 245.521 145.828 245.839C145.95 246.158 146.125 246.406 146.352 246.585C146.582 246.761 146.861 246.849 147.188 246.849C147.528 246.849 147.814 246.759 148.044 246.577C148.274 246.392 148.447 246.141 148.564 245.822C148.683 245.501 148.743 245.136 148.743 244.727C148.743 244.321 148.685 243.96 148.568 243.645C148.452 243.33 148.278 243.082 148.048 242.903C147.818 242.724 147.531 242.635 147.188 242.635C146.858 242.635 146.578 242.722 146.348 242.895C146.118 243.068 145.943 243.311 145.824 243.624C145.707 243.936 145.649 244.304 145.649 244.727ZM151.636 250.455V241.455H153.153V242.537H153.243C153.322 242.378 153.435 242.209 153.58 242.03C153.724 241.848 153.92 241.693 154.168 241.565C154.415 241.435 154.73 241.369 155.114 241.369C155.619 241.369 156.075 241.499 156.482 241.757C156.891 242.013 157.214 242.392 157.453 242.895C157.695 243.395 157.815 244.009 157.815 244.736C157.815 245.455 157.697 246.065 157.462 246.568C157.226 247.071 156.905 247.455 156.499 247.719C156.092 247.983 155.632 248.115 155.118 248.115C154.743 248.115 154.432 248.053 154.185 247.928C153.938 247.803 153.739 247.652 153.588 247.476C153.44 247.297 153.325 247.128 153.243 246.969H153.179V250.455H151.636ZM153.149 244.727C153.149 245.151 153.209 245.521 153.328 245.839C153.45 246.158 153.625 246.406 153.852 246.585C154.082 246.761 154.361 246.849 154.688 246.849C155.028 246.849 155.314 246.759 155.544 246.577C155.774 246.392 155.947 246.141 156.064 245.822C156.183 245.501 156.243 245.136 156.243 244.727C156.243 244.321 156.185 243.96 156.068 243.645C155.952 243.33 155.778 243.082 155.548 242.903C155.318 242.724 155.031 242.635 154.688 242.635C154.358 242.635 154.078 242.722 153.848 242.895C153.618 243.068 153.443 243.311 153.324 243.624C153.207 243.936 153.149 244.304 153.149 244.727Z" fill="#352666"/>
<rect x="69" y="266" width="140" height="36" rx="8" fill="#3AF3FF" fill-opacity="0.16"/>
</g>
<defs>
<clipPath id="clip0_6808_15892">
<path d="M0 16C0 7.16344 7.16344 0 16 0H262C270.837 0 278 7.16344 278 16V262C278 270.837 270.837 278 262 278H16C7.16344 278 0 270.837 0 262V16Z" fill="white"/>
</clipPath>
<clipPath id="clip1_6808_15892">
<rect width="12" height="12" fill="white" transform="translate(185 158)"/>
</clipPath>
<clipPath id="clip2_6808_15892">
<rect width="12" height="12" fill="white" transform="translate(185 198)"/>
</clipPath>
</defs>
</svg>
