<svg width="32" height="32" viewBox="0 0 32 32" fill="none" xmlns="http://www.w3.org/2000/svg">
<path fill-rule="evenodd" clip-rule="evenodd" d="M9.49987 10C9.49987 9.17157 10.1714 8.5 10.9999 8.5H20.9999C21.8283 8.5 22.4999 9.17157 22.4999 10C22.4999 10.8284 21.8283 11.5 20.9999 11.5H10.9999C10.1714 11.5 9.49987 10.8284 9.49987 10Z" fill="black"/>
<path fill-rule="evenodd" clip-rule="evenodd" d="M9.49987 16C9.49987 15.1716 10.1714 14.5 10.9999 14.5H20.9999C21.8283 14.5 22.4999 15.1716 22.4999 16C22.4999 16.8284 21.8283 17.5 20.9999 17.5H10.9999C10.1714 17.5 9.49987 16.8284 9.49987 16Z" fill="black"/>
<path fill-rule="evenodd" clip-rule="evenodd" d="M9.49987 22C9.49987 21.1716 10.1714 20.5 10.9999 20.5H15.9999C16.8283 20.5 17.4999 21.1716 17.4999 22C17.4999 22.8284 16.8283 23.5 15.9999 23.5H10.9999C10.1714 23.5 9.49987 22.8284 9.49987 22Z" fill="black"/>
<path fill-rule="evenodd" clip-rule="evenodd" d="M15.9454 0.5H16.0549C17.8723 0.499992 19.3127 0.499986 20.4796 0.579604C21.6717 0.660939 22.6875 0.830354 23.6358 1.22318C25.9635 2.18738 27.8129 4.03678 28.7771 6.36452C29.1699 7.31286 29.3393 8.32868 29.4206 9.52074C29.5002 10.6876 29.5002 12.1281 29.5002 13.9455L29.5002 18.0549C29.5001 19.8723 29.5001 21.3126 29.4205 22.4795C29.3392 23.6715 29.1697 24.6873 28.7769 25.6356C27.8127 27.9633 25.9633 29.8127 23.6356 30.7768C22.6873 31.1697 21.6715 31.3391 20.4795 31.4204C19.3126 31.5 17.8722 31.5 16.0548 31.5H15.9453C14.1279 31.5 12.6875 31.5 11.5206 31.4204C10.3285 31.3391 9.31272 31.1696 8.36438 30.7768C6.03665 29.8126 4.18728 27.9632 3.2231 25.6355C2.83028 24.6871 2.66088 23.6713 2.57956 22.4793C2.49995 21.3124 2.49997 19.872 2.5 18.0545L2.50005 13.9452C2.50006 12.1278 2.50007 10.6874 2.57969 9.52054C2.66104 8.3285 2.83046 7.3127 3.22329 6.36438C4.18749 4.03668 6.03685 2.18734 8.36456 1.22316C9.31289 0.830345 10.3287 0.660935 11.5207 0.579602C12.6876 0.499986 14.128 0.499992 15.9454 0.5ZM11.7249 3.57264C10.6857 3.64355 10.0345 3.77863 9.51262 3.99479C7.91998 4.6545 6.65463 5.91984 5.99491 7.51247C5.77874 8.03432 5.64366 8.6855 5.57273 9.72479C5.50089 10.7775 5.50007 12.1157 5.50004 14L5.5 17.9998C5.49998 19.8842 5.50078 21.2223 5.5726 22.2751C5.6435 23.3144 5.77858 23.9656 5.99474 24.4874C6.65444 26.0801 7.9198 27.3455 9.51246 28.0052C10.0343 28.2214 10.6855 28.3564 11.7248 28.4274C12.7776 28.4992 14.1157 28.5 16.0001 28.5C17.8844 28.5 19.2225 28.4992 20.2753 28.4274C21.3145 28.3564 21.9657 28.2214 22.4876 28.0052C24.0802 27.3455 25.3456 26.0802 26.0053 24.4875C26.2215 23.9657 26.3565 23.3145 26.4275 22.2752C26.4993 21.2225 26.5001 19.8843 26.5002 18L26.5002 14.0002C26.5002 12.1158 26.4994 10.7777 26.4276 9.72493C26.3567 8.68562 26.2216 8.03443 26.0055 7.51256C25.3458 5.9199 24.0804 4.65453 22.4877 3.99481C21.9659 3.77864 21.3147 3.64356 20.2754 3.57265C19.2226 3.50081 17.8845 3.5 16.0001 3.5C14.1158 3.5 12.7777 3.50081 11.7249 3.57264Z" fill="black"/>
</svg>
