<svg width="32" height="32" viewBox="0 0 32 32" fill="none" xmlns="http://www.w3.org/2000/svg">
<path d="M12 13.5C11.1716 13.5 10.5 14.1716 10.5 15C10.5 15.8284 11.1716 16.5 12 16.5H20C20.8284 16.5 21.5 15.8284 21.5 15C21.5 14.1716 20.8284 13.5 20 13.5H12Z" fill="black"/>
<path d="M12 18.5C11.1716 18.5 10.5 19.1716 10.5 20C10.5 20.8284 11.1716 21.5 12 21.5H20C20.8284 21.5 21.5 20.8284 21.5 20C21.5 19.1716 20.8284 18.5 20 18.5H12Z" fill="black"/>
<path fill-rule="evenodd" clip-rule="evenodd" d="M22.0842 3.50056C21.3128 1.73436 19.5505 0.5 17.5 0.5H14.5C12.4495 0.5 10.6872 1.73435 9.9158 3.50055C5.81246 3.54569 2.5 6.88607 2.5 11.0001V17.8652C2.49999 19.7701 2.49998 21.2912 2.60035 22.5197C2.7033 23.7798 2.91927 24.8635 3.42645 25.8589C4.24137 27.4583 5.5417 28.7586 7.14108 29.5735C8.13648 30.0807 9.22024 30.2967 10.4803 30.3996C11.7088 30.5 13.2299 30.5 15.1347 30.5H16.8653C18.7701 30.5 20.2912 30.5 21.5197 30.3996C22.7798 30.2967 23.8635 30.0807 24.8589 29.5735C26.4583 28.7586 27.7586 27.4583 28.5736 25.8589C29.0807 24.8635 29.2967 23.7798 29.3996 22.5197C29.5 21.2912 29.5 19.7701 29.5 17.8652V11.0001C29.5 6.88606 26.1875 3.5457 22.0842 3.50056ZM12.5 5.5C12.5 4.39543 13.3954 3.5 14.5 3.5H17.5C18.6046 3.5 19.5 4.39543 19.5 5.5C19.5 6.60457 18.6046 7.5 17.5 7.5H14.5C13.3954 7.5 12.5 6.60457 12.5 5.5ZM22.3964 6.51732C21.9265 8.79093 19.9128 10.5 17.5 10.5H14.5C12.0872 10.5 10.0735 8.79092 9.60357 6.51731C7.30396 6.71804 5.5 8.6484 5.5 11.0001V17.8C5.5 19.7849 5.50117 21.1834 5.59039 22.2754C5.67818 23.3499 5.84369 23.995 6.09946 24.4969C6.62677 25.5318 7.46816 26.3732 8.50305 26.9005C9.00504 27.1563 9.65006 27.3218 10.7246 27.4096C11.8166 27.4988 13.2151 27.5 15.2 27.5H16.8C18.7849 27.5 20.1834 27.4988 21.2754 27.4096C22.3499 27.3218 22.995 27.1563 23.4969 26.9005C24.5318 26.3732 25.3732 25.5318 25.9005 24.4969C26.1563 23.995 26.3218 23.3499 26.4096 22.2754C26.4988 21.1834 26.5 19.7849 26.5 17.8V11.0001C26.5 8.64839 24.696 6.71804 22.3964 6.51732Z" fill="black"/>
</svg>
