<svg width="32" height="32" viewBox="0 0 32 32" fill="none" xmlns="http://www.w3.org/2000/svg">
<path fill-rule="evenodd" clip-rule="evenodd" d="M17.5 2C17.5 1.17157 16.8284 0.5 16 0.5C15.1716 0.5 14.5 1.17157 14.5 2V3.5H11.9467C10.5941 3.49999 9.50297 3.49998 8.61496 3.56057C7.70185 3.62287 6.89442 3.75422 6.12988 4.0709C4.29216 4.83211 2.83211 6.29216 2.0709 8.12987C1.75422 8.89442 1.62287 9.70185 1.56057 10.615C1.49998 11.503 1.49999 12.5941 1.5 13.9467V14.0533C1.49999 15.4059 1.49998 16.497 1.56057 17.385C1.62287 18.2982 1.75422 19.1056 2.0709 19.8701C2.83211 21.7078 4.29216 23.1679 6.12988 23.9291C6.57465 24.1133 7.03394 24.2348 7.5201 24.3165L4.69765 29.2558C4.28663 29.9751 4.53653 30.8914 5.2558 31.3024C5.97508 31.7134 6.89136 31.4635 7.30238 30.7442L10.8713 24.4987C11.2101 24.5 11.5682 24.5 11.9467 24.5H20.0533C20.4318 24.5 20.7899 24.5 21.1287 24.4987L24.6976 30.7442C25.1086 31.4635 26.0249 31.7134 26.7442 31.3024C27.4635 30.8914 27.7134 29.9751 27.3024 29.2558L24.4799 24.3165C24.9661 24.2348 25.4254 24.1133 25.8701 23.9291C27.7078 23.1679 29.1679 21.7078 29.9291 19.8701C30.2458 19.1056 30.3771 18.2982 30.4394 17.385C30.5 16.497 30.5 15.4059 30.5 14.0533V13.9467C30.5 12.5941 30.5 11.503 30.4394 10.615C30.3771 9.70185 30.2458 8.89442 29.9291 8.12987C29.1679 6.29216 27.7078 4.83211 25.8701 4.0709C25.1056 3.75422 24.2982 3.62287 23.385 3.56057C22.497 3.49998 21.4059 3.49999 20.0533 3.5H17.5V2ZM12 6.5C10.5817 6.5 9.59301 6.50081 8.81917 6.55361C8.05881 6.60549 7.616 6.70251 7.27793 6.84254C6.1753 7.29927 5.29927 8.1753 4.84254 9.27793C4.70251 9.616 4.60549 10.0588 4.55361 10.8192C4.50081 11.593 4.5 12.5817 4.5 14C4.5 15.4183 4.50081 16.407 4.55361 17.1808C4.60549 17.9412 4.70251 18.384 4.84254 18.7221C5.29927 19.8247 6.1753 20.7007 7.27793 21.1575C7.616 21.2975 8.05881 21.3945 8.81917 21.4464C9.59301 21.4992 10.5817 21.5 12 21.5H20C21.4183 21.5 22.407 21.4992 23.1808 21.4464C23.9412 21.3945 24.384 21.2975 24.7221 21.1575C25.8247 20.7007 26.7007 19.8247 27.1575 18.7221C27.2975 18.384 27.3945 17.9412 27.4464 17.1808C27.4992 16.407 27.5 15.4183 27.5 14C27.5 12.5817 27.4992 11.593 27.4464 10.8192C27.3945 10.0588 27.2975 9.616 27.1575 9.27793C26.7007 8.1753 25.8247 7.29927 24.7221 6.84254C24.384 6.70251 23.9412 6.60549 23.1808 6.55361C22.407 6.50081 21.4183 6.5 20 6.5H12Z" fill="black"/>
</svg>
