<svg width="32" height="32" viewBox="0 0 32 32" fill="none" xmlns="http://www.w3.org/2000/svg">
<path fill-rule="evenodd" clip-rule="evenodd" d="M6.83247 12.5003L7.00023 12.5002L7.168 12.5003C7.92958 12.5012 8.58663 12.5019 9.16492 12.3469C10.7178 11.9308 11.9308 10.7178 12.3469 9.16492C12.4034 8.95423 12.4391 8.73308 12.4618 8.50023H17.5002C19.1571 8.50023 20.5002 9.84338 20.5002 11.5002C20.5002 13.1571 19.1571 14.5002 17.5002 14.5002H14.5002C11.1865 14.5002 8.50024 17.1865 8.50024 20.5002C8.50024 23.8139 11.1865 26.5002 14.5002 26.5002H19.5387C19.5613 26.7331 19.5971 26.9542 19.6536 27.1649C20.0697 28.7178 21.2826 29.9308 22.8355 30.3469C23.4138 30.5019 24.0709 30.5012 24.8325 30.5004L25.0002 30.5002L25.168 30.5004C25.9296 30.5012 26.5866 30.5019 27.1649 30.3469C28.7178 29.9308 29.9308 28.7178 30.3469 27.1649C30.5019 26.5866 30.5012 25.9296 30.5003 25.168L30.5002 25.0002L30.5003 24.8325C30.5012 24.0709 30.5019 23.4138 30.3469 22.8355C29.9308 21.2826 28.7178 20.0697 27.1649 19.6536C26.5866 19.4986 25.9296 19.4993 25.168 19.5001L25.0002 19.5002L24.8325 19.5001C24.0709 19.4993 23.4138 19.4986 22.8355 19.6536C21.2826 20.0697 20.0697 21.2826 19.6536 22.8355C19.5971 23.0462 19.5613 23.2674 19.5387 23.5002H14.5002C12.8434 23.5002 11.5002 22.1571 11.5002 20.5002C11.5002 18.8434 12.8434 17.5002 14.5002 17.5002H17.5002C20.814 17.5002 23.5002 14.8139 23.5002 11.5002C23.5002 8.18653 20.814 5.50023 17.5002 5.50023H12.4618C12.4391 5.26739 12.4034 5.04624 12.3469 4.83555C11.9308 3.28263 10.7178 2.06967 9.16492 1.65357C8.58663 1.49861 7.92958 1.49931 7.168 1.50011L7.00023 1.50023L6.83246 1.50011C6.07088 1.49931 5.41384 1.49861 4.83555 1.65357C3.28263 2.06967 2.06967 3.28263 1.65357 4.83555C1.49861 5.41384 1.49931 6.07088 1.50011 6.83247L1.50023 7.00023L1.50011 7.168C1.49931 7.92958 1.49861 8.58663 1.65357 9.16492C2.06967 10.7178 3.28263 11.9308 4.83555 12.3469C5.41384 12.5019 6.07088 12.5012 6.83247 12.5003ZM7.00023 9.50023C5.97369 9.50023 5.75467 9.48735 5.612 9.44912C5.09437 9.31042 4.69004 8.9061 4.55134 8.38846C4.51312 8.24579 4.50023 8.02677 4.50023 7.00023C4.50023 5.97369 4.51312 5.75467 4.55134 5.612C4.69004 5.09436 5.09437 4.69004 5.612 4.55134C5.75467 4.51311 5.97369 4.50023 7.00023 4.50023C8.02678 4.50023 8.24579 4.51311 8.38846 4.55134C8.9061 4.69004 9.31042 5.09436 9.44912 5.612C9.48735 5.75467 9.50023 5.97369 9.50023 7.00023C9.50023 8.02677 9.48735 8.24579 9.44912 8.38846C9.31042 8.9061 8.9061 9.31042 8.38846 9.44912C8.24579 9.48735 8.02678 9.50023 7.00023 9.50023ZM25.0002 27.5002C23.9737 27.5002 23.7547 27.4874 23.612 27.4491C23.0944 27.3104 22.69 26.9061 22.5513 26.3885C22.5131 26.2458 22.5002 26.0268 22.5002 25.0002C22.5002 23.9737 22.5131 23.7547 22.5513 23.612C22.69 23.0944 23.0944 22.69 23.612 22.5513C23.7547 22.5131 23.9737 22.5002 25.0002 22.5002C26.0268 22.5002 26.2458 22.5131 26.3885 22.5513C26.9061 22.69 27.3104 23.0944 27.4491 23.612C27.4873 23.7547 27.5002 23.9737 27.5002 25.0002C27.5002 26.0268 27.4873 26.2458 27.4491 26.3885C27.3104 26.9061 26.9061 27.3104 26.3885 27.4491C26.2458 27.4874 26.0268 27.5002 25.0002 27.5002Z" fill="black"/>
</svg>
