<svg width="32" height="32" viewBox="0 0 32 32" fill="none" xmlns="http://www.w3.org/2000/svg">
<path fill-rule="evenodd" clip-rule="evenodd" d="M7.93556 1.5H24.0645C24.944 1.49997 25.7027 1.49994 26.3253 1.55637C26.9837 1.61604 27.6356 1.74815 28.25 2.10289C28.9341 2.49785 29.5022 3.06592 29.8971 3.75C30.2519 4.36443 30.384 5.01634 30.4436 5.67471C30.5001 6.2973 30.5 7.056 30.5 7.93559V8.06442C30.5 8.94401 30.5001 9.70271 30.4436 10.3253C30.384 10.9837 30.2519 11.6356 29.8971 12.25C29.5022 12.9341 28.9341 13.5022 28.25 13.8971C27.6356 14.2519 26.9837 14.384 26.3253 14.4436C25.7027 14.5001 24.944 14.5 24.0645 14.5H7.93555C7.05597 14.5 6.29729 14.5001 5.67471 14.4436C5.01634 14.384 4.36443 14.2519 3.75 13.8971C3.06592 13.5022 2.49785 12.9341 2.10289 12.25C1.74815 11.6356 1.61604 10.9837 1.55637 10.3253C1.49994 9.70274 1.49997 8.94407 1.5 8.06453V7.93556C1.49997 7.05601 1.49994 6.29728 1.55637 5.67471C1.61604 5.01634 1.74815 4.36443 2.10289 3.75C2.49785 3.06592 3.06592 2.49785 3.75 2.10289C4.36443 1.74815 5.01634 1.61604 5.67471 1.55637C6.29728 1.49994 7.05601 1.49997 7.93556 1.5ZM5.9455 4.54412C5.49521 4.58493 5.33173 4.65378 5.25 4.70097C5.02198 4.83262 4.83262 5.02198 4.70097 5.25C4.65378 5.33173 4.58493 5.49521 4.54412 5.9455C4.50144 6.41641 4.5 7.03778 4.5 8C4.5 8.96223 4.50144 9.5836 4.54412 10.0545C4.58493 10.5048 4.65378 10.6683 4.70097 10.75C4.83262 10.978 5.02198 11.1674 5.25 11.299C5.33173 11.3462 5.49521 11.4151 5.9455 11.4559C6.41641 11.4986 7.03778 11.5 8.00001 11.5H24C24.9622 11.5 25.5836 11.4986 26.0545 11.4559C26.5048 11.4151 26.6683 11.3462 26.75 11.299C26.978 11.1674 27.1674 10.978 27.299 10.75C27.3462 10.6683 27.4151 10.5048 27.4559 10.0545C27.4986 9.5836 27.5 8.96223 27.5 8C27.5 7.03778 27.4986 6.41641 27.4559 5.9455C27.4151 5.49521 27.3462 5.33173 27.299 5.25C27.1674 5.02198 26.978 4.83262 26.75 4.70097C26.6683 4.65378 26.5048 4.58493 26.0545 4.54412C25.5836 4.50144 24.9622 4.5 24 4.5H8C7.03778 4.5 6.41641 4.50144 5.9455 4.54412Z" fill="black"/>
<path fill-rule="evenodd" clip-rule="evenodd" d="M8.06445 17.5C8.94403 17.5 9.70272 17.4999 10.3253 17.5564C10.9837 17.616 11.6356 17.7482 12.25 18.1029C12.9341 18.4978 13.5022 19.0659 13.8971 19.75C14.2519 20.3644 14.384 21.0163 14.4436 21.6747C14.5001 22.2973 14.5 23.056 14.5 23.9356V24.0645C14.5 24.944 14.5001 25.7027 14.4436 26.3253C14.384 26.9837 14.2519 27.6356 13.8971 28.25C13.5022 28.9341 12.9341 29.5022 12.25 29.8971C11.6356 30.2519 10.9837 30.384 10.3253 30.4436C9.70272 30.5001 8.94404 30.5 8.06446 30.5H7.93555C7.05597 30.5 6.29729 30.5001 5.67471 30.4436C5.01634 30.384 4.36443 30.2519 3.75 29.8971C3.06592 29.5022 2.49785 28.9341 2.10289 28.25C1.74815 27.6356 1.61604 26.9837 1.55637 26.3253C1.49994 25.7027 1.49997 24.9441 1.5 24.0645V23.9356C1.49997 23.056 1.49994 22.2973 1.55637 21.6747C1.61604 21.0163 1.74815 20.3644 2.10289 19.75C2.49785 19.0659 3.06592 18.4978 3.75 18.1029C4.36443 17.7482 5.01634 17.616 5.67471 17.5564C6.29729 17.4999 7.05598 17.5 7.93556 17.5H8.06445ZM5.9455 20.5441C5.49521 20.5849 5.33173 20.6538 5.25 20.701C5.02198 20.8326 4.83262 21.022 4.70097 21.25C4.65378 21.3317 4.58493 21.4952 4.54412 21.9455C4.50144 22.4164 4.5 23.0378 4.5 24C4.5 24.9622 4.50144 25.5836 4.54412 26.0545C4.58493 26.5048 4.65378 26.6683 4.70097 26.75C4.83262 26.978 5.02198 27.1674 5.25 27.299C5.33173 27.3462 5.49521 27.4151 5.9455 27.4559C6.41641 27.4986 7.03778 27.5 8 27.5C8.96223 27.5 9.5836 27.4986 10.0545 27.4559C10.5048 27.4151 10.6683 27.3462 10.75 27.299C10.978 27.1674 11.1674 26.978 11.299 26.75C11.3462 26.6683 11.4151 26.5048 11.4559 26.0545C11.4986 25.5836 11.5 24.9622 11.5 24C11.5 23.0378 11.4986 22.4164 11.4559 21.9455C11.4151 21.4952 11.3462 21.3317 11.299 21.25C11.1674 21.022 10.978 20.8326 10.75 20.701C10.6683 20.6538 10.5048 20.5849 10.0545 20.5441C9.5836 20.5014 8.96223 20.5 8 20.5C7.03778 20.5 6.41641 20.5014 5.9455 20.5441Z" fill="black"/>
<path fill-rule="evenodd" clip-rule="evenodd" d="M26.3253 17.5564C25.7027 17.4999 24.944 17.5 24.0645 17.5H23.9356C23.056 17.5 22.2973 17.4999 21.6747 17.5564C21.0163 17.616 20.3644 17.7482 19.75 18.1029C19.0659 18.4978 18.4978 19.0659 18.1029 19.75C17.7482 20.3644 17.616 21.0163 17.5564 21.6747C17.4999 22.2973 17.5 23.056 17.5 23.9356V24.0645C17.5 24.944 17.4999 25.7027 17.5564 26.3253C17.616 26.9837 17.7482 27.6356 18.1029 28.25C18.4978 28.9341 19.0659 29.5022 19.75 29.8971C20.3644 30.2519 21.0163 30.384 21.6747 30.4436C22.2973 30.5001 23.056 30.5 23.9356 30.5H24.0645C24.944 30.5 25.7027 30.5001 26.3253 30.4436C26.9837 30.384 27.6356 30.2519 28.25 29.8971C28.9341 29.5022 29.5022 28.9341 29.8971 28.25C30.2519 27.6356 30.384 26.9837 30.4436 26.3253C30.5001 25.7027 30.5 24.944 30.5 24.0645V23.9356C30.5 23.056 30.5001 22.2973 30.4436 21.6747C30.384 21.0163 30.2519 20.3644 29.8971 19.75C29.5022 19.0659 28.9341 18.4978 28.25 18.1029C27.6356 17.7482 26.9837 17.616 26.3253 17.5564ZM21.25 20.701C21.3317 20.6538 21.4952 20.5849 21.9455 20.5441C22.4164 20.5014 23.0378 20.5 24 20.5C24.9622 20.5 25.5836 20.5014 26.0545 20.5441C26.5048 20.5849 26.6683 20.6538 26.75 20.701C26.978 20.8326 27.1674 21.022 27.299 21.25C27.3462 21.3317 27.4151 21.4952 27.4559 21.9455C27.4986 22.4164 27.5 23.0378 27.5 24C27.5 24.9622 27.4986 25.5836 27.4559 26.0545C27.4151 26.5048 27.3462 26.6683 27.299 26.75C27.1674 26.978 26.978 27.1674 26.75 27.299C26.6683 27.3462 26.5048 27.4151 26.0545 27.4559C25.5836 27.4986 24.9622 27.5 24 27.5C23.0378 27.5 22.4164 27.4986 21.9455 27.4559C21.4952 27.4151 21.3317 27.3462 21.25 27.299C21.022 27.1674 20.8326 26.978 20.701 26.75C20.6538 26.6683 20.5849 26.5048 20.5441 26.0545C20.5014 25.5836 20.5 24.9622 20.5 24C20.5 23.0378 20.5014 22.4164 20.5441 21.9455C20.5849 21.4952 20.6538 21.3317 20.701 21.25C20.8326 21.022 21.022 20.8326 21.25 20.701Z" fill="black"/>
</svg>
