<svg width="50" height="50" viewBox="0 0 50 50" fill="none" xmlns="http://www.w3.org/2000/svg">
<g clip-path="url(#clip0_75_7081)">
<path d="M20.1875 28.652C21.3366 28.652 22.2681 29.6021 22.2681 30.7742V39.8779C22.2681 41.05 21.3366 42 20.1875 42C19.0386 42 18.1071 41.05 18.1071 39.8779V30.7742C18.1071 29.6023 19.0386 28.6521 20.1875 28.6521V28.652Z" fill="#A4C639"/>
<path d="M15.4356 17.7065C15.4287 17.787 15.4227 17.8684 15.4227 17.9507V31.7436C15.4227 33.227 16.5738 34.422 18.0028 34.422H31.7543C33.1835 34.422 34.3345 33.2269 34.3345 31.7436V17.9507C34.3345 17.8684 34.3316 17.7868 34.325 17.7065H15.4356Z" fill="#A4C639"/>
<path d="M29.5728 28.652C30.7219 28.652 31.6534 29.6021 31.6534 30.7742V39.8779C31.6534 41.0499 30.7219 42 29.5728 42C28.4239 42 27.4923 41.0499 27.4923 39.8779V30.7742C27.4923 29.6023 28.4239 28.6521 29.5728 28.6521V28.652ZM12.0806 18.9343C13.2295 18.9343 14.1611 19.8844 14.1611 21.0565V30.1602C14.1611 31.3323 13.2295 32.2824 12.0806 32.2824C10.9315 32.2824 10 31.3323 10 30.1604V21.0566C9.99985 19.8846 10.9314 18.9343 12.0806 18.9343ZM37.6786 18.9343C38.8275 18.9343 39.759 19.8844 39.759 21.0565V30.1602C39.759 31.3323 38.8275 32.2824 37.6786 32.2824C36.5295 32.2824 35.5979 31.3323 35.5979 30.1604V21.0566C35.5979 19.8846 36.5295 18.9343 37.6786 18.9343ZM15.4971 16.8007C15.555 12.5641 19.1803 9.09036 23.8338 8.63257H25.9248C30.5787 9.09051 34.2038 12.5644 34.2616 16.8007H15.4971Z" fill="#A4C639"/>
<path d="M33.5395 8.22375L31.3447 12.1013L33.5395 8.22375ZM16.2219 8.22375L18.4167 12.1013L16.2219 8.22375Z" stroke="#A4C639" stroke-width="0.67248" stroke-linecap="round" stroke-linejoin="round"/>
<path d="M22.0849 13.0037C22.0866 13.5959 21.6061 14.0774 21.0115 14.079C20.4171 14.0805 19.9339 13.6019 19.9321 13.0096V13.0037C19.9305 12.4113 20.4111 11.93 21.0055 11.9283C21.5998 11.9267 22.0831 12.4052 22.0849 12.9977V13.0037ZM30.1198 13.0037C30.1215 13.5959 29.641 14.0774 29.0464 14.079C28.4521 14.0805 27.9687 13.6019 27.967 13.0096V13.0037C27.9654 12.4113 28.4459 11.93 29.0404 11.9283C29.6347 11.9267 30.118 12.4052 30.1198 12.9977V13.0037Z" fill="white"/>
</g>
<defs>
<clipPath id="clip0_75_7081">
<rect width="30" height="34" fill="white" transform="translate(10 8)"/>
</clipPath>
</defs>
</svg>
