<svg width="56" height="50" viewBox="0 0 56 50" fill="none" xmlns="http://www.w3.org/2000/svg">
<g clip-path="url(#clip0_75_7135)">
<path d="M15.9614 19.985C15.9614 20.6641 16.0344 21.2147 16.1621 21.6185C16.3082 22.0223 16.4907 22.4628 16.7462 22.94C16.8374 23.0868 16.8739 23.2336 16.8739 23.3621C16.8739 23.5456 16.7644 23.7292 16.5272 23.9127L15.3773 24.6836C15.2131 24.7937 15.0488 24.8487 14.9028 24.8487C14.7203 24.8487 14.5378 24.757 14.3553 24.5918C14.0997 24.3165 13.8807 24.0228 13.6982 23.7292C13.5157 23.4172 13.3332 23.0684 13.1324 22.6463C11.7088 24.3348 9.92017 25.1791 7.76651 25.1791C6.23339 25.1791 5.01056 24.7386 4.11624 23.8576C3.22192 22.9767 2.76562 21.802 2.76562 20.3337C2.76562 18.7737 3.31317 17.5072 4.4265 16.5528C5.53984 15.5985 7.01821 15.1213 8.8981 15.1213C9.51865 15.1213 10.1574 15.1763 10.8327 15.2681C11.508 15.3599 12.2016 15.5067 12.9316 15.6719V14.332C12.9316 12.9372 12.6396 11.9644 12.0738 11.3954C11.4898 10.8265 10.5042 10.5512 9.09886 10.5512C8.46006 10.5512 7.80302 10.6246 7.12772 10.7898C6.45241 10.9549 5.79536 11.1569 5.15656 11.4138C4.86453 11.5423 4.64552 11.6157 4.51776 11.6524C4.39 11.6891 4.29874 11.7075 4.22574 11.7075C3.97022 11.7075 3.84246 11.5239 3.84246 11.1385V10.2392C3.84246 9.9455 3.87897 9.72525 3.97023 9.59678C4.06148 9.4683 4.22574 9.33982 4.48126 9.21135C5.12005 8.88098 5.88662 8.60567 6.78094 8.38543C7.67526 8.14683 8.62432 8.03671 9.62815 8.03671C11.8001 8.03671 13.3879 8.53226 14.41 9.52336C15.4138 10.5145 15.9249 12.0195 15.9249 14.0384V19.985H15.9614ZM8.55132 22.7748C9.15361 22.7748 9.77416 22.6647 10.4312 22.4444C11.0883 22.2242 11.6723 21.8204 12.1651 21.2698C12.4571 20.921 12.6761 20.5356 12.7856 20.0951C12.8951 19.6546 12.9682 19.1224 12.9682 18.4983V17.7275C12.4389 17.599 11.8731 17.4889 11.289 17.4155C10.705 17.3421 10.1392 17.3054 9.57339 17.3054C8.35055 17.3054 7.45623 17.544 6.85394 18.0395C6.25164 18.5351 5.95963 19.2325 5.95963 20.1502C5.95963 21.0128 6.17864 21.6552 6.63493 22.0957C7.07296 22.5545 7.71175 22.7748 8.55132 22.7748ZM23.2072 24.757C22.8787 24.757 22.6596 24.7019 22.5136 24.5734C22.3676 24.4633 22.2399 24.2064 22.1303 23.8576L17.8413 9.67019C17.7318 9.30312 17.677 9.06452 17.677 8.93604C17.677 8.64238 17.823 8.4772 18.115 8.4772H19.9037C20.2505 8.4772 20.4877 8.53226 20.6155 8.66074C20.7615 8.77086 20.871 9.02781 20.9805 9.37653L24.0467 21.5267L26.894 9.37653C26.9852 9.00946 27.0947 8.77086 27.2407 8.66074C27.3867 8.55061 27.6423 8.4772 27.9708 8.4772H29.4309C29.7777 8.4772 30.0149 8.53226 30.161 8.66074C30.307 8.77086 30.4347 9.02781 30.5077 9.37653L33.3915 21.6735L36.5489 9.37653C36.6585 9.00946 36.7862 8.77086 36.914 8.66074C37.06 8.55061 37.2973 8.4772 37.6258 8.4772H39.3232C39.6152 8.4772 39.7794 8.62403 39.7794 8.93604C39.7794 9.02781 39.7612 9.11958 39.7429 9.2297C39.7247 9.33982 39.6882 9.48665 39.6152 9.68855L35.2166 23.876C35.1071 24.2431 34.9793 24.4817 34.8333 24.5918C34.6873 24.7019 34.45 24.7753 34.1398 24.7753H32.5701C32.2234 24.7753 31.9861 24.7203 31.8401 24.5918C31.6941 24.4633 31.5663 24.2247 31.4933 23.8576L28.6643 12.0195L25.8536 23.8393C25.7624 24.2064 25.6529 24.445 25.5069 24.5734C25.3608 24.7019 25.1053 24.757 24.7768 24.757H23.2072ZM46.6602 25.2525C45.7111 25.2525 44.7621 25.1424 43.8495 24.9222C42.9369 24.7019 42.2251 24.4633 41.7506 24.188C41.4586 24.0228 41.2578 23.8393 41.1848 23.6741C41.1118 23.5089 41.0753 23.3254 41.0753 23.1602V22.2242C41.0753 21.8387 41.2213 21.6552 41.4951 21.6552C41.6046 21.6552 41.7141 21.6735 41.8236 21.7103C41.9331 21.747 42.0974 21.8204 42.2799 21.8938C42.9004 22.1691 43.5757 22.3893 44.2875 22.5362C45.0176 22.683 45.7294 22.7564 46.4594 22.7564C47.6093 22.7564 48.5036 22.5545 49.1242 22.1507C49.7447 21.747 50.0732 21.1596 50.0732 20.4071C50.0732 19.8932 49.909 19.4711 49.5804 19.1224C49.2519 18.7737 48.6314 18.4616 47.737 18.168L45.0906 17.3421C43.7582 16.9199 42.7727 16.2959 42.1704 15.47C41.5681 14.6624 41.2578 13.7631 41.2578 12.8087C41.2578 12.0378 41.4221 11.3587 41.7506 10.7714C42.0791 10.1841 42.5171 9.67019 43.0647 9.26641C43.6122 8.84427 44.2328 8.53226 44.9628 8.31201C45.6929 8.09177 46.4594 8 47.2625 8C47.664 8 48.0838 8.01835 48.4854 8.07342C48.9051 8.12848 49.2884 8.20189 49.6717 8.27531C50.0367 8.36707 50.3835 8.45884 50.712 8.56897C51.0405 8.67909 51.2961 8.78921 51.4786 8.89933C51.7341 9.04616 51.9166 9.19299 52.0261 9.35818C52.1356 9.50501 52.1904 9.7069 52.1904 9.96385V10.8265C52.1904 11.2119 52.0444 11.4138 51.7706 11.4138C51.6246 11.4138 51.3873 11.3404 51.077 11.1936C50.0367 10.7164 48.8686 10.4778 47.5728 10.4778C46.5325 10.4778 45.7111 10.6429 45.1454 10.9917C44.5796 11.3404 44.2875 11.8726 44.2875 12.6252C44.2875 13.1391 44.47 13.5795 44.8351 13.9283C45.2001 14.277 45.8754 14.6257 46.8427 14.9377L49.4344 15.7636C50.7485 16.1858 51.6976 16.7731 52.2634 17.5256C52.8292 18.2781 53.103 19.1407 53.103 20.0951C53.103 20.8843 52.9387 21.6001 52.6284 22.2242C52.2999 22.8482 51.8619 23.3988 51.2961 23.8393C50.7303 24.2981 50.055 24.6285 49.2702 24.8671C48.4489 25.1241 47.591 25.2525 46.6602 25.2525Z" fill="#252F3E"/>
<path fill-rule="evenodd" clip-rule="evenodd" d="M50.1131 34.1727C44.1084 38.6326 35.3843 41.0003 27.8829 41.0003C17.3701 41.0003 7.89766 37.0909 0.743112 30.5937C0.177318 30.0798 0.688357 29.3823 1.36366 29.7861C9.10225 34.3011 18.6477 37.0359 28.5217 37.0359C35.1835 37.0359 42.5023 35.641 49.2371 32.7778C50.2409 32.3189 51.0987 33.4385 50.1131 34.1727Z" fill="#FF9900"/>
<path fill-rule="evenodd" clip-rule="evenodd" d="M52.6119 31.3094C51.8453 30.3183 47.538 30.8322 45.5851 31.0708C45.001 31.1442 44.9098 30.6303 45.4391 30.2449C48.8703 27.8222 54.51 28.5196 55.1671 29.3272C55.8241 30.1531 54.9845 35.8244 51.7723 38.5407C51.2795 38.9628 50.805 38.7426 51.024 38.192C51.754 36.375 53.3784 32.2821 52.6119 31.3094Z" fill="#FF9900"/>
</g>
<defs>
<clipPath id="clip0_75_7135">
<rect width="56" height="33" fill="white" transform="translate(0 8)"/>
</clipPath>
</defs>
</svg>
