<svg width="50" height="50" viewBox="0 0 50 50" fill="none" xmlns="http://www.w3.org/2000/svg">
<g style="mix-blend-mode:luminosity" opacity="0.8">
<g clip-path="url(#clip0_20225_11690)">
<path d="M41.3384 33.9999C41.6034 33.5409 41.768 33.0238 41.768 32.5595V16.4403C41.768 15.976 41.6036 15.459 41.3385 15L24.884 24.4999L41.3384 33.9999Z" fill="#00599C"/>
<path d="M26.3463 43.1516L40.3059 35.0921C40.708 34.8599 41.0735 34.459 41.3385 33.9999L24.8841 24.5L8.42969 34.0001C8.69464 34.459 9.06024 34.86 9.46226 35.0921L23.4219 43.1516C24.226 43.616 25.5421 43.616 26.3463 43.1516Z" fill="#004482"/>
<path d="M41.3385 14.9999C41.0734 14.5409 40.7078 14.14 40.3058 13.9078L26.3462 5.84827C25.542 5.38391 24.226 5.38391 23.4218 5.84827L9.46218 13.9078C8.65792 14.372 8 15.5118 8 16.4404V32.5595C8 33.0239 8.16454 33.541 8.4296 33.9999L24.884 24.5L41.3385 14.9999Z" fill="#659AD2"/>
<path d="M24.8839 35.7559C18.6773 35.7559 13.6279 30.7065 13.6279 24.4999C13.6279 18.2933 18.6773 13.2439 24.8839 13.2439C28.8889 13.2439 32.624 15.3991 34.6315 18.8684L29.7602 21.6872C28.7554 19.9507 26.8868 18.8719 24.8839 18.8719C21.7806 18.8719 19.2559 21.3965 19.2559 24.4999C19.2559 27.6031 21.7806 30.1279 24.8839 30.1279C26.8871 30.1279 28.7557 29.0491 29.7605 27.3122L34.6318 30.131C32.6243 33.6006 28.8891 35.7559 24.8839 35.7559Z" fill="white"/>
<path d="M36.1399 23.8747H34.8892V22.624H33.6387V23.8747H32.3879V25.1253H33.6387V26.376H34.8892V25.1253H36.1399V23.8747Z" fill="white"/>
<path d="M40.8301 23.8747H39.5794V22.624H38.3289V23.8747H37.0781V25.1253H38.3289V26.376H39.5794V25.1253H40.8301V23.8747Z" fill="white"/>
</g>
</g>
<defs>
<clipPath id="clip0_20225_11690">
<rect width="33.768" height="38" fill="white" transform="translate(8 5.5)"/>
</clipPath>
</defs>
</svg>
