<svg width="50" height="50" viewBox="0 0 50 50" fill="none" xmlns="http://www.w3.org/2000/svg">
<g style="mix-blend-mode:luminosity" opacity="0.6" clip-path="url(#clip0_20225_11717)">
<path d="M9.80303 26.3917C9.78706 26.9129 9.66483 27.4254 9.44384 27.8977C9.22285 28.37 8.90774 28.7922 8.51783 29.1385C7.66184 29.8414 6.57493 30.2007 5.46863 30.1465C4.85161 30.1726 4.23664 30.0594 3.66945 29.815C3.10227 29.5707 2.59747 29.2016 2.19263 28.7353C1.35473 27.64 0.93479 26.2819 1.00823 24.9049V24.2497C1.00191 23.3057 1.19065 22.3705 1.56263 21.5029C1.89265 20.7503 2.43579 20.1108 3.12503 19.6633C3.83923 19.2336 4.66056 19.0152 5.49383 19.0333C6.58473 18.9794 7.65574 19.3394 8.49263 20.0413C9.2905 20.7601 9.77079 21.766 9.82823 22.8385H7.61063C7.60321 22.2816 7.39774 21.7456 7.03103 21.3265C6.6017 20.9706 6.04929 20.7986 5.49383 20.8477C5.17075 20.8284 4.84815 20.8925 4.55693 21.0337C4.2657 21.1749 4.01562 21.3885 3.83063 21.6541C3.41371 22.4257 3.22163 23.2987 3.27623 24.1741V24.9805C3.21391 25.8534 3.39723 26.7263 3.80543 27.5005C3.98685 27.7697 4.23628 27.9861 4.5284 28.1277C4.82051 28.2694 5.1449 28.3312 5.46863 28.3069C6.02068 28.363 6.57269 28.2001 7.00583 27.8533C7.34527 27.4446 7.51645 26.922 7.48463 26.3917H9.80303ZM20.0846 24.8293C20.1179 25.7919 19.9281 26.7493 19.5302 27.6265C19.1661 28.3833 18.5957 29.022 17.8846 29.469C17.1735 29.9159 16.3507 30.1531 15.5108 30.1531C14.6709 30.1531 13.8481 29.9159 13.1371 29.469C12.426 29.022 11.8556 28.3833 11.4914 27.6265C11.0997 26.7643 10.9019 25.8266 10.9118 24.8797V24.3505C10.8871 23.3778 11.0854 22.4123 11.4914 21.5281C11.8389 20.7568 12.4094 20.1073 13.1294 19.6633C13.8453 19.2134 14.6783 18.9854 15.5234 19.0081C16.4117 18.9528 17.2945 19.1823 18.0434 19.6633C18.7637 20.0957 19.3351 20.7374 19.6814 21.5029C20.0078 22.4148 20.145 23.3837 20.0846 24.3505V24.8293ZM17.8418 24.3505C17.8881 23.4697 17.678 22.5943 17.237 21.8305C17.049 21.5449 16.7896 21.3134 16.4847 21.1587C16.1798 21.004 15.8397 20.9315 15.4982 20.9485C15.1636 20.9356 14.8311 21.0074 14.5316 21.1572C14.2321 21.3069 13.9751 21.5299 13.7846 21.8053C13.3348 22.5665 13.116 23.442 13.1546 24.3253V24.8545C13.1174 25.7376 13.3362 26.6127 13.7846 27.3745C13.9803 27.6501 14.2391 27.8749 14.5394 28.03C14.8397 28.1851 15.1728 28.2661 15.5108 28.2661C15.8488 28.2661 16.1819 28.1851 16.4823 28.03C16.7826 27.8749 17.0414 27.6501 17.237 27.3745C17.6822 26.6123 17.8926 25.7357 17.8418 24.8545V24.3505ZM21.6974 29.9953V19.2097H25.4774C26.5249 19.1268 27.5704 19.3926 28.451 19.9657C28.7936 20.2148 29.0679 20.5463 29.2485 20.9295C29.4291 21.3127 29.5102 21.7352 29.4842 22.1581C29.4853 22.6607 29.3362 23.1521 29.0558 23.5693C28.7899 23.9741 28.4013 24.2832 27.947 24.4513C28.4689 24.5637 28.9335 24.8586 29.2574 25.2829C29.5719 25.7323 29.7311 26.272 29.711 26.8201C29.746 27.2608 29.675 27.7034 29.504 28.1111C29.3331 28.5188 29.0671 28.8797 28.7282 29.1637C27.9113 29.7577 26.9143 30.0514 25.9058 29.9953H21.6974ZM23.9402 25.2829V28.2061H25.8302C26.2743 28.2358 26.7137 28.1012 27.065 27.8281C27.2127 27.7017 27.3285 27.5423 27.4029 27.3628C27.4774 27.1832 27.5084 26.9886 27.4934 26.7949C27.5182 26.6192 27.5077 26.4405 27.4626 26.2689C27.4175 26.0974 27.3388 25.9366 27.2308 25.7958C27.1229 25.6551 26.9881 25.5372 26.8341 25.4492C26.6802 25.3611 26.5103 25.3046 26.3342 25.2829H23.8142H23.9402ZM23.9402 23.7205H25.5782C26.687 23.7205 27.2666 23.2417 27.2666 22.3849C27.2816 22.1874 27.2507 21.9891 27.1764 21.8055C27.1021 21.6219 26.9864 21.4579 26.8382 21.3265C26.4292 21.0797 25.9539 20.9653 25.4774 20.9989H23.9402V23.7205ZM40.2446 24.8293C40.2658 25.7909 40.0766 26.7456 39.6902 27.6265C39.3397 28.388 38.7805 29.0346 38.0774 29.4913C37.3449 29.9113 36.5152 30.1322 35.6708 30.1322C34.8264 30.1322 33.9968 29.9113 33.2642 29.4913C32.563 29.0435 32.0036 28.4055 31.6514 27.6517C31.2481 26.7933 31.0497 25.853 31.0718 24.9049V24.3757C31.0482 23.4138 31.2375 22.4586 31.6262 21.5785C31.9723 20.8063 32.5432 20.1565 33.2642 19.7137C33.9877 19.2807 34.8151 19.052 35.6582 19.052C36.5014 19.052 37.3287 19.2807 38.0522 19.7137C38.7725 20.1503 39.3368 20.8028 39.665 21.5785C40.0713 22.4448 40.2697 23.394 40.2446 24.3505V24.8293ZM38.0018 24.3505C38.0481 23.4697 37.838 22.5943 37.397 21.8305C37.232 21.6016 37.0234 21.4075 36.7832 21.2595C36.5429 21.1114 36.2758 21.0123 35.9971 20.9678C35.7185 20.9233 35.4338 20.9343 35.1594 21.0002C34.885 21.0661 34.6263 21.1855 34.3982 21.3517C34.2151 21.4759 34.0534 21.6291 33.9194 21.8053C33.4771 22.5686 33.2669 23.4443 33.3146 24.3253V24.8545C33.2683 25.7353 33.4784 26.6106 33.9194 27.3745C34.2446 27.8376 34.7399 28.1532 35.2971 28.2524C35.8542 28.3515 36.428 28.2262 36.893 27.9037C37.0841 27.7604 37.2538 27.5907 37.397 27.3997C37.8422 26.6375 38.0526 25.7609 38.0018 24.8797V24.3505ZM44.075 28.2061H48.8126V29.9953H41.8826V19.2097H44.1002L44.075 28.2061Z" fill="#2E3032"/>
</g>
<defs>
<clipPath id="clip0_20225_11717">
<rect width="50" height="50" fill="white"/>
</clipPath>
</defs>
</svg>
