<svg xmlns="http://www.w3.org/2000/svg" width="50" height="51" viewBox="0 0 50 51" fill="none"><g style="mix-blend-mode:luminosity" opacity="0.8"><g clip-path="url(#clip0_38937_10021)"><mask id="mask0_38937_10021" style="mask-type:luminance" maskUnits="userSpaceOnUse" x="-92" y="-61" width="501" height="649"><path d="M-91.3164 -60.3868H408.995V587.075H-91.3164V-60.3868Z" fill="white"></path></mask><g mask="url(#mask0_38937_10021)"><path d="M25.0028 43.4199V36.4495C32.4017 36.4495 38.1205 29.1261 35.2969 21.3489C34.2502 18.4688 31.9531 16.1705 29.0717 15.125C21.2946 12.3026 13.9748 18.0214 13.9736 25.4178L13.9723 25.4203H7.00195C7.00195 13.6334 18.3893 4.4564 30.7392 8.31292C36.1363 9.99677 40.4251 14.2856 42.1102 19.6827C45.9667 32.0338 36.7885 43.4199 25.0028 43.4199Z" fill="#0069FF"></path><path fill-rule="evenodd" clip-rule="evenodd" d="M25.0167 36.4668H18.0664V29.5178L18.0677 29.5165H25.0154L25.0167 29.5178V36.4668Z" fill="#0069FF"></path><path fill-rule="evenodd" clip-rule="evenodd" d="M18.0671 41.8066H12.7278L12.7266 41.8054V36.4661H18.0684V41.8054L18.0671 41.8066Z" fill="#0069FF"></path><path fill-rule="evenodd" clip-rule="evenodd" d="M12.7285 36.4668H8.25251L8.25 36.4655V31.992L8.25251 31.9883H12.726L12.7285 31.9895V36.4668Z" fill="#0069FF"></path></g></g></g><defs><clipPath id="clip0_38937_10021"><rect width="36.0012" height="36" fill="white" transform="translate(7 7.41992)"></rect></clipPath></defs></svg>