<svg xmlns="http://www.w3.org/2000/svg" width="40" height="41" viewBox="0 0 40 41" fill="none"><g clip-path="url(#clip0_38937_9669)"><mask id="mask0_38937_9669" style="mask-type:luminance" maskUnits="userSpaceOnUse" x="0" y="0" width="40" height="41"><path d="M40 0.419922H0V40.4199H40V0.419922Z" fill="white"></path></mask><g mask="url(#mask0_38937_9669)"><mask id="mask1_38937_9669" style="mask-type:alpha" maskUnits="userSpaceOnUse" x="5" y="0" width="30" height="41"><path d="M34.1667 13.3572C34.1667 11.5963 33.0598 10.0255 31.4014 9.43325L7.22721 0.799677C6.14183 0.412035 5 1.2167 5 2.36925V15.4964C5 16.2007 5.44279 16.829 6.10613 17.066L16.9395 20.935C18.0248 21.3226 19.1667 20.518 19.1667 19.3654V11.8279C19.1667 11.2457 19.7486 10.8429 20.2935 11.048L23.1343 12.117C24.7581 12.7282 25.8333 14.2816 25.8333 16.0167V19.2991L13.5947 23.7709C12.9373 24.0111 12.5 24.6364 12.5 25.3363V38.4541C12.5 39.6118 13.6513 40.4169 14.7387 40.0195L31.43 33.9207C33.0735 33.3202 34.1667 31.7569 34.1667 30.0072L34.1667 13.3572Z" fill="white"></path></mask><g mask="url(#mask1_38937_9669)"><path d="M5 0.00341797L34.1667 10.42V24.722C34.1667 25.8745 33.025 26.6791 31.9396 26.2916L25.8333 24.1115V16.0135C25.8333 14.2776 24.7571 12.7235 23.1322 12.113L20.2931 11.0463C19.7482 10.8416 19.1667 11.2443 19.1667 11.8264V21.7296L5 16.6701V0.00341797Z" fill="url(#paint0_linear_38937_9669)"></path><g filter="url(#filter0_f_38937_9669)"><path d="M34.1667 13.5034C34.1667 15.2532 33.0735 16.8196 31.43 17.4201L12.5 24.3368V41.0035L34.1667 33.0868V13.5034Z" fill="black" fill-opacity="0.24"></path></g><g filter="url(#filter1_f_38937_9669)"><path d="M34.1667 14.1709C34.1667 15.9206 33.0735 17.487 31.43 18.0875L12.5 25.0043V41.6709L34.1667 33.7542V14.1709Z" fill="black" fill-opacity="0.32"></path></g><path d="M34.1667 13.3369C34.1667 15.0867 33.0735 16.653 31.43 17.2535L12.5 24.1703V40.837L34.1667 32.9202V13.3369Z" fill="url(#paint1_linear_38937_9669)"></path><path opacity="0.5" d="M34.1667 13.3369C34.1667 15.0867 33.0735 16.653 31.43 17.2535L12.5 24.1703V40.837L34.1667 32.9202V13.3369Z" fill="url(#paint2_linear_38937_9669)"></path><path opacity="0.5" d="M25.8326 19.3037L19.1621 21.744L19.1622 31.5182C19.1622 32.1004 19.7441 32.5032 20.289 32.298L23.1337 31.2273C24.7575 30.6161 25.8326 29.0627 25.8326 27.3278V19.3037Z" fill="#B0ADFF"></path></g></g></g><defs><filter id="filter0_f_38937_9669" x="12.1667" y="13.1701" width="22.3327" height="28.1667" filterUnits="userSpaceOnUse" color-interpolation-filters="sRGB"><feGaussianBlur stdDeviation="0.166667"></feGaussianBlur></filter><filter id="filter1_f_38937_9669" x="9.16667" y="10.8376" width="28.3327" height="34.1667" filterUnits="userSpaceOnUse" color-interpolation-filters="sRGB"><feGaussianBlur stdDeviation="1.66667"></feGaussianBlur></filter><linearGradient id="paint0_linear_38937_9669" x1="15.8521" y1="0.00341787" x2="23.6077" y2="20.3048" gradientUnits="userSpaceOnUse"><stop stop-color="#0B53CE"></stop><stop offset="1" stop-color="#7252AA"></stop></linearGradient><linearGradient id="paint1_linear_38937_9669" x1="26.724" y1="39.3754" x2="26.724" y2="15.1766" gradientUnits="userSpaceOnUse"><stop stop-color="#2266E3"></stop><stop offset="1" stop-color="#AE7FE2"></stop></linearGradient><linearGradient id="paint2_linear_38937_9669" x1="34.1667" y1="24.0811" x2="25.8652" y2="24.0811" gradientUnits="userSpaceOnUse"><stop stop-color="#94B9FF"></stop><stop offset="0.287843" stop-color="#94B9FF" stop-opacity="0.523646"></stop><stop offset="1" stop-color="#538FFF" stop-opacity="0"></stop></linearGradient><clipPath id="clip0_38937_9669"><rect width="40" height="40" fill="white" transform="translate(0 0.419922)"></rect></clipPath></defs></svg>