<svg width="50" height="50" viewBox="0 0 50 50" fill="none" xmlns="http://www.w3.org/2000/svg">
<path d="M29.7045 18.7093H30.7956L33.9055 15.6857L34.058 14.4015C28.2697 9.43383 19.4359 9.97048 14.3263 15.598C12.9066 17.1599 11.8778 19.0205 11.3151 21.0334C11.6609 20.8956 12.0453 20.8726 12.4061 20.9707L18.6262 19.9726C18.6262 19.9726 18.9419 19.4631 19.1073 19.4944C21.8736 16.5397 26.5301 16.1952 29.7259 18.7093H29.7045Z" fill="#EA4335"/>
<path d="M38.3365 21.0332C37.6213 18.4732 36.1544 16.172 34.1139 14.4138L29.7496 18.6569C31.5924 20.1207 32.6427 22.3278 32.5976 24.6415V25.3953C34.7432 25.3953 36.483 27.0867 36.483 29.1727C36.483 31.2588 34.7432 32.9502 32.5976 32.9502H24.8269L24.0515 33.7145V38.2457L24.8269 38.9995H32.5976C38.1776 39.0413 42.7373 34.677 42.7803 29.2521C42.8061 25.957 41.1373 22.875 38.3365 21.0332Z" fill="#4285F4"/>
<path d="M17.0453 38.9515H24.816V32.9043H17.0453C16.4912 32.9043 15.9456 32.7874 15.4409 32.564L14.3498 32.8939L11.2183 35.9175L10.9456 36.9782C12.7003 38.2687 14.8438 38.962 17.0453 38.9515Z" fill="#34A853"/>
<path d="M17.0454 19.3358C11.4633 19.3671 6.96796 23.7918 7.00017 29.2189C7.0195 32.2488 8.47356 35.1012 10.9457 36.9471L15.4517 32.5662C13.4973 31.708 12.6274 29.4695 13.5101 27.5693C14.3929 25.6691 16.6953 24.8234 18.6498 25.6816C19.5111 26.0596 20.2005 26.732 20.5914 27.5693L25.0975 23.1884C23.1816 20.7494 20.2005 19.3232 17.0454 19.3358Z" fill="#FBBC05"/>
</svg>
