<svg width="50" height="50" viewBox="0 0 50 50" fill="none" xmlns="http://www.w3.org/2000/svg">
<path d="M9.32745 32.5966H11.943V21.4622H9.32745V32.5966ZM10.63 20.002C11.4493 20.002 12.0901 19.3718 12.0901 18.584C12.0901 17.7856 11.4493 17.1554 10.63 17.1554C9.82117 17.1554 9.18042 17.7857 9.18042 18.584C9.18042 19.3718 9.82117 20.002 10.63 20.002ZM20.6514 17.1868C16.2291 17.1868 13.4559 20.2016 13.4559 25.0231C13.4559 29.8446 16.2289 32.8488 20.6514 32.8488C25.0631 32.8488 27.8363 29.8446 27.8363 25.0231C27.8363 20.2016 25.0633 17.1868 20.6514 17.1868ZM20.6514 19.4978C23.3509 19.4978 25.0735 21.6407 25.0735 25.0231C25.0735 28.3948 23.3509 30.5378 20.6514 30.5378C17.9413 30.5378 16.2291 28.3949 16.2291 25.0231C16.2291 21.6408 17.9414 19.4978 20.6514 19.4978ZM28.9396 28.332C29.0551 31.1262 31.3451 32.8488 34.8325 32.8488C38.4985 32.8488 40.8095 31.042 40.8095 28.1639C40.8095 25.9055 39.507 24.6344 36.4292 23.9308L34.6855 23.5316C32.8263 23.0904 32.0595 22.5022 32.0595 21.4938C32.0595 20.2332 33.215 19.3929 34.9271 19.3929C36.6603 19.3929 37.8472 20.2438 37.9733 21.6618H40.5574C40.4943 18.9938 38.2884 17.1869 34.9482 17.1869C31.6498 17.1869 29.3073 19.0042 29.3073 21.6933C29.3073 23.8572 30.6309 25.2017 33.4248 25.8425L35.3891 26.3048C37.3009 26.7564 38.0782 27.3867 38.0782 28.4791C38.0782 29.7396 36.8072 30.643 34.9796 30.643C33.1308 30.643 31.7339 29.7291 31.5658 28.332H28.9398L28.9396 28.332Z" fill="black"/>
</svg>
