<svg width="50" height="50" viewBox="0 0 50 50" fill="none" xmlns="http://www.w3.org/2000/svg">
<path d="M19.6748 35.4038C19.6748 35.4038 18.1144 36.3531 20.7609 36.6251C23.94 37.0313 25.6443 36.9642 29.1713 36.286C29.1713 36.286 30.1206 36.8953 31.4099 37.3722C23.4737 40.7632 13.4358 37.1691 19.6756 35.4056L19.6748 35.4038ZM18.6575 30.9955C18.6575 30.9955 16.962 32.2848 19.6068 32.5559C23.0658 32.895 25.7883 32.9621 30.4597 32.0137C30.4597 32.0137 31.069 32.6919 32.0872 33.031C22.5236 35.8798 11.8066 33.3021 18.6575 30.9964V30.9955ZM37.3786 38.7277C37.3786 38.7277 38.5319 39.677 36.0893 40.4232C31.545 41.7796 17.03 42.1867 12.9599 40.4232C11.5355 39.8139 14.2492 38.9219 15.1305 38.7957C16.0135 38.5926 16.4869 38.5926 16.4869 38.5926C14.9274 37.5064 6.109 40.8312 12.0097 41.7716C28.2203 44.4164 41.582 40.6183 37.3768 38.7197L37.3786 38.7277ZM20.4201 26.3832C20.4201 26.3832 13.027 28.1467 17.7744 28.7569C19.809 29.028 23.8111 28.96 27.5412 28.6889C30.5931 28.4178 33.6459 27.8747 33.6459 27.8747C33.6459 27.8747 32.5597 28.3498 31.8144 28.824C24.2853 30.7906 9.83821 29.9102 13.9763 27.8747C17.5033 26.1792 20.4201 26.3735 20.4201 26.3735V26.3832ZM33.6467 33.7763C41.2429 29.8422 37.7159 26.0441 35.2742 26.5192C34.6649 26.6552 34.3912 26.7903 34.3912 26.7903C34.3912 26.7903 34.5943 26.3841 35.0694 26.2481C39.8848 24.5526 43.6837 31.3346 33.509 33.9803C33.509 33.9803 33.577 33.9123 33.645 33.7772L33.6467 33.7763ZM21.1672 44.4924C28.4922 44.9675 39.6852 44.2213 39.9554 40.7623C39.9554 40.7623 39.4132 42.1187 33.9187 43.136C27.6789 44.2893 19.9467 44.1533 15.4007 43.4071C15.4007 43.4071 16.35 44.2213 21.1672 44.4933V44.4924Z" fill="#5382A1"/>
<path d="M29.0342 4C29.0342 4 33.2394 8.27407 25.0321 14.717C18.4532 19.9395 23.5309 22.9242 25.0321 26.3152C21.166 22.8562 18.3852 19.8044 20.2838 16.9547C23.0655 12.7495 30.7288 10.7149 29.0333 4H29.0342ZM26.8636 23.4665C28.8302 25.705 26.3205 27.7405 26.3205 27.7405C26.3205 27.7405 31.3399 25.162 29.0333 21.9741C26.9316 18.9222 25.3032 17.4298 34.1198 12.3424C34.1198 12.3424 20.2149 15.8014 26.8627 23.4656L26.8636 23.4665Z" fill="#E76F00"/>
</svg>
