<svg width="50" height="50" viewBox="0 0 50 50" fill="none" xmlns="http://www.w3.org/2000/svg">
<path d="M17.3635 18.3586C19.1655 24.262 19.8476 34.7946 25.1175 34.7946C25.5185 34.7946 25.924 34.7521 26.331 34.6694C21.5401 33.473 20.9729 23.0553 18.0498 17.6602C17.8206 17.8833 17.5932 18.1161 17.3628 18.3581L17.3635 18.3586Z" fill="url(#paint0_linear_75_6830)"/>
<path d="M18.0551 17.6594C20.9786 23.0552 21.546 33.4729 26.3362 34.6686C26.7211 34.5907 27.0993 34.4813 27.4672 34.3416C23.168 32.0844 21.9795 21.9682 18.6596 17.0983C18.4583 17.2776 18.257 17.4655 18.0556 17.66L18.0551 17.6594Z" fill="url(#paint1_linear_75_6830)"/>
<path d="M22.2644 14.4533C21.8641 14.4533 21.4579 14.4952 21.0504 14.5779C19.9839 14.7937 18.9008 15.2855 17.8088 16.0296C18.1073 16.3457 18.391 16.7062 18.658 17.0995C19.7684 16.1122 20.8717 15.3828 21.9708 14.9445C22.3835 14.7803 22.7938 14.6575 23.2067 14.5767C22.8992 14.4937 22.5824 14.4522 22.2644 14.4533Z" fill="#14559A"/>
<path d="M30.8184 32.2608C31.2775 31.8678 31.7187 31.4534 32.1408 31.0189C30.3097 25.1429 29.6542 14.4595 24.3476 14.4595C23.9687 14.4595 23.5855 14.4978 23.2035 14.5732C28.0369 15.8613 28.6564 27.1283 30.819 32.2602L30.8184 32.2608Z" fill="url(#paint2_linear_75_6830)"/>
<path d="M23.2071 14.5746C22.8995 14.4916 22.5828 14.4501 22.2649 14.4512L24.3511 14.4597C23.9721 14.4597 23.589 14.4974 23.2071 14.574" fill="#3092C4"/>
<path d="M30.7312 33.5103C30.5195 33.291 30.3197 33.06 30.1331 32.8179C29.24 33.495 28.3506 34.0087 27.467 34.3425C28.0363 34.6429 28.6675 34.7982 29.3075 34.7953C30.2995 34.7953 31.083 34.6696 31.751 34.3266C31.3757 34.1045 31.0325 33.8298 30.7312 33.5103Z" fill="#1969BC"/>
<path d="M21.969 14.9439C26.2978 17.3695 26.6745 28.3562 30.1293 32.8171C30.3602 32.642 30.59 32.4571 30.8192 32.2614C28.6566 27.1295 28.0383 15.8613 23.2055 14.5743C22.7933 14.657 22.3812 14.7792 21.969 14.9439Z" fill="url(#paint3_linear_75_6830)"/>
<path d="M18.6552 17.0991C21.975 21.9691 23.1635 32.0853 27.4627 34.3424C28.3469 34.0081 29.2364 33.4944 30.1288 32.8178C26.674 28.3564 26.2973 17.3709 21.9685 14.9441C20.8694 15.3818 19.7655 16.1113 18.6552 17.0991Z" fill="url(#paint4_linear_75_6830)"/>
<path d="M15.2425 18.2171C14.7226 19.4779 14.1907 21.1345 13.5482 23.2968C14.8261 21.3679 16.1 19.7059 17.3661 18.3594C17.2066 17.8237 17.0183 17.2975 16.8023 16.7831C16.2575 17.2319 15.7367 17.7109 15.2425 18.2177V18.2171Z" fill="url(#paint5_linear_75_6830)"/>
<path d="M17.2639 16.4187C17.1117 16.536 16.9577 16.6558 16.8038 16.7822C17.0052 17.254 17.1917 17.7841 17.3664 18.3585C17.5967 18.1172 17.8247 17.8844 18.0533 17.6607C17.8213 17.2268 17.5577 16.8116 17.2645 16.4187H17.2639Z" fill="#2B74B1"/>
<path d="M17.8089 16.0303C17.6276 16.1537 17.447 16.2838 17.264 16.4193C17.5575 16.8129 17.8216 17.2287 18.054 17.6631C18.2554 17.4674 18.4573 17.2789 18.658 17.1002C18.4038 16.7206 18.12 16.3628 17.8095 16.0303H17.8089Z" fill="#125A9E"/>
<path d="M47.3375 14.0024C44.8888 24.1192 39.7752 32.2458 35.4878 34.2944H35.479C35.4013 34.3321 35.3238 34.3662 35.248 34.3996C35.2373 34.4069 35.2272 34.4075 35.2196 34.4118L35.1532 34.4385C35.1431 34.4452 35.1331 34.4476 35.1236 34.4519C35.0881 34.4652 35.0526 34.4773 35.017 34.4919C35.0016 34.4993 34.9874 34.5035 34.9726 34.509C34.9551 34.516 34.9374 34.5221 34.9193 34.5273C34.9033 34.5345 34.8867 34.5394 34.8678 34.5467C34.8524 34.5534 34.8364 34.5565 34.8222 34.5631C34.7908 34.5729 34.7618 34.5813 34.7304 34.5934C34.7174 34.5934 34.7056 34.6001 34.6919 34.6038C34.6724 34.6111 34.6504 34.6159 34.6297 34.622C34.6155 34.6287 34.6036 34.6312 34.5882 34.6342C34.566 34.6409 34.5434 34.647 34.5207 34.6524L34.4385 34.6725C34.6326 34.7491 34.8341 34.788 35.052 34.788C39.1179 34.788 43.2171 26.9813 49.9999 14H47.3368L47.3375 14.0024Z" fill="url(#paint6_linear_75_6830)"/>
<path d="M12.6651 14.8622C12.6681 14.8622 12.671 14.8555 12.6728 14.8555C12.6757 14.8555 12.6805 14.8555 12.6823 14.8482H12.6876C12.7101 14.8403 12.7308 14.8306 12.7527 14.8215C12.7587 14.8215 12.7622 14.8215 12.7663 14.8148C12.7723 14.8148 12.7776 14.8081 12.7829 14.8069C12.8073 14.799 12.8315 14.7887 12.854 14.7802H12.8576C12.9115 14.7631 12.9612 14.7419 13.0139 14.7218C13.021 14.7218 13.0281 14.7151 13.037 14.7151C13.0589 14.7072 13.0814 14.6987 13.1039 14.6932C13.114 14.6871 13.1247 14.6871 13.1341 14.6829C13.1577 14.6756 13.1802 14.6671 13.2016 14.6616C13.2117 14.6616 13.2206 14.6549 13.2277 14.6543C13.3023 14.6324 13.3763 14.6118 13.4509 14.5923C13.4616 14.5923 13.4705 14.5856 13.4818 14.5844C13.503 14.5782 13.5248 14.5737 13.5468 14.571C13.5563 14.5637 13.5676 14.5637 13.5788 14.5607C13.6007 14.5534 13.6215 14.5528 13.6446 14.5473H13.66C13.705 14.5376 13.7512 14.5291 13.7962 14.5206H13.8234C13.8453 14.5133 13.8648 14.5127 13.8862 14.5084C13.898 14.5084 13.9098 14.5023 13.9217 14.5023C13.9418 14.5023 13.962 14.495 13.9821 14.492C13.9922 14.492 14.0028 14.492 14.0147 14.4853C14.0621 14.4786 14.1112 14.4756 14.161 14.4713C14.0173 14.4558 13.8731 14.4477 13.7287 14.447C9.14992 14.447 2.84132 23.5498 0 35.3372H0.547181C1.39742 33.7094 2.22223 32.0679 3.02133 30.4132C5.01108 22.0641 9.06517 16.3704 12.6663 14.8616" fill="url(#paint7_linear_75_6830)"/>
<path d="M15.2426 18.217C15.737 17.7101 16.2579 17.2311 16.803 16.7823C16.6846 16.5051 16.5626 16.2486 16.4311 16.0133C16.0124 16.5574 15.6293 17.276 15.2426 18.217Z" fill="#0D82CA"/>
<path d="M15.6169 14.9319C15.9159 15.2006 16.1836 15.5702 16.4294 16.0134C16.5064 15.9118 16.5845 15.8176 16.6656 15.7301C16.3394 15.3983 15.9664 15.1186 15.5594 14.9003C15.5752 14.9093 15.5914 14.9174 15.6079 14.9246C15.6079 14.9246 15.6139 14.9319 15.6169 14.9319Z" fill="#0D82CA"/>
<path d="M3.02209 30.4142C7.19702 21.7947 9.17488 16.3393 12.6665 14.8627C9.06655 16.3721 5.01244 22.0664 3.02269 30.4142H3.02209Z" fill="url(#paint8_linear_75_6830)"/>
<path d="M16.6684 15.7295C16.5873 15.8182 16.5097 15.9112 16.4315 16.0128C16.5629 16.248 16.6849 16.504 16.8046 16.7824C16.9585 16.6553 17.1125 16.5356 17.2647 16.4189C17.0758 16.169 16.8762 15.9368 16.6684 15.7295Z" fill="#127BCA"/>
<path d="M4.91622 35.2988C4.89016 35.3061 4.8641 35.3061 4.84041 35.3086H4.82561C4.80429 35.3086 4.7812 35.3158 4.76166 35.3158H4.7504C4.69829 35.3219 4.64677 35.3219 4.59644 35.3268H4.58044C8.80629 35.1997 10.738 32.9335 11.6961 29.6458C12.4245 27.1535 13.0226 25.0537 13.5473 23.292C11.7779 25.9608 10.0001 29.1426 8.21172 32.7067C7.35009 34.4247 6.0396 35.142 4.91503 35.2958" fill="url(#paint9_linear_75_6830)"/>
<path d="M4.91455 35.2974C6.03853 35.1442 7.34902 34.4274 8.21128 32.7089C9.9985 29.1453 11.7774 25.9629 13.5457 23.2937C14.1888 21.1307 14.7194 19.4748 15.2405 18.2146C11.7164 21.8085 8.17809 27.7843 4.91455 35.295" fill="url(#paint10_linear_75_6830)"/>
<path d="M3.01836 30.4128C2.21949 32.0676 1.39487 33.7091 0.5448 35.3369H2.13778C2.34859 33.6116 2.64765 31.966 3.01836 30.4134" fill="#05A1E6"/>
<path d="M14.0163 14.4901C14.0033 14.4901 13.9938 14.4968 13.9826 14.4968C13.9631 14.5041 13.943 14.5041 13.9234 14.5059C13.911 14.5059 13.8997 14.5059 13.8878 14.5132C13.8659 14.5193 13.8458 14.5205 13.8245 14.5247C13.8151 14.5247 13.8056 14.5247 13.7972 14.5314C13.7517 14.5399 13.7067 14.5491 13.661 14.557H13.6462C13.6247 14.5631 13.6027 14.5678 13.5805 14.5709C13.5687 14.5776 13.558 14.5776 13.5474 14.5807C13.5254 14.5868 13.5042 14.5904 13.4828 14.594C13.4716 14.6013 13.4627 14.6013 13.4526 14.6019C13.3774 14.6208 13.3033 14.6415 13.2287 14.664C13.2211 14.664 13.2128 14.67 13.2033 14.6719C13.1807 14.6787 13.1582 14.6858 13.1358 14.6931C13.1257 14.7004 13.1145 14.7004 13.105 14.7029C13.0825 14.7095 13.0602 14.7166 13.0381 14.7241C13.0297 14.7241 13.0221 14.7308 13.0144 14.7308C12.9629 14.7515 12.912 14.7722 12.8592 14.7898C12.8367 14.7971 12.8118 14.8068 12.7882 14.8159C12.7787 14.8226 12.7698 14.8244 12.7586 14.8287C12.7361 14.8366 12.7136 14.8463 12.6928 14.8554C12.6846 14.8615 12.6768 14.8627 12.6709 14.8664C9.17941 16.343 7.2015 21.7984 3.02598 30.4179C2.6401 32.0401 2.34627 33.6841 2.146 35.3413H2.36925C2.99874 35.3413 3.1764 35.3347 3.90123 35.3347H4.60297C4.65271 35.328 4.70424 35.328 4.75694 35.3237H4.76641C4.78833 35.3237 4.80965 35.3164 4.83096 35.3164H4.84577C4.86946 35.3164 4.8961 35.3103 4.92157 35.3066C8.18568 27.796 11.7234 21.8197 15.2482 18.2251C15.6354 17.2846 16.0179 16.5655 16.436 16.0226C16.1915 15.5795 15.9237 15.2092 15.6247 14.9405C15.6247 14.9405 15.6165 14.9405 15.6158 14.9333C15.5987 14.926 15.5827 14.9168 15.5656 14.9077L15.5169 14.881C15.5004 14.8737 15.4842 14.8656 15.4684 14.8567C15.4477 14.8494 15.4305 14.8396 15.4122 14.8305C15.3967 14.8244 15.3832 14.8171 15.3677 14.8099C15.3366 14.7969 15.3058 14.7832 15.2754 14.7685L15.2362 14.7527C15.2129 14.7437 15.1898 14.7339 15.167 14.7235C15.1552 14.7162 15.1433 14.715 15.1297 14.7102L15.0343 14.6749H15.0261C14.9893 14.6615 14.9532 14.6524 14.9153 14.6415C14.9064 14.6342 14.8993 14.6342 14.8904 14.633C14.8572 14.6232 14.8282 14.6135 14.7974 14.605C14.7892 14.605 14.7821 14.5977 14.7755 14.5977C14.6987 14.5765 14.6211 14.5582 14.5428 14.543C14.5351 14.543 14.5268 14.5369 14.5191 14.5369C14.4858 14.5297 14.4522 14.5238 14.4184 14.5193C14.4102 14.5126 14.4054 14.5126 14.3983 14.5126C14.359 14.5062 14.3195 14.5007 14.2799 14.4962H14.2586C14.2266 14.4895 14.1964 14.4883 14.1667 14.4846C14.1159 14.4919 14.0679 14.4943 14.0205 14.4992" fill="url(#paint11_linear_75_6830)"/>
<path d="M37.7735 19.6038C36.9699 22.3607 36.319 24.6348 35.7535 26.506C37.957 23.2562 40.1286 19.1685 42.196 14.4512C39.7846 15.2621 38.4977 17.1199 37.7735 19.6038Z" fill="url(#paint12_linear_75_6830)"/>
<path d="M35.8251 34.122C35.7126 34.1828 35.6001 34.2418 35.4886 34.294C39.7761 32.2454 44.8902 24.1195 47.3389 14.0021H46.8426C41.2175 24.7699 39.4078 31.9773 35.8251 34.122Z" fill="url(#paint13_linear_75_6830)"/>
<path d="M33.027 33.2176C33.9596 31.9976 34.7195 29.924 35.757 26.5063C34.5608 28.2669 33.3556 29.7812 32.1505 31.0152C32.1505 31.0225 32.1505 31.0225 32.144 31.0268C32.407 31.8711 32.6954 32.6158 33.0246 33.2176" fill="#079AE1"/>
<path d="M33.0256 33.2168C32.7081 33.632 32.3718 33.9481 31.9981 34.1828C31.9168 34.2335 31.8336 34.2812 31.7488 34.3257C32.215 34.597 32.7357 34.7551 33.2708 34.7877H33.2838C33.3169 34.7877 33.3513 34.7877 33.3868 34.7944H33.7356C33.7486 34.7944 33.7617 34.7944 33.7747 34.7877C33.8001 34.7877 33.8263 34.7877 33.8517 34.781H33.8902C33.9163 34.781 33.9453 34.7736 33.9737 34.7713H33.9796C33.9884 34.7713 33.9974 34.7639 34.0057 34.7639C34.0353 34.7579 34.066 34.7542 34.095 34.7499H34.1217C34.1543 34.7427 34.188 34.7384 34.2224 34.7318H34.2372C34.3047 34.7177 34.371 34.7043 34.4374 34.6861C33.8843 34.4691 33.4212 33.9573 33.022 33.2283" fill="#1969BC"/>
<path d="M25.12 34.7947C25.5215 34.7947 25.9266 34.7528 26.3334 34.6689C26.7101 34.5959 27.0867 34.4841 27.4645 34.3424C28.0341 34.6423 28.6655 34.7974 29.3056 34.7947H25.12Z" fill="#1E5CB3"/>
<path d="M29.3053 34.7946C30.2961 34.7946 31.0807 34.6688 31.7475 34.3259C32.2138 34.5973 32.7343 34.7553 33.2694 34.7879H33.2824C33.3157 34.7879 33.3499 34.7879 33.3855 34.7946H33.5057H29.3018H29.3048H29.3053Z" fill="#1E5CB3"/>
<path d="M33.5071 34.7951H33.7363C33.7499 34.7951 33.7623 34.7951 33.7753 34.7884C33.8002 34.7884 33.8269 34.7884 33.8536 34.7817H33.8914C33.9181 34.7817 33.9471 34.7745 33.9743 34.772H33.9815C33.9897 34.772 33.998 34.7653 34.0063 34.7653C34.0359 34.7586 34.0667 34.7556 34.0952 34.7507C34.1052 34.7507 34.1129 34.7507 34.123 34.744C34.1562 34.7373 34.1899 34.7337 34.2237 34.7264H34.2402C34.3077 34.713 34.3734 34.6991 34.4404 34.6808C34.634 34.758 34.8359 34.7963 35.0539 34.7963L33.5082 34.8036L33.5071 34.7951Z" fill="#1D60B5"/>
<path d="M32.1467 31.0262V31.0195C31.7245 31.4539 31.2833 31.8681 30.8243 32.2609C30.5945 32.456 30.3654 32.6414 30.1338 32.8165C30.3275 33.0645 30.5247 33.2968 30.7319 33.5095C31.0333 33.8286 31.3765 34.103 31.7517 34.3248C31.8351 34.2809 31.9186 34.233 32.0004 34.1819C32.3746 33.9472 32.711 33.6311 33.0284 33.2159C32.6998 32.6147 32.4114 31.8694 32.1478 31.025" fill="#175FAB"/>
<path d="M45.2745 14.0021H42.7778C42.6428 14.0088 42.5114 14.0142 42.3823 14.0227C42.3213 14.1632 42.2585 14.3036 42.1988 14.4446C40.1308 19.162 37.9598 23.2508 35.7557 26.5001C34.7194 29.9177 33.9584 31.9919 33.0258 33.2113C33.4243 33.9408 33.8886 34.4526 34.4399 34.6704C34.4565 34.663 34.4695 34.663 34.4837 34.66H34.4926C34.5021 34.66 34.5128 34.6527 34.5228 34.6527C34.5453 34.646 34.5702 34.6418 34.5921 34.6345C34.6069 34.6272 34.6188 34.6265 34.6335 34.6223C34.6543 34.615 34.6756 34.6101 34.6951 34.6041C34.7082 34.598 34.7206 34.5956 34.7336 34.5925C34.7656 34.5816 34.7946 34.5736 34.8254 34.5633C34.8401 34.5562 34.8553 34.5505 34.871 34.5463C34.8888 34.5402 34.9065 34.5347 34.9225 34.5269C34.9415 34.5196 34.9598 34.5159 34.9758 34.5087C34.99 34.5019 35.0054 34.4977 35.019 34.4916C35.0552 34.4776 35.0907 34.4661 35.1268 34.4509C35.1369 34.4509 35.1464 34.4411 35.1564 34.4387C35.1783 34.429 35.2008 34.4217 35.2228 34.4114C35.2304 34.4047 35.2406 34.4041 35.2506 34.4004C35.3264 34.3663 35.4046 34.3323 35.4821 34.2946H35.4904C35.6018 34.2418 35.7143 34.1834 35.8256 34.122C39.4095 31.9766 41.2193 24.7693 46.845 14.0027H45.2733L45.2752 14.0021H45.2745Z" fill="url(#paint14_linear_75_6830)"/>
<path d="M14.1626 14.4752C14.1715 14.4752 14.1798 14.4752 14.1887 14.4819C14.21 14.4819 14.2318 14.4819 14.2538 14.4898H14.2751L14.3942 14.5062C14.4018 14.5062 14.4078 14.5062 14.4143 14.5129C14.4474 14.5196 14.4812 14.525 14.5149 14.5311C14.5221 14.5311 14.5322 14.5372 14.5398 14.5372C14.6168 14.5542 14.6962 14.5712 14.7713 14.5931C14.7785 14.5931 14.7862 14.5992 14.7921 14.5992C14.8247 14.6077 14.8537 14.6181 14.8857 14.6278C14.8952 14.6278 14.9023 14.6345 14.9111 14.6363C14.949 14.6466 14.9845 14.657 15.0213 14.6703C15.023 14.6703 15.0254 14.6703 15.0295 14.6764C15.0609 14.6874 15.0929 14.7007 15.1261 14.7123C15.1391 14.7184 15.1509 14.722 15.1634 14.725L15.2321 14.7554C15.2451 14.7554 15.2582 14.7652 15.2718 14.77C15.3013 14.7846 15.3328 14.7974 15.3636 14.8114C15.3796 14.8181 15.3932 14.826 15.4086 14.832C15.4263 14.8418 15.4441 14.8503 15.4637 14.8576L15.5128 14.8819C15.53 14.8922 15.5459 14.9001 15.5619 14.9092C15.9688 15.1278 16.3417 15.4075 16.6682 15.739C16.7937 15.5974 16.9252 15.4709 17.0608 15.3573C16.3169 14.7919 15.4738 14.4697 14.5025 14.4697C14.39 14.4697 14.2768 14.4764 14.1626 14.4855" fill="#7DCBEC"/>
<path d="M16.668 15.729C16.8764 15.9363 17.0753 16.1686 17.2642 16.4184C17.4473 16.2822 17.6279 16.1509 17.8096 16.0294C17.5791 15.7803 17.3281 15.5521 17.0594 15.3473C16.9231 15.4604 16.7929 15.588 16.668 15.729Z" fill="#5EC5ED"/>
<path d="M14.1587 14.4749C14.273 14.4645 14.3855 14.4603 14.498 14.4603C15.4704 14.4603 16.3131 14.7825 17.0563 15.3466C17.8415 14.6834 18.7908 14.4512 20.1089 14.4512H13.7264C13.8733 14.4512 14.0172 14.4609 14.1587 14.4749Z" fill="url(#paint15_linear_75_6830)"/>
<path d="M20.1117 14.4512C18.7934 14.4512 17.8448 14.6828 17.0602 15.346C17.3208 15.5436 17.5712 15.7728 17.8093 16.0275C18.9024 15.2834 19.9843 14.7904 21.0514 14.5752C21.4513 14.4937 21.8578 14.4522 22.2655 14.4512H20.1117Z" fill="url(#paint16_linear_75_6830)"/>
<path d="M35.7538 26.5072C36.3205 24.6343 36.9695 22.3607 37.7743 19.6026C38.4998 17.1181 39.783 15.2609 42.1956 14.45C42.259 14.3114 42.3194 14.1685 42.381 14.0281C38.45 14.2804 36.6125 16.4232 35.6875 19.5965C34.0708 25.1358 33.0914 28.726 32.1479 31.0149C33.3524 29.7808 34.5569 28.2665 35.7538 26.5072Z" fill="url(#paint17_linear_75_6830)"/>
<defs>
<linearGradient id="paint0_linear_75_6830" x1="21.8469" y1="14.3167" x2="21.8469" y2="39.8707" gradientUnits="userSpaceOnUse">
<stop stop-color="#0994DC"/>
<stop offset="0.35" stop-color="#66CEF5"/>
<stop offset="0.846" stop-color="#127BCA"/>
<stop offset="1" stop-color="#127BCA"/>
</linearGradient>
<linearGradient id="paint1_linear_75_6830" x1="22.7611" y1="13.6691" x2="22.7611" y2="39.8742" gradientUnits="userSpaceOnUse">
<stop stop-color="#0E76BC"/>
<stop offset="0.36" stop-color="#36AEE8"/>
<stop offset="0.846" stop-color="#00ADEF"/>
<stop offset="1" stop-color="#00ADEF"/>
</linearGradient>
<linearGradient id="paint2_linear_75_6830" x1="27.6722" y1="34.2043" x2="27.6722" y2="13.3537" gradientUnits="userSpaceOnUse">
<stop stop-color="#1C63B7"/>
<stop offset="0.5" stop-color="#33BDF2"/>
<stop offset="1" stop-color="#33BDF2" stop-opacity="0.42"/>
</linearGradient>
<linearGradient id="paint3_linear_75_6830" x1="26.3938" y1="11.0144" x2="26.3938" y2="38.222" gradientUnits="userSpaceOnUse">
<stop stop-color="#166AB8"/>
<stop offset="0.4" stop-color="#36AEE8"/>
<stop offset="0.846" stop-color="#0798DD"/>
<stop offset="1" stop-color="#0798DD"/>
</linearGradient>
<linearGradient id="paint4_linear_75_6830" x1="24.3917" y1="11.1574" x2="24.3917" y2="40.0896" gradientUnits="userSpaceOnUse">
<stop stop-color="#124379"/>
<stop offset="0.39" stop-color="#1487CB"/>
<stop offset="0.78" stop-color="#165197"/>
<stop offset="1" stop-color="#165197"/>
</linearGradient>
<linearGradient id="paint5_linear_75_6830" x1="13.5482" y1="20.0397" x2="17.3661" y2="20.0397" gradientUnits="userSpaceOnUse">
<stop stop-color="#33BDF2" stop-opacity="0.698"/>
<stop offset="1" stop-color="#1DACD8"/>
</linearGradient>
<linearGradient id="paint6_linear_75_6830" x1="42.221" y1="33.6835" x2="42.221" y2="13.3714" gradientUnits="userSpaceOnUse">
<stop stop-color="#136AB4"/>
<stop offset="0.6" stop-color="#59CAF5" stop-opacity="0.549"/>
<stop offset="1" stop-color="#59CAF5" stop-opacity="0.235"/>
</linearGradient>
<linearGradient id="paint7_linear_75_6830" x1="-0.000592187" y1="24.8921" x2="14.161" y2="24.8921" gradientUnits="userSpaceOnUse">
<stop stop-color="#05A1E6" stop-opacity="0.247"/>
<stop offset="1" stop-color="#05A1E6"/>
</linearGradient>
<linearGradient id="paint8_linear_75_6830" x1="7.84427" y1="34.1953" x2="7.84427" y2="13.3976" gradientUnits="userSpaceOnUse">
<stop stop-color="#318ED5"/>
<stop offset="1" stop-color="#38A7E4"/>
</linearGradient>
<linearGradient id="paint9_linear_75_6830" x1="9.06446" y1="34.2678" x2="9.06446" y2="14.0512" gradientUnits="userSpaceOnUse">
<stop stop-color="#05A1E6"/>
<stop offset="1" stop-color="#05A1E6" stop-opacity="0.549"/>
</linearGradient>
<linearGradient id="paint10_linear_75_6830" x1="10.0773" y1="35.2992" x2="10.0773" y2="18.2158" gradientUnits="userSpaceOnUse">
<stop stop-color="#1959A6"/>
<stop offset="0.5" stop-color="#05A1E6"/>
<stop offset="0.918" stop-color="#7EC5EA"/>
<stop offset="1" stop-color="#7EC5EA"/>
</linearGradient>
<linearGradient id="paint11_linear_75_6830" x1="10.6918" y1="34.2082" x2="4.57498" y2="16.7608" gradientUnits="userSpaceOnUse">
<stop stop-color="#165096"/>
<stop offset="1" stop-color="#0D82CA"/>
</linearGradient>
<linearGradient id="paint12_linear_75_6830" x1="38.9745" y1="23.7333" x2="38.9745" y2="14.053" gradientUnits="userSpaceOnUse">
<stop stop-color="#05A1E6"/>
<stop offset="0.874" stop-color="#0495D6"/>
<stop offset="1" stop-color="#0495D6"/>
</linearGradient>
<linearGradient id="paint13_linear_75_6830" x1="43.2226" y1="13.1583" x2="33.7921" y2="32.7019" gradientUnits="userSpaceOnUse">
<stop stop-color="#38A7E4" stop-opacity="0.329"/>
<stop offset="0.962" stop-color="#0E88D3"/>
<stop offset="1" stop-color="#0E88D3"/>
</linearGradient>
<linearGradient id="paint14_linear_75_6830" x1="39.9372" y1="13.9407" x2="39.9372" y2="35.0587" gradientUnits="userSpaceOnUse">
<stop stop-color="#168CD4"/>
<stop offset="0.5" stop-color="#1C87CC"/>
<stop offset="1" stop-color="#154B8D"/>
</linearGradient>
<linearGradient id="paint15_linear_75_6830" x1="14.7905" y1="13.5065" x2="14.8885" y2="15.7209" gradientUnits="userSpaceOnUse">
<stop stop-color="#97D6EE"/>
<stop offset="0.703" stop-color="#55C1EA"/>
<stop offset="1" stop-color="#55C1EA"/>
</linearGradient>
<linearGradient id="paint16_linear_75_6830" x1="17.4184" y1="15.9284" x2="17.8595" y2="13.5927" gradientUnits="userSpaceOnUse">
<stop stop-color="#7ACCEC"/>
<stop offset="1" stop-color="#3FB7ED"/>
</linearGradient>
<linearGradient id="paint17_linear_75_6830" x1="37.2644" y1="15.1089" x2="37.2644" y2="35.7644" gradientUnits="userSpaceOnUse">
<stop stop-color="#1DA7E7"/>
<stop offset="1" stop-color="#37ABE7" stop-opacity="0"/>
</linearGradient>
</defs>
</svg>
