<svg xmlns="http://www.w3.org/2000/svg" width="36" height="37" viewBox="0 0 36 37" fill="none"><path d="M18 36.4199C14.4399 36.4199 10.9598 35.3642 7.99974 33.3864C5.03966 31.4085 2.73255 28.5973 1.37018 25.3082C0.0077988 22.0192 -0.348661 18.4 0.345873 14.9083C1.04041 11.4166 2.75474 8.20935 5.27209 5.69201C7.78943 3.17466 10.9967 1.46033 14.4884 0.765795C17.98 0.0712611 21.5992 0.427721 24.8883 1.7901C28.1774 3.15247 30.9886 5.45958 32.9665 8.41966C34.9443 11.3797 36 14.8599 36 18.4199C36 23.1938 34.1036 27.7722 30.7279 31.1478C27.3523 34.5235 22.7739 36.4199 18 36.4199ZM18 28.9799C20.0886 28.9799 22.1302 28.3606 23.8668 27.2002C25.6034 26.0399 26.9569 24.3907 27.7562 22.4611C28.5554 20.5315 28.7646 18.4082 28.3571 16.3598C27.9496 14.3113 26.9439 12.4297 25.4671 10.9529C23.9902 9.47604 22.1086 8.47029 20.0602 8.06284C18.0117 7.65538 15.8885 7.8645 13.9589 8.66376C12.0293 9.46302 10.38 10.8165 9.21969 12.5531C8.05934 14.2897 7.44001 16.3314 7.44001 18.4199C7.44001 21.2206 8.55258 23.9066 10.533 25.887C12.5133 27.8674 15.1993 28.9799 18 28.9799Z" fill="#714B67"></path></svg>