<svg width="52" height="50" viewBox="0 0 52 50" fill="none" xmlns="http://www.w3.org/2000/svg">
<g clip-path="url(#clip0_75_6838)">
<path d="M10.3959 20.364C12.0422 20.364 13.1031 20.6559 13.636 21.2874C14.1689 21.919 14.3116 22.943 14.0214 24.3974C13.7312 25.852 13.1507 27.0243 12.3276 27.6558C11.5045 28.2874 10.2008 28.6127 8.45945 28.6127H5.85217L7.44604 20.3449L10.3959 20.364ZM0 36.9955H4.25353L5.26695 31.7324H8.94478C10.2856 31.7624 11.6228 31.5815 12.9081 31.1965C13.9696 30.8401 14.943 30.2593 15.7628 29.4931C16.4518 28.8588 17.0392 28.1212 17.5042 27.3066C17.9494 26.4834 18.2701 25.598 18.4558 24.6798C18.8887 22.3449 18.5509 20.498 17.4424 19.2349C16.3337 17.9717 14.4924 17.2875 12.0279 17.2875H3.82056L0 36.9955Z" fill="#6082BB"/>
<path d="M21.6016 12H25.8837L24.8703 17.2631H28.6432C31.0221 17.2631 32.6588 17.6985 33.5771 18.5263C34.4954 19.354 34.738 20.7128 34.4002 22.5645L32.5923 31.7415H28.3102L29.9802 23.0382C30.1752 22.0813 30.1229 21.3828 29.7851 20.9952C29.4473 20.6076 28.7384 20.4593 27.6583 20.4593H24.2755L22.0774 31.7415H17.8429L21.6016 12Z" fill="#6082BB"/>
<path d="M43.7625 20.364C45.4089 20.364 46.4698 20.6559 47.0027 21.2874C47.5356 21.919 47.6783 22.943 47.3881 24.3974C47.0978 25.852 46.5174 27.0243 45.6943 27.6558C44.8712 28.2874 43.5675 28.6127 41.8261 28.6127H39.2046L40.7985 20.3449L43.7625 20.364ZM33.3667 36.9955H37.6202L38.6336 31.7324H42.3066C43.6474 31.7624 44.9847 31.5815 46.27 31.1965C47.3316 30.8401 48.3049 30.2593 49.1247 29.4931C49.8137 28.8588 50.4011 28.1212 50.8661 27.3066C51.3113 26.4834 51.632 25.598 51.8177 24.6798C52.2506 22.3449 51.9128 20.498 50.8043 19.2349C49.6957 17.9717 47.8543 17.2875 45.3898 17.2875H37.1872L33.3809 36.9811L33.3667 36.9955Z" fill="#6082BB"/>
</g>
<defs>
<clipPath id="clip0_75_6838">
<rect width="52" height="25" fill="white" transform="translate(0 12)"/>
</clipPath>
</defs>
</svg>
