<svg xmlns="http://www.w3.org/2000/svg" width="40" height="40" viewBox="0 0 40 40" fill="none"><g clip-path="url(#clip0_38386_60276)"><path d="M25 25V21.25C25 19.9239 24.4732 18.6521 23.5355 17.7145C22.5979 16.7768 21.3261 16.25 20 16.25C18.6739 16.25 17.4021 16.7768 16.4645 17.7145C15.5268 18.6521 15 19.9239 15 21.25V25C14.3373 25.001 13.702 25.2647 13.2333 25.7333C12.7647 26.202 12.501 26.8373 12.5 27.5V35C12.501 35.6627 12.7647 36.298 13.2333 36.7667C13.702 37.2353 14.3373 37.499 15 37.5H25C25.6627 37.499 26.298 37.2353 26.7667 36.7667C27.2353 36.298 27.499 35.6627 27.5 35V27.5C27.499 26.8373 27.2353 26.202 26.7667 25.7333C26.298 25.2647 25.6627 25.001 25 25ZM17.5 21.25C17.5 20.587 17.7634 19.9511 18.2322 19.4822C18.7011 19.0134 19.337 18.75 20 18.75C20.663 18.75 21.2989 19.0134 21.7678 19.4822C22.2366 19.9511 22.5 20.587 22.5 21.25V25H17.5V21.25ZM15 35V27.5H25L25.0012 35H15Z" fill="#7A7A7A"></path><path d="M32.2857 12.6436C31.8118 10.1883 30.6132 7.93139 28.8443 6.16389C27.0755 4.39638 24.8176 3.1994 22.362 2.72736C20.7489 2.41582 19.0902 2.42522 17.4807 2.75504C15.8712 3.08486 14.3426 3.72862 12.982 4.64954C11.6215 5.57046 10.4558 6.75048 9.55149 8.12215C8.64723 9.49382 8.02215 11.0302 7.71198 12.6436C5.40768 13.059 3.34214 14.3214 1.92147 16.1826C0.500802 18.0437 -0.172204 20.3691 0.0347782 22.7013C0.24176 25.0336 1.31375 27.2041 3.03999 28.786C4.76622 30.3679 9.63076 31.2468 11.9722 31.2499H12.6084V28.7499H11.9772C10.2607 28.7467 5.99849 28.1018 4.73324 26.9419C3.46799 25.782 2.68222 24.1909 2.53029 22.4811C2.37836 20.7714 2.87126 19.0666 3.91216 17.7018C4.95305 16.3369 6.4667 15.4106 8.15573 15.1049L9.84323 14.7986L10.167 13.1174C10.607 10.8324 11.8291 8.77201 13.6234 7.29031C15.4176 5.8086 17.6719 4.99811 19.9989 4.99811C22.3258 4.99811 24.5801 5.8086 26.3744 7.29031C28.1686 8.77201 29.3907 10.8324 29.8307 13.1174L30.1545 14.7986L31.8407 15.1049C33.5292 15.4105 35.0425 16.3363 36.0834 17.7005C37.1243 19.0647 37.6176 20.7687 37.4665 22.478C37.3154 24.1873 36.5308 25.7784 35.2667 26.9388C34.0026 28.0992 29.742 28.7452 28.0261 28.7499H27.3911V31.2499H28.0261C30.3674 31.2465 35.2312 30.3674 36.9572 28.7853C38.6832 27.2033 39.7549 25.0329 39.9617 22.7007C40.1686 20.3685 39.4955 18.0434 38.0748 16.1823C36.6541 14.3213 34.5887 13.059 32.2845 12.6436" fill="#7A7A7A"></path></g><defs><clipPath id="clip0_38386_60276"><rect width="40" height="40" fill="white"></rect></clipPath></defs></svg>