<svg width="50" height="50" viewBox="0 0 50 50" fill="none" xmlns="http://www.w3.org/2000/svg">
<g clip-path="url(#clip0_75_7090)">
<path d="M24.6141 8.00028C23.2274 8.00672 21.9032 8.12498 20.738 8.33116C17.3055 8.93757 16.6823 10.2068 16.6823 12.5475V15.6389H24.7937V16.6694H16.6823H13.6382C11.2809 16.6694 9.21667 18.0863 8.57102 20.7818C7.82627 23.8714 7.79323 25.7994 8.57102 29.0254C9.1476 31.4269 10.5246 33.1378 12.8819 33.1379H15.6708V29.432C15.6708 26.7547 17.9872 24.3931 20.738 24.3931H28.8399C31.0952 24.3931 32.8956 22.5362 32.8956 20.2713V12.5475C32.8956 10.3493 31.0411 8.69803 28.8399 8.33116C27.4465 8.09921 26.0007 7.99383 24.6141 8.00028ZM20.2275 10.4866C21.0653 10.4866 21.7496 11.182 21.7496 12.037C21.7496 12.889 21.0653 13.578 20.2275 13.578C19.3867 13.578 18.7055 12.889 18.7055 12.037C18.7055 11.182 19.3867 10.4866 20.2275 10.4866Z" fill="url(#paint0_linear_75_7090)"/>
<path d="M33.907 16.6693V20.2712C33.907 23.0637 31.5395 25.414 28.8398 25.414H20.7379C18.5187 25.414 16.6823 27.3134 16.6823 29.5359V37.2596C16.6823 39.4579 18.5937 40.7508 20.7379 41.3814C23.3055 42.1365 25.7676 42.2729 28.8398 41.3814C30.8818 40.7903 32.8954 39.6004 32.8954 37.2596V34.1683H24.7935V33.1378H32.8954H36.9511C39.3085 33.1378 40.187 31.4935 41.0068 29.0254C41.8536 26.4846 41.8176 24.0411 41.0068 20.7817C40.4242 18.4349 39.3115 16.6693 36.9511 16.6693H33.907ZM29.3502 36.2292C30.1911 36.2292 30.8723 36.9182 30.8723 37.7701C30.8723 38.6252 30.1911 39.3205 29.3502 39.3205C28.5124 39.3205 27.8282 38.6252 27.8282 37.7701C27.8282 36.9182 28.5124 36.2292 29.3502 36.2292Z" fill="url(#paint1_linear_75_7090)"/>
</g>
<defs>
<linearGradient id="paint0_linear_75_7090" x1="8" y1="8" x2="26.7038" y2="23.9383" gradientUnits="userSpaceOnUse">
<stop stop-color="#5A9FD4"/>
<stop offset="1" stop-color="#306998"/>
</linearGradient>
<linearGradient id="paint1_linear_75_7090" x1="29.1553" y1="37.5102" x2="22.4451" y2="28.1072" gradientUnits="userSpaceOnUse">
<stop stop-color="#FFD43B"/>
<stop offset="1" stop-color="#FFE873"/>
</linearGradient>
<clipPath id="clip0_75_7090">
<rect width="34" height="34" fill="white" transform="translate(8 8)"/>
</clipPath>
</defs>
</svg>
