<svg width="40" height="40" viewBox="0 0 40 40" fill="none" xmlns="http://www.w3.org/2000/svg">
<g clip-path="url(#clip0_20169_45607)">
<path d="M16.957 14.8023H21.6173C24.4853 14.8023 24.4853 17.6702 21.6173 17.6702H16.957V14.8023ZM5.84375 28.0664H20.1834V24.123H16.957V21.2551H20.5419C24.4853 21.2551 22.3343 28.0664 25.5607 28.0664H34.523V21.2551H32.3721V21.9721C32.3721 24.84 29.1456 24.4815 28.7871 22.6891C28.4287 20.8966 26.9947 19.4627 26.6362 19.4627C32.0136 16.5947 28.7871 10.8589 24.4853 10.8589H7.6362V14.8023H11.2211V24.123H5.84375V28.0664Z" fill="black" stroke="black" stroke-width="0.358491" stroke-linejoin="round"/>
<path d="M20.001 35.4156C28.5146 35.4156 35.4161 28.5141 35.4161 20.0005C35.4161 11.487 28.5146 4.58545 20.001 4.58545C11.4875 4.58545 4.58594 11.487 4.58594 20.0005C4.58594 28.5141 11.4875 35.4156 20.001 35.4156Z" stroke="black" stroke-width="3.22642"/>
<path d="M36.4922 21.0757L38.2846 20.0003L36.4922 18.9248V21.0757Z" fill="black" stroke="black" stroke-width="1.07547" stroke-linejoin="round"/>
<path d="M35.9632 24.2722L37.931 23.5671L36.3828 22.1626L35.9632 24.2722Z" fill="black" stroke="black" stroke-width="1.07547" stroke-linejoin="round"/>
<path d="M34.8253 27.3046L36.8929 26.9969L35.6484 25.3174L34.8253 27.3046Z" fill="black" stroke="black" stroke-width="1.07547" stroke-linejoin="round"/>
<path d="M33.1136 30.0565L35.2015 30.1581L34.3086 28.2681L33.1136 30.0565Z" fill="black" stroke="black" stroke-width="1.07547" stroke-linejoin="round"/>
<path d="M30.9009 32.4213L32.9289 32.9283L32.4219 30.9004L30.9009 32.4213Z" fill="black" stroke="black" stroke-width="1.07547" stroke-linejoin="round"/>
<path d="M28.2701 34.3093L30.1602 35.2021L30.0586 33.1143L28.2701 34.3093Z" fill="black" stroke="black" stroke-width="1.07547" stroke-linejoin="round"/>
<path d="M25.3175 35.6473L26.997 36.8918L27.3047 34.8242L25.3175 35.6473Z" fill="black" stroke="black" stroke-width="1.07547" stroke-linejoin="round"/>
<path d="M22.1638 36.384L23.5683 37.9322L24.2734 35.9644L22.1638 36.384Z" fill="black" stroke="black" stroke-width="1.07547" stroke-linejoin="round"/>
<path d="M18.9272 36.4912L20.0027 38.2837L21.0781 36.4912H18.9272Z" fill="black" stroke="black" stroke-width="1.07547" stroke-linejoin="round"/>
<path d="M15.7302 35.9642L16.4353 37.932L17.8398 36.3838L15.7302 35.9642Z" fill="black" stroke="black" stroke-width="1.07547" stroke-linejoin="round"/>
<path d="M12.6964 34.8243L13.004 36.8919L14.6836 35.6475L12.6964 34.8243Z" fill="black" stroke="black" stroke-width="1.07547" stroke-linejoin="round"/>
<path d="M9.94593 33.1146L9.84432 35.2024L11.7344 34.3096L9.94593 33.1146Z" fill="black" stroke="black" stroke-width="1.07547" stroke-linejoin="round"/>
<path d="M7.58062 30.9004L7.07363 32.9284L9.10156 32.4214L7.58062 30.9004Z" fill="black" stroke="black" stroke-width="1.07547" stroke-linejoin="round"/>
<path d="M5.69172 28.2677L4.79885 30.1578L6.88672 30.0562L5.69172 28.2677Z" fill="black" stroke="black" stroke-width="1.07547" stroke-linejoin="round"/>
<path d="M4.35265 25.3175L3.10821 26.997L5.17578 27.3047L4.35265 25.3175Z" fill="black" stroke="black" stroke-width="1.07547" stroke-linejoin="round"/>
<path d="M3.61553 22.1628L2.06733 23.5673L4.03516 24.2725L3.61553 22.1628Z" fill="black" stroke="black" stroke-width="1.07547" stroke-linejoin="round"/>
<path d="M3.51172 18.9247L1.71927 20.0002L3.51172 21.0757L3.51172 18.9247Z" fill="black" stroke="black" stroke-width="1.07547" stroke-linejoin="round"/>
<path d="M4.03682 15.7283L2.06899 16.4334L3.61719 17.8379L4.03682 15.7283Z" fill="black" stroke="black" stroke-width="1.07547" stroke-linejoin="round"/>
<path d="M5.1786 12.6959L3.11102 13.0036L4.35547 14.6831L5.1786 12.6959Z" fill="black" stroke="black" stroke-width="1.07547" stroke-linejoin="round"/>
<path d="M6.88641 9.94447L4.79854 9.84285L5.69141 11.7329L6.88641 9.94447Z" fill="black" stroke="black" stroke-width="1.07547" stroke-linejoin="round"/>
<path d="M9.09907 7.57915L7.07114 7.07217L7.57812 9.1001L9.09907 7.57915Z" fill="black" stroke="black" stroke-width="1.07547" stroke-linejoin="round"/>
<path d="M11.7338 5.69172L9.8437 4.79885L9.94531 6.88672L11.7338 5.69172Z" fill="black" stroke="black" stroke-width="1.07547" stroke-linejoin="round"/>
<path d="M14.6825 4.35363L13.003 3.10918L12.6953 5.17676L14.6825 4.35363Z" fill="black" stroke="black" stroke-width="1.07547" stroke-linejoin="round"/>
<path d="M17.8401 3.61699L16.4356 2.0688L15.7305 4.03662L17.8401 3.61699Z" fill="black" stroke="black" stroke-width="1.07547" stroke-linejoin="round"/>
<path d="M21.0767 3.50977L20.0013 1.71731L18.9258 3.50977L21.0767 3.50977Z" fill="black" stroke="black" stroke-width="1.07547" stroke-linejoin="round"/>
<path d="M24.2737 4.03682L23.5686 2.06899L22.1641 3.61719L24.2737 4.03682Z" fill="black" stroke="black" stroke-width="1.07547" stroke-linejoin="round"/>
<path d="M27.3036 5.17665L26.996 3.10907L25.3164 4.35352L27.3036 5.17665Z" fill="black" stroke="black" stroke-width="1.07547" stroke-linejoin="round"/>
<path d="M30.058 6.88641L30.1596 4.79854L28.2695 5.69141L30.058 6.88641Z" fill="black" stroke="black" stroke-width="1.07547" stroke-linejoin="round"/>
<path d="M32.4233 9.10054L32.9303 7.07261L30.9023 7.57959L32.4233 9.10054Z" fill="black" stroke="black" stroke-width="1.07547" stroke-linejoin="round"/>
<path d="M34.3083 11.7328L35.2012 9.84272L33.1133 9.94434L34.3083 11.7328Z" fill="black" stroke="black" stroke-width="1.07547" stroke-linejoin="round"/>
<path d="M35.6473 14.6835L36.8918 13.004L34.8242 12.6963L35.6473 14.6835Z" fill="black" stroke="black" stroke-width="1.07547" stroke-linejoin="round"/>
<path d="M36.3845 17.8381L37.9327 16.4336L35.9648 15.7285L36.3845 17.8381Z" fill="black" stroke="black" stroke-width="1.07547" stroke-linejoin="round"/>
<path d="M17.4922 4.94385L20.0016 7.45328L22.5111 4.94385H17.4922Z" fill="black" stroke="black" stroke-width="2.15094" stroke-linejoin="round"/>
<path d="M33.5469 12.9609L31.9357 16.123L35.0978 17.7342L33.5469 12.9609Z" fill="black" stroke="black" stroke-width="2.15094" stroke-linejoin="round"/>
<path d="M30.8828 30.7065L27.3776 30.1514L26.8225 33.6566L30.8828 30.7065Z" fill="black" stroke="black" stroke-width="2.15094" stroke-linejoin="round"/>
<path d="M13.1797 33.6567L12.6245 30.1516L9.11934 30.7067L13.1797 33.6567Z" fill="black" stroke="black" stroke-width="2.15094" stroke-linejoin="round"/>
<path d="M4.90625 17.7344L8.06832 16.1232L6.45717 12.9611L4.90625 17.7344Z" fill="black" stroke="black" stroke-width="2.15094" stroke-linejoin="round"/>
<mask id="mask0_20169_45607" style="mask-type:alpha" maskUnits="userSpaceOnUse" x="-2" y="-2" width="44" height="44">
<path d="M41.5111 -1.50928H-1.50781V41.5096H41.5111V-1.50928Z" fill="white"/>
<path d="M20.0013 6.7359C20.5952 6.7359 21.0767 6.2544 21.0767 5.66043C21.0767 5.06647 20.5952 4.58496 20.0013 4.58496C19.4073 4.58496 18.9258 5.06647 18.9258 5.66043C18.9258 6.2544 19.4073 6.7359 20.0013 6.7359Z" fill="black"/>
<path d="M32.6148 15.9014C32.7983 16.4663 33.4051 16.7754 33.97 16.5919C34.5349 16.4083 34.844 15.8016 34.6605 15.2367C34.4769 14.6718 33.8702 14.3627 33.3053 14.5462C32.7404 14.7298 32.4312 15.3365 32.6148 15.9014Z" fill="black"/>
<path d="M27.7953 30.7309C27.3148 31.08 27.2083 31.7526 27.5574 32.2331C27.9065 32.7136 28.5791 32.8201 29.0596 32.471C29.5401 32.1219 29.6467 31.4493 29.2975 30.9688C28.9484 30.4883 28.2758 30.3817 27.7953 30.7309Z" fill="black"/>
<path d="M12.2067 30.7312C11.7262 30.3821 11.0536 30.4886 10.7045 30.9691C10.3554 31.4497 10.4619 32.1222 10.9424 32.4714C11.423 32.8205 12.0955 32.714 12.4446 32.2334C12.7938 31.7529 12.6872 31.0803 12.2067 30.7312Z" fill="black"/>
<path d="M7.38582 15.9011C7.56937 15.3362 7.26022 14.7295 6.69532 14.5459C6.13043 14.3624 5.5237 14.6715 5.34015 15.2364C5.15661 15.8013 5.46575 16.4081 6.03065 16.5916C6.59554 16.7752 7.20227 16.466 7.38582 15.9011Z" fill="black"/>
</mask>
<g mask="url(#mask0_20169_45607)">
</g>
</g>
<defs>
<clipPath id="clip0_20169_45607">
<rect width="38" height="38" fill="white" transform="translate(1 1)"/>
</clipPath>
</defs>
</svg>
