<svg width="50" height="50" viewBox="0 0 50 50" fill="none" xmlns="http://www.w3.org/2000/svg">
<g style="mix-blend-mode:luminosity" opacity="0.8">
<g clip-path="url(#clip0_20225_11016)">
<mask id="mask0_20225_11016" style="mask-type:alpha" maskUnits="userSpaceOnUse" x="1" y="8" width="48" height="34">
<path d="M1.01074 8.02979H48.8349V41.4363H1.01074V8.02979Z" fill="white"/>
</mask>
<g mask="url(#mask0_20225_11016)">
<path fill-rule="evenodd" clip-rule="evenodd" d="M20.8683 11.6871C22.4121 10.08 24.5606 9.08486 26.9343 9.08486C30.0991 9.08486 32.842 10.8431 34.3189 13.4629C35.6299 12.8768 37.0499 12.5742 38.4859 12.575C44.1826 12.575 48.8068 17.2343 48.8068 22.9837C48.8068 28.7332 44.1826 33.3925 38.4859 33.3925C37.7897 33.3925 37.111 33.3225 36.4464 33.1903C35.1541 35.4936 32.6837 37.0584 29.8705 37.0584C28.7252 37.0607 27.5945 36.8009 26.565 36.2989C25.2552 39.3758 22.2046 41.5384 18.653 41.5384C14.9431 41.5384 11.7958 39.2 10.5826 35.9121C10.0427 36.026 9.49228 36.0833 8.94043 36.083C4.52724 36.083 0.958008 32.461 0.958008 28.0127C0.958008 25.0237 2.56504 22.4215 4.94922 21.0149C4.44341 19.8497 4.18306 18.5928 4.18438 17.3226C4.18438 12.1885 8.35142 8.03906 13.4855 8.03906C16.4921 8.03906 19.1822 9.47203 20.8701 11.6962" fill="#00A1E0"/>
<path fill-rule="evenodd" clip-rule="evenodd" d="M7.92787 25.401C7.8978 25.4794 7.93859 25.4957 7.94826 25.5096C8.03811 25.5747 8.12936 25.6218 8.22079 25.6747C8.70958 25.9332 9.17024 26.0088 9.652 26.0088C10.6331 26.0088 11.2432 25.4866 11.2432 24.6462V24.6296C11.2432 23.8525 10.554 23.5694 9.91046 23.3672L9.82624 23.34C9.33921 23.1821 8.91899 23.0446 8.91899 22.7246V22.7082C8.91899 22.4339 9.16514 22.2317 9.54492 22.2317C9.9669 22.2317 10.4698 22.3722 10.7915 22.55C10.7915 22.55 10.8868 22.6115 10.9214 22.5196C10.9403 22.4698 11.1043 22.0308 11.1219 21.9815C11.1405 21.93 11.1078 21.8912 11.0742 21.8711C10.705 21.6461 10.1951 21.4931 9.66765 21.4931L9.56971 21.4935C8.67125 21.4935 8.04356 22.0368 8.04356 22.8139V22.8306C8.04356 23.6499 8.73631 23.9172 9.38334 24.1018L9.48743 24.1342C9.95864 24.279 10.3665 24.4049 10.3665 24.7355V24.752C10.3665 25.0562 10.1011 25.283 9.67556 25.283C9.51011 25.283 8.98281 25.2802 8.41138 24.919C8.34228 24.8788 8.3029 24.8498 8.24962 24.8172C8.22149 24.8002 8.15116 24.7694 8.12057 24.8615L7.92716 25.3996M22.292 25.3996C22.2619 25.478 22.3027 25.4943 22.3127 25.5082C22.4022 25.5733 22.4938 25.6204 22.5853 25.6733C23.0741 25.9318 23.5347 26.0074 24.0165 26.0074C24.9976 26.0074 25.6077 25.4852 25.6077 24.6447V24.6282C25.6077 23.8511 24.9202 23.568 24.2749 23.3658L24.1907 23.3386C23.7037 23.1807 23.2835 23.0432 23.2835 22.7232V22.7068C23.2835 22.4325 23.5296 22.2303 23.9094 22.2303C24.3314 22.2303 24.8325 22.3708 25.156 22.5486C25.156 22.5486 25.2513 22.6101 25.2861 22.5182C25.3047 22.4684 25.469 22.0294 25.4848 21.9801C25.5036 21.9286 25.4707 21.8898 25.4373 21.8697C25.0681 21.6447 24.5582 21.4917 24.0307 21.4917L23.9326 21.4921C23.0342 21.4921 22.4065 22.0353 22.4065 22.8125V22.8292C22.4065 23.6485 23.0992 23.9158 23.7462 24.1004L23.8502 24.1328C24.3231 24.2776 24.7293 24.4035 24.7293 24.7341V24.7506C24.7293 25.0548 24.4638 25.2816 24.0383 25.2816C23.8725 25.2816 23.3438 25.2788 22.7741 24.9176C22.705 24.8774 22.6646 24.8496 22.6122 24.8158C22.5944 24.8046 22.5116 24.7722 22.4833 24.8601L22.2899 25.3982M32.1009 23.7524C32.1009 24.2272 32.0123 24.6017 31.8389 24.8672C31.6659 25.1291 31.4046 25.2575 31.0407 25.2575C30.6767 25.2575 30.4165 25.1302 30.2459 24.8689C30.0742 24.6052 29.9875 24.2289 29.9875 23.7542C29.9875 23.2795 30.0747 22.9067 30.2459 22.6448C30.4161 22.3845 30.6749 22.2597 31.0407 22.2597C31.4064 22.2597 31.6666 22.3858 31.8389 22.6448C32.0133 22.9067 32.1009 23.2795 32.1009 23.7542M32.9202 22.8733C32.8395 22.6008 32.7145 22.3617 32.5475 22.1612C32.3803 21.9608 32.1694 21.799 31.918 21.683C31.6684 21.5661 31.373 21.5072 31.0389 21.5072C30.7048 21.5072 30.4112 21.5664 30.1598 21.683C29.9101 21.7997 29.6974 21.9608 29.5303 22.1612C29.3636 22.3617 29.2385 22.6008 29.1576 22.8733C29.0776 23.1441 29.037 23.4395 29.037 23.7542C29.037 24.0689 29.0776 24.3643 29.1576 24.6351C29.2379 24.9076 29.3633 25.1467 29.5303 25.3472C29.6975 25.5476 29.9101 25.7076 30.1598 25.8219C30.4112 25.9358 30.7066 25.9938 31.0389 25.9938C31.3712 25.9938 31.6666 25.9358 31.9163 25.8219C32.1659 25.708 32.3787 25.5476 32.5457 25.3472C32.7126 25.1467 32.8376 24.9076 32.9185 24.6351C32.9983 24.3643 33.0389 24.0689 33.0389 23.7542C33.0389 23.4412 32.9983 23.1441 32.9185 22.8733M39.6525 25.1239C39.6256 25.0442 39.5479 25.0743 39.5479 25.0743C39.4289 25.1198 39.3018 25.162 39.1664 25.1831C39.0299 25.2046 38.878 25.2153 38.718 25.2153C38.3224 25.2153 38.0059 25.0973 37.7809 24.8637C37.5541 24.6298 37.4275 24.2535 37.4292 23.7437C37.4305 23.2795 37.5426 22.9313 37.744 22.6641C37.9426 22.4004 38.2486 22.2632 38.653 22.2632C38.9905 22.2632 39.249 22.3024 39.5198 22.3872C39.5198 22.3872 39.584 22.4151 39.6147 22.3306C39.6866 22.1319 39.7397 21.9895 39.8169 21.7714C39.8387 21.709 39.7853 21.6826 39.7658 21.6751C39.6596 21.6336 39.4088 21.5655 39.2189 21.5369C39.0414 21.5098 38.8356 21.4957 38.6036 21.4957C38.2589 21.4957 37.953 21.5546 37.691 21.6714C37.4291 21.788 37.2075 21.9492 37.0317 22.1496C36.8559 22.3501 36.7222 22.5892 36.6326 22.8617C36.5438 23.1325 36.4989 23.4296 36.4989 23.7444C36.4989 24.423 36.6818 24.9734 37.044 25.376C37.4062 25.7804 37.9513 25.9844 38.6616 25.9844C39.0818 25.9844 39.5126 25.8994 39.822 25.7769C39.822 25.7769 39.8811 25.7484 39.8554 25.6795L39.6532 25.1239M41.0862 23.2953C41.1254 23.0316 41.1977 22.8118 41.3113 22.6412C41.4813 22.381 41.7403 22.2386 42.1042 22.2386C42.4682 22.2386 42.7091 22.3817 42.8814 22.6412C42.9956 22.8127 43.0456 23.0404 43.0642 23.2953L41.0774 23.2949L41.0862 23.2953ZM43.8466 22.7151C43.7768 22.4531 43.604 22.1876 43.4915 22.0663C43.3121 21.8746 43.1381 21.7393 42.964 21.6654C42.7127 21.5586 42.4424 21.5037 42.1693 21.5042C41.8229 21.5042 41.5082 21.5627 41.2532 21.6818C40.9983 21.8017 40.7838 21.9648 40.615 22.1688C40.4464 22.3728 40.3196 22.6136 40.2387 22.8897C40.1578 23.1622 40.1171 23.4611 40.1171 23.7741C40.1171 24.0941 40.1594 24.3912 40.2428 24.6602C40.327 24.931 40.4626 25.1684 40.6454 25.3653C40.8283 25.564 41.0621 25.7187 41.3434 25.8277C41.623 25.9358 41.9623 25.9919 42.3509 25.9907C43.1527 25.988 43.5746 25.8096 43.7469 25.7129C43.7777 25.6956 43.8067 25.6659 43.7705 25.5803L43.5894 25.0722C43.5616 24.9964 43.485 25.0238 43.485 25.0238C43.2863 25.098 43.005 25.2313 42.3456 25.2295C41.9149 25.2288 41.5966 25.1017 41.3962 24.9025C41.1922 24.6986 41.0902 24.4014 41.0744 23.9794L43.8524 23.9815C43.8524 23.9815 43.9256 23.9808 43.9331 23.9095C43.9361 23.8799 44.0283 23.3398 43.8503 22.7156L43.8466 22.7151ZM18.8796 23.2953C18.9188 23.0316 18.9913 22.8118 19.1047 22.6412C19.2749 22.381 19.5337 22.2386 19.8976 22.2386C20.2616 22.2386 20.5025 22.3817 20.6748 22.6412C20.7889 22.8127 20.8388 23.0404 20.8576 23.2953L18.8708 23.2949L18.8796 23.2953ZM21.64 22.7151C21.5704 22.4531 21.3974 22.1876 21.2849 22.0663C21.1055 21.8746 20.9315 21.7393 20.7574 21.6654C20.5061 21.5586 20.2358 21.5037 19.9627 21.5042C19.6163 21.5042 19.3016 21.5627 19.0466 21.6818C18.7917 21.8017 18.5772 21.9648 18.4084 22.1688C18.2401 22.3728 18.113 22.6136 18.0321 22.8897C17.9514 23.1622 17.9108 23.4611 17.9108 23.7741C17.9108 24.0941 17.9528 24.3912 18.0367 24.6602C18.1207 24.931 18.2565 25.1684 18.4376 25.3653C18.6204 25.564 18.8543 25.7187 19.1356 25.8277C19.4152 25.9358 19.7527 25.9919 20.1431 25.9907C20.9448 25.988 21.3668 25.8096 21.5391 25.7129C21.5697 25.6956 21.5989 25.6659 21.5625 25.5803L21.3814 25.0722C21.3534 24.9964 21.2768 25.0238 21.2768 25.0238C21.0781 25.098 20.7968 25.2313 20.1374 25.2295C19.7084 25.2288 19.3884 25.1017 19.188 24.9025C18.984 24.6986 18.8821 24.4014 18.8662 23.9794L21.6443 23.9815C21.6443 23.9815 21.7174 23.9808 21.725 23.9095C21.728 23.8799 21.8201 23.3398 21.642 22.7156L21.64 22.7151ZM12.884 25.1063C12.7752 25.0194 12.76 24.9982 12.724 24.9417C12.669 24.8568 12.6408 24.736 12.6408 24.5813C12.6408 24.3386 12.7217 24.1628 12.8887 24.045C12.887 24.0454 13.1279 23.8375 13.694 23.8446C13.946 23.8491 14.1974 23.8705 14.4465 23.9088V25.1694H14.4469C14.4469 25.1694 14.0953 25.2452 13.6979 25.2691C13.1335 25.303 12.8838 25.1066 12.8856 25.1072L12.884 25.1063ZM13.9882 23.1546C13.8756 23.1464 13.7297 23.1423 13.5556 23.1423C13.3183 23.1423 13.088 23.1719 12.8734 23.2299C12.6572 23.2883 12.462 23.3786 12.295 23.4989C12.1275 23.6184 11.9897 23.7748 11.8924 23.956C11.7941 24.1389 11.744 24.3534 11.744 24.596C11.744 24.8422 11.7867 25.0549 11.8711 25.229C11.9538 25.4017 12.0783 25.5509 12.2333 25.6633C12.3875 25.7755 12.5779 25.8585 12.7977 25.9077C13.0157 25.9575 13.2618 25.9826 13.5326 25.9826C13.8174 25.9826 14.1005 25.9587 14.3748 25.9124C14.6084 25.8721 14.8411 25.8269 15.0728 25.7767C15.1653 25.7554 15.268 25.7275 15.268 25.7275C15.3366 25.7101 15.3313 25.6367 15.3313 25.6367L15.3297 23.1049C15.3297 22.5493 15.1813 22.1361 14.8884 21.8811C14.5965 21.6262 14.1693 21.4979 13.6154 21.4979C13.408 21.4979 13.0721 21.526 12.8717 21.5662C12.8717 21.5662 12.2669 21.6837 12.0172 21.8792C12.0172 21.8792 11.9623 21.913 11.9922 21.9895L12.1891 22.5169C12.2136 22.5853 12.2802 22.5619 12.2802 22.5619C12.2802 22.5619 12.3011 22.5537 12.3258 22.5391C12.8585 22.249 13.5337 22.2578 13.5337 22.2578C13.8326 22.2578 14.0647 22.3184 14.2194 22.4371C14.3708 22.5533 14.448 22.729 14.448 23.0982V23.2155C14.2106 23.181 13.9908 23.1611 13.9908 23.1611L13.9882 23.1546ZM36.3178 21.7252C36.3218 21.7159 36.3239 21.7059 36.324 21.6958C36.3241 21.6857 36.3221 21.6757 36.3182 21.6664C36.3143 21.6571 36.3086 21.6487 36.3014 21.6416C36.2941 21.6345 36.2856 21.629 36.2762 21.6253C36.2289 21.6074 35.9931 21.5576 35.812 21.5464C35.4639 21.5246 35.2705 21.5833 35.0964 21.6614C34.9244 21.7389 34.7342 21.8636 34.6287 22.0077L34.6284 21.6702C34.6284 21.6237 34.5955 21.5863 34.5487 21.5863H33.8384C33.7923 21.5863 33.7589 21.6237 33.7589 21.6702V25.802C33.7589 25.8243 33.7678 25.8457 33.7836 25.8615C33.7994 25.8773 33.8208 25.8862 33.8431 25.8862H34.571C34.5933 25.8862 34.6147 25.8773 34.6305 25.8615C34.6462 25.8457 34.6551 25.8243 34.6551 25.802V23.7273C34.6551 23.4495 34.6857 23.1735 34.7467 22.9994C34.8068 22.8273 34.8886 22.6899 34.9893 22.5915C35.0854 22.4964 35.203 22.4258 35.3322 22.3858C35.4534 22.351 35.5788 22.3333 35.7049 22.3334C35.85 22.3334 36.0091 22.3706 36.0091 22.3706C36.0625 22.3766 36.0923 22.3439 36.1104 22.2957C36.158 22.169 36.2932 21.7894 36.3196 21.7138" fill="#FFFFFE"/>
<path fill-rule="evenodd" clip-rule="evenodd" d="M29.519 19.8185C29.429 19.7913 29.3375 19.7696 29.2449 19.7534C29.1204 19.7326 28.9942 19.7229 28.8679 19.7242C28.3663 19.7242 27.9709 19.866 27.6933 20.1459C27.4176 20.4237 27.23 20.8469 27.1359 21.4037L27.102 21.5917H26.4723C26.4723 21.5917 26.3955 21.5885 26.3793 21.6724L26.2759 22.2491C26.2687 22.3043 26.2925 22.3387 26.3663 22.3384H26.9792L26.3574 25.8097C26.3087 26.0893 26.2529 26.3192 26.1912 26.4935C26.1304 26.6654 26.0709 26.7943 25.9978 26.8878C25.9269 26.9784 25.8598 27.045 25.7439 27.0839C25.6483 27.1161 25.5382 27.1308 25.4176 27.1308C25.3504 27.1308 25.2611 27.1196 25.1952 27.1064C25.1292 27.0934 25.0949 27.0786 25.0455 27.0579C25.0455 27.0579 24.9736 27.0304 24.9453 27.1025C24.9223 27.1614 24.7589 27.6107 24.7396 27.6662C24.7199 27.7211 24.7475 27.7643 24.7823 27.7768C24.8639 27.806 24.9246 27.8246 25.0357 27.8508C25.1901 27.8872 25.3202 27.8895 25.442 27.8895C25.6973 27.8895 25.9299 27.8536 26.1228 27.784C26.3169 27.7139 26.4859 27.5917 26.6353 27.4262C26.7969 27.2478 26.8985 27.0609 26.9958 26.8059C27.0919 26.5532 27.1739 26.2396 27.2395 25.874L27.8643 22.3384H28.7779C28.7779 22.3384 28.8549 22.3412 28.8709 22.2577L28.9743 21.681C28.9815 21.6258 28.958 21.5913 28.8838 21.5917H27.9971C28.0015 21.5716 28.0418 21.2597 28.1436 20.9661C28.187 20.8407 28.2687 20.7396 28.338 20.6702C28.4027 20.604 28.4824 20.5545 28.5703 20.5257C28.6666 20.4959 28.7671 20.4814 28.8679 20.4828C28.9515 20.4828 29.0334 20.4928 29.0958 20.5058C29.1818 20.5241 29.2152 20.5337 29.2377 20.5404C29.3281 20.568 29.3402 20.5413 29.358 20.4975L29.57 19.9152C29.5918 19.8526 29.5387 19.8262 29.519 19.8185ZM17.128 25.8171C17.128 25.8635 17.0949 25.9013 17.0485 25.9013H16.313C16.2665 25.9013 16.2334 25.8635 16.2334 25.8171V19.8974C16.2334 19.8512 16.2665 19.8137 16.313 19.8137H17.0485C17.0949 19.8137 17.128 19.8512 17.128 19.8974V25.8171Z" fill="#FFFFFE"/>
</g>
</g>
</g>
<defs>
<clipPath id="clip0_20225_11016">
<rect width="48" height="33.5824" fill="white" transform="translate(1 7.94189)"/>
</clipPath>
</defs>
</svg>
