<svg width="50" height="50" viewBox="0 0 50 50" fill="none" xmlns="http://www.w3.org/2000/svg">
<g style="mix-blend-mode:luminosity" opacity="0.8">
<g clip-path="url(#clip0_20225_11127)">
<path fill-rule="evenodd" clip-rule="evenodd" d="M0 37.7345H25.2699L50 13H0V37.7345" fill="url(#paint0_linear_20225_11127)"/>
<path fill-rule="evenodd" clip-rule="evenodd" d="M29.6728 17.9469H24.7347L24.7512 29.5612L20.4512 17.9425H16.1875L12.5169 27.6456C12.1267 25.1766 9.57409 24.3246 7.56564 23.6864C6.23932 23.2605 4.83165 22.6338 4.84595 21.9413C4.85694 21.3729 5.59897 20.8458 7.0737 20.9244C8.06308 20.9777 8.93704 21.0574 10.6756 21.8973L12.385 18.9182C10.7998 18.1113 8.60779 17.6017 6.81042 17.6001H6.79942C4.70358 17.6001 2.95843 18.2789 1.8767 19.3975C1.12258 20.178 0.715831 21.1707 0.699341 22.2683C0.671859 23.7788 1.22536 24.8495 2.38843 25.7053C3.37122 26.4254 4.62828 26.8926 5.73584 27.2356C7.10173 27.6588 8.21754 28.0271 8.20379 28.8109C8.1928 29.0967 8.08507 29.3638 7.8795 29.5793C7.53871 29.9311 7.01654 30.063 6.29374 30.0773C4.89926 30.107 3.86591 29.8877 2.21914 28.9142L0.698242 31.9318C2.34336 32.8673 4.08962 33.3367 6.07388 33.3367L6.5202 33.3334C8.24722 33.3021 9.64884 32.8882 10.7624 31.9923C10.8262 31.9412 10.8834 31.8895 10.9427 31.8373L10.7558 32.8003L14.9222 32.7871L15.6698 30.8732C16.4558 31.1414 17.3495 31.2898 18.2982 31.2898C19.2227 31.2898 20.0923 31.1491 20.8635 30.8963L21.3845 32.7871L28.8599 32.7942L28.878 28.4311H30.4687C34.3136 28.4311 36.5864 26.4743 36.5864 23.1928C36.5851 19.5382 34.3757 17.9464 29.6728 17.9464L29.6728 17.9469ZM18.2982 27.8748C17.7238 27.8748 17.1852 27.7748 16.7218 27.5989L18.2806 22.6767H18.3109L19.8444 27.6126C19.3827 27.7775 18.8567 27.8748 18.2977 27.8748H18.2982ZM29.9619 25.0468H28.8769V21.08H29.9625C31.4081 21.08 32.5623 21.5615 32.5623 23.0378C32.5611 24.5659 31.4081 25.0468 29.9625 25.0468" fill="white"/>
</g>
</g>
<defs>
<linearGradient id="paint0_linear_20225_11127" x1="25" y1="13" x2="25" y2="37.7351" gradientUnits="userSpaceOnUse">
<stop stop-color="#00AEEF"/>
<stop offset="0.212" stop-color="#0097DC"/>
<stop offset="0.519" stop-color="#007CC5"/>
<stop offset="0.792" stop-color="#006CB8"/>
<stop offset="1" stop-color="#0066B3"/>
</linearGradient>
<clipPath id="clip0_20225_11127">
<rect width="50" height="24.7345" fill="white" transform="translate(0 13)"/>
</clipPath>
</defs>
</svg>
