<svg width="40" height="40" viewBox="0 0 40 40" fill="none" xmlns="http://www.w3.org/2000/svg">
<g clip-path="url(#clip0_20169_45608)">
<path d="M6.56279 23.1335C6.56279 23.1335 5.86151 19.6483 9.57046 15.4274C13.2798 11.2067 16.0627 9.67194 19.0684 8.87246C19.0684 8.87246 19.0658 8.874 19.0631 8.87555C19.0669 8.87454 19.0708 8.87347 19.0745 8.87246C19.0745 8.87246 16.7134 10.2476 16.7134 12.3257C16.7134 12.9289 16.8096 13.3434 16.9429 13.6203C17.1197 13.9881 17.3997 14.1132 17.6511 14.1144C17.863 14.1156 17.987 14.0286 18.255 13.9245V25.1796C18.255 25.1796 18.284 25.361 18.4469 25.576C18.6815 25.8852 19.0502 26.2626 19.7428 26.2664C20.9244 26.2588 22.4105 24.9241 22.4105 24.9241V15.8112C22.4105 14.8841 21.7471 13.7649 21.044 13.3809C21.044 13.3809 21.1398 13.3749 21.2949 13.3749C21.7591 13.3748 22.7549 13.4279 23.3098 13.8518C23.464 13.6732 25.9518 10.8581 30.3787 9.99191C30.3787 9.99191 30.3779 9.99278 30.3765 9.99439C30.3806 9.99359 30.3846 9.99272 30.3886 9.99191C30.3886 9.99191 27.9401 12.8751 27.1727 14.3048C27.0363 14.3129 27.0164 17.0174 27.0391 19.7198C27.0611 22.3284 27.1231 24.9355 27.159 25.1159C27.159 25.1159 27.4202 25.5042 28.0855 25.5076C28.8359 25.5114 30.1005 25.0253 32.0831 22.9413L32.083 22.9414L32.0831 22.9413C32.0831 22.9413 32.0308 23.06 31.9256 23.2703C31.3574 24.4056 29.2463 28.2114 25.4962 30.4235L25.496 30.4233C25.4959 30.4234 25.4958 30.4235 25.4957 30.4235L23.0634 28.3663L23.0012 28.3145L20.3484 31.1273C20.3484 31.1273 20.3469 31.1272 20.3444 31.1269L20.344 31.1273C20.344 31.1273 14.2963 30.6157 11.7703 26.9707C11.7703 26.9707 11.775 26.9725 11.7822 26.9751C11.7811 26.9736 11.7801 26.9722 11.7791 26.9707C11.7791 26.9707 12.1616 27.1196 12.5933 27.1277C13.0991 27.137 13.6303 26.9522 13.6303 26.107V17.5378C13.6303 17.1002 13.329 16.6094 12.6677 16.6112C12.0729 16.6128 11.219 17.013 10.053 18.2093C7.59095 20.7351 6.56849 23.1335 6.56849 23.1335C6.56849 23.1335 6.56782 23.1302 6.56675 23.1244C6.56433 23.13 6.56279 23.1335 6.56279 23.1335ZM19.9977 37.6616C24.7153 37.6616 29.1506 35.8245 32.4864 32.4886C35.8223 29.1527 37.6594 24.7175 37.6594 19.9999C37.6594 15.2823 35.8223 10.847 32.4864 7.51112C29.1506 4.17529 24.7153 2.33813 19.9977 2.33813C15.28 2.33813 10.8448 4.17529 7.50891 7.51112C4.17309 10.847 2.33594 15.2823 2.33594 19.9999C2.33594 24.7175 4.17309 29.1527 7.50891 32.4886C10.8448 35.8245 15.28 37.6616 19.9977 37.6616Z" fill="black"/>
<path d="M20 1.52508C30.2033 1.52508 38.4748 9.79656 38.4748 19.9999C38.4748 30.2032 30.2033 38.4747 20 38.4747C9.79667 38.4747 1.52521 30.2032 1.52521 19.9999C1.52521 9.79656 9.79667 1.52508 20 1.52508ZM20 39C25.0751 39 29.8464 37.0236 33.4351 33.435C37.0237 29.8463 39 25.075 39 19.9999C39 14.9248 37.0237 10.1535 33.4351 6.56482C29.8464 2.97617 25.0751 0.99987 20 0.99987C14.9249 0.99987 10.1536 2.97617 6.56494 6.56482C2.97629 10.1535 1 14.9248 1 19.9999C1 25.075 2.97629 29.8463 6.56494 33.435C10.1536 37.0236 14.9249 39 20 39Z" fill="black"/>
</g>
<defs>
<clipPath id="clip0_20169_45608">
<rect width="38" height="38.0001" fill="white" transform="matrix(1 0 0 -1 1 39)"/>
</clipPath>
</defs>
</svg>
