<svg width="50" height="50" viewBox="0 0 50 50" fill="none" xmlns="http://www.w3.org/2000/svg">
<g style="mix-blend-mode:luminosity" opacity="0.8">
<path d="M17.0989 10C16.1536 10.002 15.2283 10.5362 14.7525 11.351L7.3514 24.149C6.88287 24.966 6.88287 26.0339 7.3514 26.8509L14.7525 39.649C15.2283 40.4638 16.1536 40.9981 17.0989 41H31.9012C32.8464 40.998 33.7717 40.4638 34.2475 39.649L41.6487 26.8509C42.1172 26.0339 42.1171 24.966 41.6487 24.149L34.2475 11.351C33.7717 10.5361 32.8464 10.0019 31.9012 10H17.0989ZM17.2333 17.4871C17.2537 17.485 17.275 17.485 17.2954 17.4871H19.8484C19.9052 17.4889 19.9605 17.505 20.0093 17.5338C20.0581 17.5627 20.0988 17.6033 20.1276 17.652L24.4587 25.3349C24.4806 25.373 24.4946 25.4152 24.4998 25.4588C24.5052 25.4152 24.5192 25.373 24.541 25.3349L28.8618 17.652C28.8915 17.6019 28.9339 17.5604 28.9846 17.5315C29.0353 17.5026 29.0927 17.4873 29.1512 17.4871H31.7044C31.9304 17.489 32.0998 17.7725 31.9939 17.9717L27.7661 25.5L31.9939 33.018C32.1098 33.2183 31.9364 33.5148 31.7044 33.5129H29.1512C29.0917 33.5117 29.0336 33.4948 28.9828 33.464C28.932 33.4333 28.8902 33.3897 28.8618 33.3376L24.541 25.6546C24.5192 25.6166 24.5052 25.5743 24.4999 25.5309C24.4946 25.5745 24.4806 25.6166 24.4587 25.6547L20.1275 33.3376C20.1 33.3882 20.0599 33.4308 20.011 33.4615C19.9622 33.4922 19.9063 33.5099 19.8486 33.5129H17.2952C17.0632 33.515 16.8899 33.2183 17.0058 33.018L21.2335 25.5L17.0058 17.9717C16.9045 17.7899 17.0281 17.5258 17.2332 17.4871H17.2333Z" fill="#3498DB"/>
</g>
</svg>
