<?xml version="1.0" encoding="utf-8"?>
<!-- Generator: Adobe Illustrator 24.0.2, SVG Export Plug-In . SVG Version: 6.00 Build 0)  -->
<svg version="1.1" id="Capa_1" xmlns="http://www.w3.org/2000/svg" xmlns:xlink="http://www.w3.org/1999/xlink" x="0px" y="0px"
	 viewBox="0 0 100 86.667" enable-background="new 0 0 100 86.667" xml:space="preserve" width="49" height="43">
<g>
	<g>
		<path fill="#113F8C" d="M95,43.333h-1.667v-35C93.328,3.733,89.6,0.005,85,0H15c-4.6,0.005-8.328,3.733-8.333,8.333v25H5
			c-2.761,0-5,2.239-5,5v43.333c0,2.761,2.239,5,5,5h63.333C69.254,86.667,70,85.92,70,85c-0.005-4.6-3.733-8.328-8.333-8.333h-5
			v-10h20v15c0,2.761,2.239,5,5,5H95c2.761,0,5-2.239,5-5V48.333C100,45.572,97.761,43.333,95,43.333z M36.667,81.667
			c0,0.92-0.746,1.667-1.667,1.667H5c-0.92,0-1.667-0.746-1.667-1.667V80h33.333V81.667z M36.667,76.667H3.333V38.333
			c0-0.92,0.746-1.667,1.667-1.667h30c0.92,0,1.667,0.746,1.667,1.667V76.667z M61.667,80c2.118,0.002,4.006,1.337,4.715,3.333
			H39.693c0.197-0.534,0.301-1.098,0.307-1.667V80H61.667z M40,76.667v-10h3.333v10H40z M46.667,76.667v-10h6.667v10H46.667z
			 M76.667,63.333H40v-10h36.667V63.333z M76.667,48.333V50H40V38.333c-0.006-0.791-0.201-1.569-0.57-2.268
			c0.025-0.023,0.058-0.03,0.082-0.055l16.5-16.5c0.64-0.662,0.621-1.717-0.041-2.357c-0.646-0.624-1.67-0.624-2.316,0l-16.5,16.5
			c-0.04,0.042-0.057,0.095-0.092,0.138c-0.647-0.3-1.351-0.456-2.063-0.458H10v-25c0-2.761,2.239-5,5-5h70c2.761,0,5,2.239,5,5v35
			h-8.333C78.905,43.333,76.667,45.572,76.667,48.333z M96.667,81.667c0,0.92-0.746,1.667-1.667,1.667H81.667
			c-0.92,0-1.667-0.746-1.667-1.667V80h16.667V81.667z M96.667,76.667H80V48.333c0-0.92,0.746-1.667,1.667-1.667H95
			c0.92,0,1.667,0.746,1.667,1.667V76.667z"/>
	</g>
</g>
<g>
	<g>
		<path fill="#113F8C" d="M19.915,53.62c-0.651-0.651-1.706-0.651-2.357,0l-7.07,7.07c-0.662,0.64-0.68,1.695-0.041,2.357
			c0.64,0.662,1.695,0.68,2.357,0.041c0.014-0.013,0.028-0.027,0.041-0.041l7.07-7.07C20.212,55.461,19.615,54.481,19.915,53.62z"/>
	</g>
</g>
<g>
	<g>
		<path fill="#113F8C" d="M29.874,53.62c-0.646-0.624-1.67-0.624-2.316,0l-7.07,7.07c-0.662,0.639-0.68,1.695-0.041,2.357
			c0.639,0.662,1.695,0.68,2.357,0.041c0.014-0.013,0.028-0.027,0.041-0.041l7.07-7.07C30.554,55.315,30.536,54.259,29.874,53.62z"
			/>
	</g>
</g>
<g>
	<g>
		<path fill="#113F8C" d="M66.137,17.155c-0.646-0.624-1.67-0.624-2.316,0l-16.5,16.5c-0.662,0.639-0.68,1.695-0.041,2.357
			c0.639,0.662,1.695,0.68,2.357,0.041c0.014-0.013,0.028-0.027,0.041-0.041l16.5-16.5C66.818,18.85,66.8,17.794,66.137,17.155z"/>
	</g>
</g>
<g>
	<g>
		<path fill="#113F8C" d="M91.827,58.132c-0.646-0.624-1.67-0.624-2.316,0l-4.713,4.713c-0.662,0.64-0.68,1.695-0.041,2.357
			c0.64,0.662,1.695,0.68,2.357,0.041c0.014-0.013,0.027-0.027,0.041-0.041l4.713-4.713C92.508,59.826,92.49,58.771,91.827,58.132z"
			/>
	</g>
</g>
<g>
	<g>
		<path fill="#113F8C" d="M50.033,56.667h-0.017c-0.92,0.005-1.663,0.755-1.658,1.675c0.005,0.92,0.755,1.663,1.675,1.658
			c0.92,0,1.667-0.746,1.667-1.667C51.7,57.413,50.954,56.667,50.033,56.667z"/>
	</g>
</g>
<g>
	<g>
		<path fill="#113F8C" d="M53.333,6.667h-6.667C45.746,6.667,45,7.413,45,8.333S45.746,10,46.667,10h6.667
			C54.254,10,55,9.254,55,8.333S54.254,6.667,53.333,6.667z"/>
	</g>
</g>
</svg>
