
<svg version="1.1" id="Layer_1" xmlns="http://www.w3.org/2000/svg" xmlns:xlink="http://www.w3.org/1999/xlink" x="0px" y="0px"
	 width="42px" height="41.9px" viewBox="0 0 42 41.9" style="enable-background:new 0 0 42 41.9;" xml:space="preserve">
<style type="text/css">
	.st0{fill:#32742C;}
</style>
<g>
	<path class="st0" d="M25.8,17.1l-6.3,6l-3-3.1c-0.3-0.3-0.9-0.4-1.2,0c-0.3,0.3-0.4,0.9,0,1.2l3.6,3.7c0.3,0.3,0.9,0.4,1.2,0
		l6.9-6.6c0.2-0.2,0.3-0.4,0.3-0.6s-0.1-0.5-0.2-0.6C26.6,16.8,26,16.8,25.8,17.1z"/>
	<path class="st0" d="M21,7.9c-7.1,0-13,5.9-13,13S13.8,34,21,34S34,28.2,34,21S28.3,7.9,21,7.9z M21,32.3
		c-6.3,0-11.3-5.1-11.3-11.3S14.8,9.8,21,9.8c6.3,0,11.3,5.1,11.3,11.3S27.3,32.3,21,32.3z"/>
	<path class="st0" d="M39,16.3l0.3-5.2c0-0.3-0.2-0.7-0.5-0.8l-4.5-2.3L32,3.4c-0.2-0.3-0.5-0.5-0.8-0.5l-5.3,0.2l-4.3-2.9
		c-0.3-0.2-0.7-0.2-1,0l-4.3,2.9l-5.2-0.3c-0.3,0-0.7,0.2-0.8,0.5L7.9,7.8l-4.6,2.3c-0.3,0.2-0.5,0.5-0.5,0.8l0.3,5.3l-2.9,4.3
		c-0.2,0.3-0.2,0.7,0,1l2.9,4.3L2.8,31c0,0.3,0.2,0.7,0.5,0.8L7.8,34l2.3,4.6c0.2,0.3,0.5,0.5,0.8,0.5l5.2-0.3l4.3,2.9
		c0.3,0.2,0.7,0.2,1,0l4.3-2.9l5.2,0.3c0.3,0,0.7-0.2,0.8-0.5L34,34l4.6-2.3c0.3-0.2,0.5-0.5,0.5-0.8L39,25.8l2.9-4.3
		c0.2-0.3,0.2-0.7,0-1L39,16.3z M37.5,25.1c-0.1,0.2-0.2,0.3-0.1,0.5l0.3,4.9l-4.4,2.2C33,32.8,33,33,32.8,33.2l-2.2,4.4l-4.9-0.3
		c-0.2,0-0.4,0-0.5,0.1L21,40l-4.1-2.7c-0.1-0.1-0.3-0.1-0.5-0.1l0,0l-4.9,0.3l-2.2-4.4c-0.1-0.2-0.3-0.4-0.4-0.4l-4.4-2.2l0.3-4.9
		c0-0.2,0-0.4-0.1-0.5L2,21l2.7-4.1c0.1-0.2,0.2-0.3,0.1-0.5l-0.3-4.9l4.4-2.2C9,9.1,9.2,8.9,9.3,8.9l2.2-4.4l4.9,0.3
		c0.2,0,0.4,0,0.5-0.1l4-2.7l4.1,2.7c0.2,0.1,0.3,0.2,0.5,0.1l4.9-0.3l2.2,4.4C32.8,9,33,9.2,33.1,9.3l4.4,2.2l-0.3,4.9
		c0,0.2,0,0.4,0.1,0.5l2.7,4L37.5,25.1z"/>
</g>
</svg>
