<svg width="278" height="278" viewBox="0 0 278 278" fill="none" xmlns="http://www.w3.org/2000/svg">
<rect width="278" height="278" rx="16" fill="#F5F5F5"/>
<rect x="12" y="12" width="86" height="20" rx="6" fill="#FF7070" fill-opacity="0.16"/>
<rect x="12.5" y="12.5" width="85" height="19" rx="5.5" stroke="#FF7070" stroke-opacity="0.32"/>
<path d="M20.04 26H18.3922L20.9029 18.7273H22.8844L25.3915 26H23.7438L21.9221 20.3892H21.8652L20.04 26ZM19.937 23.1413H23.829V24.3416H19.937V23.1413ZM27.8045 18.7273V26H26.2669V18.7273H27.8045ZM36.2065 21.0781C36.1568 20.9053 36.0869 20.7526 35.997 20.62C35.907 20.4851 35.7969 20.3714 35.6667 20.2791C35.5389 20.1844 35.3921 20.1122 35.2264 20.0625C35.063 20.0128 34.8819 19.9879 34.6831 19.9879C34.3114 19.9879 33.9847 20.0803 33.7029 20.2649C33.4236 20.4496 33.2058 20.7183 33.0495 21.071C32.8933 21.4214 32.8152 21.8499 32.8152 22.3565C32.8152 22.8632 32.8921 23.294 33.046 23.6491C33.1999 24.0043 33.4177 24.2753 33.6994 24.4624C33.9811 24.647 34.3137 24.7393 34.6973 24.7393C35.0453 24.7393 35.3424 24.6778 35.5886 24.5547C35.8372 24.4292 36.0266 24.2528 36.1568 24.0256C36.2894 23.7983 36.3556 23.5296 36.3556 23.2195L36.6681 23.2656H34.7931V22.108H37.8365V23.0241C37.8365 23.6634 37.7015 24.2126 37.4316 24.6719C37.1618 25.1288 36.7901 25.4815 36.3166 25.7301C35.8431 25.9763 35.301 26.0994 34.6902 26.0994C34.0083 26.0994 33.4094 25.9491 32.8933 25.6484C32.3772 25.3454 31.9747 24.9157 31.6859 24.3594C31.3994 23.8007 31.2562 23.1378 31.2562 22.3707C31.2562 21.7812 31.3414 21.2557 31.5119 20.794C31.6847 20.33 31.9262 19.937 32.2363 19.6151C32.5465 19.2931 32.9075 19.0481 33.3194 18.88C33.7314 18.7119 34.1776 18.6278 34.6582 18.6278C35.0701 18.6278 35.4537 18.6882 35.8088 18.8089C36.1639 18.9273 36.4788 19.0954 36.7534 19.3132C37.0304 19.531 37.2565 19.7902 37.4316 20.0909C37.6068 20.3892 37.7193 20.7183 37.769 21.0781H36.2065ZM38.9915 26V18.7273H43.892V19.995H40.5291V21.728H43.6399V22.9957H40.5291V24.7322H43.9062V26H38.9915ZM51.1976 18.7273V26H49.8695L46.7054 21.4226H46.6522V26H45.1145V18.7273H46.464L49.6032 23.3011H49.6671V18.7273H51.1976ZM52.468 26V18.7273H57.3686V19.995H54.0057V21.728H57.1165V22.9957H54.0057V24.7322H57.3828V26H52.468ZM58.5911 26V18.7273H61.4604C62.0096 18.7273 62.4784 18.8255 62.8667 19.022C63.2573 19.2161 63.5544 19.492 63.758 19.8494C63.964 20.2045 64.0669 20.6224 64.0669 21.103C64.0669 21.5859 63.9628 22.0014 63.7544 22.3494C63.5461 22.6951 63.2443 22.9602 62.8489 23.1449C62.4559 23.3295 61.9801 23.4219 61.4213 23.4219H59.5002V22.1861H61.1728C61.4663 22.1861 61.7102 22.1458 61.9043 22.0653C62.0984 21.9848 62.2428 21.8641 62.3375 21.7031C62.4346 21.5421 62.4831 21.3421 62.4831 21.103C62.4831 20.8615 62.4346 20.6579 62.3375 20.4922C62.2428 20.3265 62.0972 20.201 61.9007 20.1158C61.7066 20.0282 61.4616 19.9844 61.1657 19.9844H60.1287V26H58.5911ZM62.5186 22.6903L64.3262 26H62.6287L60.8603 22.6903H62.5186ZM66.4071 26H64.7594L67.2701 18.7273H69.2516L71.7587 26H70.111L68.2892 20.3892H68.2324L66.4071 26ZM66.3042 23.1413H70.1962V24.3416H66.3042V23.1413ZM71.4684 19.995V18.7273H77.4414V19.995H75.2148V26H73.695V19.995H71.4684ZM84.7763 22.3636C84.7763 23.1567 84.6259 23.8314 84.3253 24.3878C84.027 24.9441 83.6198 25.3691 83.1037 25.6626C82.59 25.9538 82.0123 26.0994 81.3707 26.0994C80.7244 26.0994 80.1444 25.9527 79.6307 25.6591C79.117 25.3655 78.7109 24.9406 78.4126 24.3842C78.1143 23.8279 77.9652 23.1544 77.9652 22.3636C77.9652 21.5705 78.1143 20.8958 78.4126 20.3395C78.7109 19.7831 79.117 19.3594 79.6307 19.0682C80.1444 18.7746 80.7244 18.6278 81.3707 18.6278C82.0123 18.6278 82.59 18.7746 83.1037 19.0682C83.6198 19.3594 84.027 19.7831 84.3253 20.3395C84.6259 20.8958 84.7763 21.5705 84.7763 22.3636ZM83.2173 22.3636C83.2173 21.8499 83.1404 21.4167 82.9865 21.0639C82.835 20.7112 82.6207 20.4437 82.3438 20.2614C82.0668 20.0791 81.7424 19.9879 81.3707 19.9879C80.9991 19.9879 80.6747 20.0791 80.3977 20.2614C80.1207 20.4437 79.9053 20.7112 79.7514 21.0639C79.5999 21.4167 79.5241 21.8499 79.5241 22.3636C79.5241 22.8774 79.5999 23.3106 79.7514 23.6634C79.9053 24.0161 80.1207 24.2836 80.3977 24.4659C80.6747 24.6482 80.9991 24.7393 81.3707 24.7393C81.7424 24.7393 82.0668 24.6482 82.3438 24.4659C82.6207 24.2836 82.835 24.0161 82.9865 23.6634C83.1404 23.3106 83.2173 22.8774 83.2173 22.3636ZM85.9153 26V18.7273H88.7846C89.3339 18.7273 89.8026 18.8255 90.1909 19.022C90.5815 19.2161 90.8786 19.492 91.0822 19.8494C91.2882 20.2045 91.3912 20.6224 91.3912 21.103C91.3912 21.5859 91.287 22.0014 91.0787 22.3494C90.8703 22.6951 90.5685 22.9602 90.1731 23.1449C89.7801 23.3295 89.3043 23.4219 88.7456 23.4219H86.8244V22.1861H88.497C88.7905 22.1861 89.0344 22.1458 89.2285 22.0653C89.4226 21.9848 89.5671 21.8641 89.6618 21.7031C89.7588 21.5421 89.8074 21.3421 89.8074 21.103C89.8074 20.8615 89.7588 20.6579 89.6618 20.4922C89.5671 20.3265 89.4215 20.201 89.225 20.1158C89.0308 20.0282 88.7858 19.9844 88.4899 19.9844H87.4529V26H85.9153ZM89.8429 22.6903L91.6504 26H89.9529L88.1845 22.6903H89.8429Z" fill="#662D2D"/>
<rect x="54" y="119" width="171" height="40" rx="12" fill="#1F1F1F"/>
<g clip-path="url(#clip0_6846_3255)">
<path fill-rule="evenodd" clip-rule="evenodd" d="M70.25 132C70.25 131.586 69.9142 131.25 69.5 131.25C69.0858 131.25 68.75 131.586 68.75 132C68.75 132.718 68.5711 133.118 68.3447 133.345C68.1183 133.571 67.7177 133.75 67 133.75C66.5858 133.75 66.25 134.086 66.25 134.5C66.25 134.914 66.5858 135.25 67 135.25C67.7177 135.25 68.1183 135.429 68.3447 135.655C68.5711 135.882 68.75 136.282 68.75 137C68.75 137.414 69.0858 137.75 69.5 137.75C69.9142 137.75 70.25 137.414 70.25 137C70.25 136.282 70.4289 135.882 70.6553 135.655C70.8817 135.429 71.2823 135.25 72 135.25C72.4142 135.25 72.75 134.914 72.75 134.5C72.75 134.086 72.4142 133.75 72 133.75C71.2823 133.75 70.8817 133.571 70.6553 133.345C70.4289 133.118 70.25 132.718 70.25 132Z" fill="white"/>
<path fill-rule="evenodd" clip-rule="evenodd" d="M76.75 136C76.75 135.586 76.4142 135.25 76 135.25C75.5858 135.25 75.25 135.586 75.25 136C75.25 137.551 74.8627 138.577 74.2197 139.22C73.5766 139.863 72.551 140.25 71 140.25C70.5858 140.25 70.25 140.586 70.25 141C70.25 141.414 70.5858 141.75 71 141.75C72.5511 141.75 73.5766 142.137 74.2197 142.78C74.8627 143.423 75.25 144.449 75.25 146C75.25 146.414 75.5858 146.75 76 146.75C76.4142 146.75 76.75 146.414 76.75 146C76.75 144.449 77.1373 143.423 77.7803 142.78C78.4234 142.137 79.4489 141.75 81 141.75C81.4142 141.75 81.75 141.414 81.75 141C81.75 140.586 81.4142 140.25 81 140.25C79.4489 140.25 78.4234 139.863 77.7803 139.22C77.1373 138.577 76.75 137.551 76.75 136ZM75.2803 140.28C75.5635 139.997 75.8024 139.68 76 139.33C76.1975 139.68 76.4365 139.997 76.7197 140.28C77.0028 140.563 77.3205 140.802 77.6696 141C77.3205 141.198 77.0028 141.437 76.7197 141.72C76.4365 142.003 76.1976 142.32 76 142.67C75.8025 142.32 75.5635 142.003 75.2803 141.72C74.9972 141.437 74.6795 141.198 74.3304 141C74.6795 140.802 74.9972 140.563 75.2803 140.28Z" fill="white"/>
</g>
<path d="M98.3415 137.035C98.2453 136.733 98.1161 136.463 97.9537 136.224C97.7946 135.982 97.604 135.777 97.3819 135.608C97.1599 135.436 96.9063 135.305 96.6213 135.215C96.3396 135.126 96.0297 135.081 95.6916 135.081C95.1182 135.081 94.6012 135.228 94.1405 135.523C93.6798 135.818 93.3152 136.251 93.0467 136.821C92.7816 137.388 92.649 138.082 92.649 138.904C92.649 139.729 92.7832 140.427 93.0517 140.997C93.3202 141.567 93.688 142 94.1554 142.295C94.6227 142.59 95.1547 142.737 95.7513 142.737C96.3048 142.737 96.787 142.625 97.198 142.399C97.6123 142.174 97.9321 141.856 98.1575 141.445C98.3862 141.03 98.5006 140.543 98.5006 139.983L98.8983 140.058H95.9849V138.79H99.9871V139.948C99.9871 140.803 99.8048 141.546 99.4402 142.175C99.0789 142.802 98.5784 143.286 97.9388 143.627C97.3024 143.969 96.5732 144.139 95.7513 144.139C94.8299 144.139 94.0211 143.927 93.3251 143.503C92.6324 143.079 92.0922 142.477 91.7044 141.698C91.3166 140.916 91.1227 139.988 91.1227 138.914C91.1227 138.102 91.2354 137.373 91.4608 136.727C91.6862 136.08 92.0027 135.532 92.4104 135.081C92.8213 134.627 93.3036 134.281 93.8571 134.042C94.4139 133.8 95.0221 133.679 95.6817 133.679C96.2318 133.679 96.7439 133.76 97.2179 133.923C97.6952 134.085 98.1194 134.315 98.4906 134.614C98.8651 134.912 99.175 135.267 99.4203 135.678C99.6656 136.085 99.8313 136.538 99.9175 137.035H98.3415ZM104.969 144.154C104.217 144.154 103.569 143.993 103.025 143.672C102.485 143.347 102.067 142.891 101.772 142.305C101.481 141.715 101.335 141.024 101.335 140.232C101.335 139.449 101.481 138.76 101.772 138.163C102.067 137.567 102.478 137.101 103.005 136.766C103.536 136.432 104.155 136.264 104.865 136.264C105.296 136.264 105.713 136.335 106.117 136.478C106.522 136.621 106.885 136.844 107.206 137.149C107.528 137.454 107.781 137.85 107.967 138.337C108.153 138.821 108.245 139.41 108.245 140.102V140.629H102.175V139.516H106.789C106.789 139.125 106.709 138.778 106.55 138.477C106.391 138.172 106.167 137.931 105.879 137.756C105.594 137.58 105.259 137.492 104.875 137.492C104.457 137.492 104.092 137.595 103.781 137.8C103.473 138.003 103.234 138.268 103.065 138.596C102.899 138.921 102.816 139.274 102.816 139.655V140.525C102.816 141.035 102.906 141.469 103.085 141.827C103.267 142.185 103.521 142.459 103.845 142.648C104.17 142.833 104.55 142.926 104.984 142.926C105.266 142.926 105.523 142.886 105.755 142.807C105.987 142.724 106.187 142.601 106.356 142.439C106.525 142.277 106.654 142.076 106.744 141.837L108.151 142.091C108.038 142.505 107.836 142.868 107.544 143.18C107.256 143.488 106.893 143.728 106.456 143.901C106.021 144.07 105.526 144.154 104.969 144.154ZM111.241 139.466V144H109.755V136.364H111.181V137.607H111.276C111.452 137.202 111.727 136.877 112.101 136.632C112.479 136.387 112.955 136.264 113.528 136.264C114.048 136.264 114.504 136.374 114.895 136.592C115.286 136.808 115.59 137.129 115.805 137.557C116.021 137.984 116.128 138.513 116.128 139.143V144H114.642V139.322C114.642 138.768 114.498 138.336 114.209 138.024C113.921 137.709 113.525 137.552 113.021 137.552C112.676 137.552 112.37 137.626 112.101 137.776C111.836 137.925 111.626 138.143 111.47 138.432C111.317 138.717 111.241 139.062 111.241 139.466ZM121.273 144.154C120.521 144.154 119.873 143.993 119.329 143.672C118.789 143.347 118.371 142.891 118.076 142.305C117.785 141.715 117.639 141.024 117.639 140.232C117.639 139.449 117.785 138.76 118.076 138.163C118.371 137.567 118.782 137.101 119.309 136.766C119.84 136.432 120.459 136.264 121.169 136.264C121.599 136.264 122.017 136.335 122.421 136.478C122.826 136.621 123.189 136.844 123.51 137.149C123.832 137.454 124.085 137.85 124.271 138.337C124.456 138.821 124.549 139.41 124.549 140.102V140.629H118.479V139.516H123.093C123.093 139.125 123.013 138.778 122.854 138.477C122.695 138.172 122.471 137.931 122.183 137.756C121.898 137.58 121.563 137.492 121.179 137.492C120.761 137.492 120.396 137.595 120.085 137.8C119.777 138.003 119.538 138.268 119.369 138.596C119.203 138.921 119.12 139.274 119.12 139.655V140.525C119.12 141.035 119.21 141.469 119.389 141.827C119.571 142.185 119.825 142.459 120.149 142.648C120.474 142.833 120.854 142.926 121.288 142.926C121.57 142.926 121.827 142.886 122.059 142.807C122.291 142.724 122.491 142.601 122.66 142.439C122.829 142.277 122.958 142.076 123.048 141.837L124.455 142.091C124.342 142.505 124.14 142.868 123.848 143.18C123.56 143.488 123.197 143.728 122.76 143.901C122.325 144.07 121.83 144.154 121.273 144.154ZM126.059 144V136.364H127.495V137.577H127.575C127.714 137.166 127.959 136.843 128.311 136.607C128.665 136.369 129.066 136.249 129.514 136.249C129.607 136.249 129.716 136.253 129.842 136.259C129.971 136.266 130.072 136.274 130.145 136.284V137.706C130.086 137.689 129.98 137.671 129.827 137.651C129.675 137.628 129.522 137.616 129.37 137.616C129.018 137.616 128.705 137.691 128.43 137.84C128.158 137.986 127.943 138.19 127.784 138.452C127.625 138.71 127.545 139.005 127.545 139.337V144H126.059ZM133.446 144.169C132.962 144.169 132.524 144.08 132.133 143.901C131.742 143.718 131.432 143.455 131.203 143.11C130.978 142.765 130.865 142.343 130.865 141.842C130.865 141.411 130.948 141.057 131.114 140.778C131.28 140.5 131.503 140.28 131.785 140.117C132.067 139.955 132.382 139.832 132.73 139.749C133.078 139.666 133.432 139.603 133.794 139.56C134.251 139.507 134.622 139.464 134.907 139.431C135.192 139.395 135.399 139.337 135.529 139.257C135.658 139.178 135.723 139.048 135.723 138.869V138.835C135.723 138.4 135.6 138.064 135.355 137.825C135.113 137.587 134.751 137.467 134.271 137.467C133.77 137.467 133.376 137.578 133.088 137.8C132.803 138.019 132.605 138.263 132.496 138.531L131.099 138.213C131.265 137.749 131.507 137.375 131.825 137.089C132.146 136.801 132.516 136.592 132.934 136.463C133.351 136.33 133.79 136.264 134.251 136.264C134.556 136.264 134.879 136.301 135.22 136.374C135.565 136.443 135.887 136.572 136.185 136.761C136.487 136.95 136.733 137.22 136.926 137.572C137.118 137.92 137.214 138.372 137.214 138.929V144H135.762V142.956H135.703C135.607 143.148 135.462 143.337 135.27 143.523C135.078 143.708 134.831 143.862 134.529 143.985C134.228 144.108 133.867 144.169 133.446 144.169ZM133.769 142.976C134.18 142.976 134.531 142.895 134.823 142.732C135.118 142.57 135.341 142.358 135.494 142.096C135.65 141.831 135.728 141.547 135.728 141.246V140.261C135.675 140.314 135.572 140.364 135.419 140.411C135.27 140.454 135.099 140.492 134.907 140.525C134.715 140.555 134.528 140.583 134.345 140.609C134.163 140.633 134.011 140.652 133.888 140.669C133.6 140.705 133.336 140.767 133.098 140.853C132.862 140.939 132.673 141.063 132.531 141.226C132.392 141.385 132.322 141.597 132.322 141.862C132.322 142.23 132.458 142.509 132.73 142.697C133.001 142.883 133.348 142.976 133.769 142.976ZM142.619 136.364V137.557H138.447V136.364H142.619ZM139.566 134.534H141.053V141.758C141.053 142.046 141.096 142.263 141.182 142.409C141.268 142.552 141.379 142.649 141.515 142.702C141.654 142.752 141.805 142.777 141.967 142.777C142.087 142.777 142.191 142.769 142.281 142.752C142.37 142.736 142.44 142.722 142.489 142.712L142.758 143.94C142.672 143.973 142.549 144.007 142.39 144.04C142.231 144.076 142.032 144.096 141.793 144.099C141.402 144.106 141.038 144.036 140.7 143.891C140.362 143.745 140.088 143.519 139.879 143.214C139.67 142.91 139.566 142.527 139.566 142.066V134.534ZM147.332 144.154C146.58 144.154 145.932 143.993 145.388 143.672C144.848 143.347 144.43 142.891 144.135 142.305C143.844 141.715 143.698 141.024 143.698 140.232C143.698 139.449 143.844 138.76 144.135 138.163C144.43 137.567 144.841 137.101 145.368 136.766C145.899 136.432 146.518 136.264 147.228 136.264C147.659 136.264 148.076 136.335 148.481 136.478C148.885 136.621 149.248 136.844 149.569 137.149C149.891 137.454 150.144 137.85 150.33 138.337C150.516 138.821 150.608 139.41 150.608 140.102V140.629H144.538V139.516H149.152C149.152 139.125 149.072 138.778 148.913 138.477C148.754 138.172 148.53 137.931 148.242 137.756C147.957 137.58 147.622 137.492 147.238 137.492C146.82 137.492 146.456 137.595 146.144 137.8C145.836 138.003 145.597 138.268 145.428 138.596C145.262 138.921 145.179 139.274 145.179 139.655V140.525C145.179 141.035 145.269 141.469 145.448 141.827C145.63 142.185 145.884 142.459 146.209 142.648C146.533 142.833 146.913 142.926 147.347 142.926C147.629 142.926 147.886 142.886 148.118 142.807C148.35 142.724 148.55 142.601 148.719 142.439C148.888 142.277 149.018 142.076 149.107 141.837L150.514 142.091C150.401 142.505 150.199 142.868 149.907 143.18C149.619 143.488 149.256 143.728 148.819 143.901C148.384 144.07 147.889 144.154 147.332 144.154ZM161.355 136.493C161.302 136.022 161.084 135.658 160.699 135.399C160.315 135.137 159.831 135.006 159.247 135.006C158.83 135.006 158.469 135.073 158.164 135.205C157.859 135.335 157.622 135.513 157.453 135.742C157.287 135.968 157.204 136.224 157.204 136.513C157.204 136.755 157.26 136.964 157.373 137.139C157.489 137.315 157.64 137.462 157.826 137.582C158.015 137.698 158.217 137.795 158.432 137.875C158.648 137.951 158.855 138.014 159.054 138.064L160.048 138.322C160.373 138.402 160.706 138.51 161.047 138.646C161.389 138.781 161.705 138.96 161.997 139.183C162.288 139.405 162.524 139.68 162.703 140.008C162.885 140.336 162.976 140.729 162.976 141.186C162.976 141.763 162.827 142.275 162.529 142.722C162.234 143.17 161.805 143.523 161.241 143.781C160.681 144.04 160.003 144.169 159.208 144.169C158.445 144.169 157.786 144.048 157.229 143.806C156.672 143.564 156.236 143.221 155.921 142.777C155.607 142.33 155.433 141.799 155.399 141.186H156.941C156.97 141.554 157.09 141.861 157.299 142.106C157.511 142.348 157.781 142.528 158.109 142.648C158.44 142.764 158.803 142.822 159.198 142.822C159.632 142.822 160.018 142.754 160.356 142.618C160.698 142.479 160.966 142.286 161.162 142.041C161.357 141.793 161.455 141.503 161.455 141.171C161.455 140.87 161.369 140.623 161.196 140.43C161.027 140.238 160.797 140.079 160.505 139.953C160.217 139.827 159.89 139.716 159.526 139.62L158.323 139.292C157.507 139.07 156.861 138.743 156.384 138.312C155.91 137.882 155.673 137.312 155.673 136.602C155.673 136.016 155.832 135.504 156.15 135.066C156.468 134.629 156.899 134.289 157.443 134.047C157.986 133.802 158.6 133.679 159.282 133.679C159.972 133.679 160.58 133.8 161.107 134.042C161.637 134.284 162.055 134.617 162.36 135.041C162.665 135.462 162.824 135.946 162.837 136.493H161.355ZM164.553 144V136.364H166.039V144H164.553ZM165.303 135.185C165.045 135.185 164.823 135.099 164.637 134.927C164.455 134.751 164.364 134.542 164.364 134.3C164.364 134.055 164.455 133.846 164.637 133.674C164.823 133.498 165.045 133.411 165.303 133.411C165.562 133.411 165.782 133.498 165.965 133.674C166.15 133.846 166.243 134.055 166.243 134.3C166.243 134.542 166.15 134.751 165.965 134.927C165.782 135.099 165.562 135.185 165.303 135.185ZM171.464 136.364V137.557H167.292V136.364H171.464ZM168.411 134.534H169.898V141.758C169.898 142.046 169.941 142.263 170.027 142.409C170.113 142.552 170.224 142.649 170.36 142.702C170.499 142.752 170.65 142.777 170.812 142.777C170.932 142.777 171.036 142.769 171.125 142.752C171.215 142.736 171.285 142.722 171.334 142.712L171.603 143.94C171.517 143.973 171.394 144.007 171.235 144.04C171.076 144.076 170.877 144.096 170.638 144.099C170.247 144.106 169.883 144.036 169.545 143.891C169.206 143.745 168.933 143.519 168.724 143.214C168.515 142.91 168.411 142.527 168.411 142.066V134.534ZM176.177 144.154C175.425 144.154 174.777 143.993 174.233 143.672C173.693 143.347 173.275 142.891 172.98 142.305C172.689 141.715 172.543 141.024 172.543 140.232C172.543 139.449 172.689 138.76 172.98 138.163C173.275 137.567 173.686 137.101 174.213 136.766C174.744 136.432 175.363 136.264 176.073 136.264C176.504 136.264 176.921 136.335 177.326 136.478C177.73 136.621 178.093 136.844 178.414 137.149C178.736 137.454 178.989 137.85 179.175 138.337C179.361 138.821 179.453 139.41 179.453 140.102V140.629H173.383V139.516H177.997C177.997 139.125 177.917 138.778 177.758 138.477C177.599 138.172 177.375 137.931 177.087 137.756C176.802 137.58 176.467 137.492 176.083 137.492C175.665 137.492 175.3 137.595 174.989 137.8C174.681 138.003 174.442 138.268 174.273 138.596C174.107 138.921 174.024 139.274 174.024 139.655V140.525C174.024 141.035 174.114 141.469 174.293 141.827C174.475 142.185 174.729 142.459 175.054 142.648C175.378 142.833 175.758 142.926 176.192 142.926C176.474 142.926 176.731 142.886 176.963 142.807C177.195 142.724 177.395 142.601 177.564 142.439C177.733 142.277 177.862 142.076 177.952 141.837L179.359 142.091C179.246 142.505 179.044 142.868 178.752 143.18C178.464 143.488 178.101 143.728 177.664 143.901C177.229 144.07 176.734 144.154 176.177 144.154ZM180.963 144V136.364H182.39V137.607H182.484C182.643 137.186 182.903 136.857 183.265 136.622C183.626 136.384 184.058 136.264 184.562 136.264C185.073 136.264 185.5 136.384 185.845 136.622C186.193 136.861 186.45 137.189 186.615 137.607H186.695C186.877 137.199 187.167 136.874 187.565 136.632C187.963 136.387 188.437 136.264 188.987 136.264C189.68 136.264 190.245 136.481 190.682 136.915C191.123 137.35 191.343 138.004 191.343 138.879V144H189.857V139.018C189.857 138.501 189.716 138.127 189.434 137.895C189.153 137.663 188.816 137.547 188.425 137.547C187.941 137.547 187.565 137.696 187.296 137.994C187.028 138.289 186.894 138.669 186.894 139.133V144H185.412V138.924C185.412 138.51 185.283 138.177 185.024 137.925C184.766 137.673 184.43 137.547 184.015 137.547C183.734 137.547 183.473 137.621 183.235 137.771C182.999 137.916 182.809 138.12 182.663 138.382C182.52 138.644 182.449 138.947 182.449 139.292V144H180.963ZM195.418 144.169C194.934 144.169 194.497 144.08 194.106 143.901C193.714 143.718 193.405 143.455 193.176 143.11C192.95 142.765 192.838 142.343 192.838 141.842C192.838 141.411 192.921 141.057 193.086 140.778C193.252 140.5 193.476 140.28 193.758 140.117C194.039 139.955 194.354 139.832 194.702 139.749C195.05 139.666 195.405 139.603 195.766 139.56C196.223 139.507 196.595 139.464 196.88 139.431C197.165 139.395 197.372 139.337 197.501 139.257C197.63 139.178 197.695 139.048 197.695 138.869V138.835C197.695 138.4 197.572 138.064 197.327 137.825C197.085 137.587 196.724 137.467 196.243 137.467C195.743 137.467 195.348 137.578 195.06 137.8C194.775 138.019 194.578 138.263 194.468 138.531L193.071 138.213C193.237 137.749 193.479 137.375 193.797 137.089C194.119 136.801 194.488 136.592 194.906 136.463C195.324 136.33 195.763 136.264 196.223 136.264C196.528 136.264 196.852 136.301 197.193 136.374C197.538 136.443 197.859 136.572 198.157 136.761C198.459 136.95 198.706 137.22 198.898 137.572C199.09 137.92 199.186 138.372 199.186 138.929V144H197.735V142.956H197.675C197.579 143.148 197.435 143.337 197.243 143.523C197.05 143.708 196.803 143.862 196.502 143.985C196.2 144.108 195.839 144.169 195.418 144.169ZM195.741 142.976C196.152 142.976 196.503 142.895 196.795 142.732C197.09 142.57 197.314 142.358 197.466 142.096C197.622 141.831 197.7 141.547 197.7 141.246V140.261C197.647 140.314 197.544 140.364 197.392 140.411C197.243 140.454 197.072 140.492 196.88 140.525C196.687 140.555 196.5 140.583 196.318 140.609C196.136 140.633 195.983 140.652 195.861 140.669C195.572 140.705 195.309 140.767 195.07 140.853C194.835 140.939 194.646 141.063 194.503 141.226C194.364 141.385 194.294 141.597 194.294 141.862C194.294 142.23 194.43 142.509 194.702 142.697C194.974 142.883 195.32 142.976 195.741 142.976ZM201.026 146.864V136.364H202.478V137.602H202.602C202.689 137.442 202.813 137.259 202.975 137.05C203.138 136.841 203.363 136.659 203.651 136.503C203.94 136.344 204.321 136.264 204.795 136.264C205.411 136.264 205.962 136.42 206.445 136.732C206.929 137.043 207.309 137.492 207.584 138.079C207.862 138.665 208.002 139.371 208.002 140.197C208.002 141.022 207.864 141.73 207.589 142.32C207.314 142.906 206.936 143.359 206.455 143.677C205.975 143.992 205.426 144.149 204.81 144.149C204.346 144.149 203.966 144.071 203.671 143.915C203.38 143.76 203.151 143.577 202.985 143.369C202.82 143.16 202.692 142.974 202.602 142.812H202.513V146.864H201.026ZM202.483 140.182C202.483 140.719 202.561 141.189 202.717 141.594C202.873 141.998 203.098 142.315 203.393 142.543C203.688 142.769 204.049 142.881 204.477 142.881C204.921 142.881 205.292 142.764 205.59 142.528C205.889 142.29 206.114 141.967 206.266 141.559C206.422 141.151 206.5 140.692 206.5 140.182C206.5 139.678 206.424 139.226 206.271 138.825C206.122 138.424 205.897 138.107 205.595 137.875C205.297 137.643 204.924 137.527 204.477 137.527C204.046 137.527 203.681 137.638 203.383 137.86C203.088 138.082 202.864 138.392 202.712 138.79C202.559 139.187 202.483 139.652 202.483 140.182Z" fill="white"/>
<g filter="url(#filter0_d_6846_3255)">
<path fill-rule="evenodd" clip-rule="evenodd" d="M128.057 170.147C130.068 172.407 133.509 175.406 133.21 177.026C133.125 177.483 133.476 177.904 133.944 177.909C136.075 177.931 138.238 178.128 140.358 177.863C141.273 177.749 142.214 176.654 143.028 175.279C143.718 176.496 144.675 177.683 145.641 177.838C146.521 177.977 147.462 177.884 148.339 177.771C148.794 177.713 149.091 177.269 148.97 176.831C148.661 175.717 148.705 174.541 148.942 173.418C149.427 171.101 151.606 169.558 152.285 167.201C152.845 165.923 153.079 161.567 152.976 158.892C152.912 157.268 152.316 156.288 150.909 155.983C148.902 155.549 148.153 156.85 148.153 156.85C148.153 156.85 147.905 155.741 147.477 155.182C146.594 154.026 145.443 153.658 143.958 153.919C143.313 154.034 142.457 154.656 142.025 155.372C141.954 155.491 141.775 155.055 141.68 154.87C140.615 152.809 138.192 152.485 136.53 154.455C136.037 151.768 135.728 147.659 132.993 146.286C131.895 145.734 130.251 146.003 129.471 146.905C127.898 148.729 128.825 152.072 129.335 154.168C129.424 154.529 130.772 160.444 130.742 160.409C130.402 160.014 130.112 159.713 129.843 159.495C128.567 158.459 127.785 158.002 126.712 157.901C124.951 157.733 123.281 158.967 123.029 160.632C122.649 163.154 126.046 167.887 128.057 170.147Z" fill="black"/>
</g>
<path fill-rule="evenodd" clip-rule="evenodd" d="M125.3 162.8C124.559 161.208 125.24 159.746 126.814 159.898C129.285 160.13 130.33 162.37 131.882 163.85C132.411 164.354 133.176 163.929 133.128 163.258C132.548 159.306 131.281 155.658 130.728 151.694C130.585 150.322 130.469 149.067 130.972 148.481C131.381 148.003 132.128 147.88 132.595 148.117C132.9 148.271 133.295 148.606 133.584 149.1C134.99 152.602 135.593 156.041 135.701 159.306C135.701 160.35 137.349 160.312 137.349 159.306C137.328 158.208 137.168 157.449 137.332 156.544C137.632 154.887 139.711 154.803 140.471 156.111C141.07 157.142 140.816 158.365 141.14 159.462C141.291 159.976 142.365 160.002 142.509 159.375C142.705 158.519 142.5 157.357 142.963 156.586C143.56 155.59 145.342 155.299 146.17 156.604C146.412 156.986 146.648 158.217 146.781 159.439C146.76 159.519 146.891 160.023 147.185 160.159C147.74 160.414 148.146 159.813 148.26 159.37C148.352 159.022 148.448 158.656 148.644 158.349C149.422 157.126 150.888 158.041 150.933 159.206C151.025 161.592 151.127 164.253 150.463 166.577C149.561 169.731 146.496 171.543 146.754 175.164C146.817 176.051 145.869 176.196 145.458 175.769C145.129 175.426 144.515 174.762 144.079 174.096C143.352 172.984 142.276 173.093 141.543 174.021C140.894 174.842 140.292 175.759 140.073 175.786C139.588 175.847 134.971 175.829 134.972 175.819C135.067 174.988 133.021 172.621 132.409 172.016C129.225 168.867 127.244 166.978 125.3 162.8ZM144.938 164.321V170.875C144.938 171.822 146.361 171.822 146.361 170.875V164.321C146.361 163.374 144.938 163.374 144.938 164.321ZM141.084 164.32L141.115 170.9C141.119 171.847 142.542 171.841 142.537 170.894L142.507 164.314C142.503 163.366 141.08 163.373 141.084 164.32ZM138.791 170.863L138.751 164.372C138.745 163.425 137.322 163.434 137.328 164.381L137.368 170.872C137.374 171.819 138.797 171.811 138.791 170.863Z" fill="white"/>
<defs>
<filter id="filter0_d_6846_3255" x="121" y="145" width="34" height="36" filterUnits="userSpaceOnUse" color-interpolation-filters="sRGB">
<feFlood flood-opacity="0" result="BackgroundImageFix"/>
<feColorMatrix in="SourceAlpha" type="matrix" values="0 0 0 0 0 0 0 0 0 0 0 0 0 0 0 0 0 0 127 0" result="hardAlpha"/>
<feOffset dy="1"/>
<feGaussianBlur stdDeviation="1"/>
<feColorMatrix type="matrix" values="0 0 0 0 0 0 0 0 0 0 0 0 0 0 0 0 0 0 0.3 0"/>
<feBlend mode="normal" in2="BackgroundImageFix" result="effect1_dropShadow_6846_3255"/>
<feBlend mode="normal" in="SourceGraphic" in2="effect1_dropShadow_6846_3255" result="shape"/>
</filter>
<clipPath id="clip0_6846_3255">
<rect width="16" height="16" fill="white" transform="translate(66 131)"/>
</clipPath>
</defs>
</svg>
