<svg width="278" height="278" viewBox="0 0 278 278" fill="none" xmlns="http://www.w3.org/2000/svg">
<g clip-path="url(#clip0_6808_16288)">
<rect width="278" height="278" rx="16" fill="#F5F5F5"/>
<rect x="38.3958" y="62.3958" width="200.292" height="37.2083" rx="9.10417" fill="white"/>
<rect x="38.3958" y="62.3958" width="200.292" height="37.2083" rx="9.10417" stroke="#E0E0E0" stroke-width="0.791667"/>
<rect x="47.5" y="71.5" width="61.5" height="19.3333" rx="6.33333" fill="#F5CC00" fill-opacity="0.16"/>
<g clip-path="url(#clip1_6808_16288)">
<path d="M59.1855 85.521H57.9799C57.6324 85.521 57.3255 85.2943 57.2233 84.9621L56.1271 81.3996C55.9705 80.8906 56.3511 80.3752 56.8838 80.3752H57.989V79.1878C57.989 78.8598 58.2548 78.594 58.5827 78.594C58.9106 78.594 59.1765 78.8598 59.1765 79.1878V80.3752H60.2817C60.8143 80.3752 61.195 80.8906 61.0383 81.3996L59.9422 84.9621C59.84 85.2943 59.5331 85.521 59.1855 85.521Z" fill="#625200"/>
<path d="M54.8223 77.8022C54.4943 77.8022 54.2285 77.5364 54.2285 77.2085C54.2285 76.8806 54.4943 76.6147 54.8223 76.6147H62.3431C62.671 76.6147 62.9368 76.8806 62.9368 77.2085C62.9368 77.5364 62.671 77.8022 62.3431 77.8022H54.8223Z" fill="#625200"/>
</g>
<path d="M76.0262 77.7577V84.6667H74.9129L71.6574 79.9606H71.6001V84.6667H70.3485V77.7577H71.4685L74.7206 82.4672H74.7813V77.7577H76.0262ZM78.8271 84.7713C78.4987 84.7713 78.203 84.7129 77.9399 84.5959C77.679 84.4767 77.472 84.3013 77.3191 84.0696C77.1684 83.838 77.0931 83.5523 77.0931 83.2127C77.0931 82.9204 77.1471 82.6786 77.255 82.4874C77.363 82.2962 77.5103 82.1433 77.697 82.0286C77.8836 81.9139 78.0939 81.8273 78.3278 81.7688C78.564 81.7081 78.808 81.6643 79.0599 81.6373C79.3635 81.6058 79.6098 81.5777 79.7987 81.5529C79.9876 81.5259 80.1248 81.4855 80.2103 81.4315C80.298 81.3753 80.3418 81.2887 80.3418 81.1717V81.1515C80.3418 80.8973 80.2665 80.7005 80.1158 80.5611C79.9651 80.4217 79.7481 80.3519 79.4647 80.3519C79.1656 80.3519 78.9283 80.4172 78.7529 80.5476C78.5797 80.6781 78.4628 80.8321 78.402 81.0098L77.2618 80.8479C77.3517 80.533 77.5002 80.2698 77.7071 80.0584C77.914 79.8448 78.167 79.6851 78.4661 79.5794C78.7653 79.4714 79.0959 79.4175 79.458 79.4175C79.7076 79.4175 79.9561 79.4467 80.2035 79.5052C80.4509 79.5636 80.677 79.6604 80.8816 79.7953C81.0863 79.928 81.2505 80.109 81.3742 80.3384C81.5001 80.5678 81.5631 80.8546 81.5631 81.1987V84.6667H80.3891V83.9549H80.3486C80.2744 84.0989 80.1698 84.2338 80.0348 84.3598C79.9022 84.4835 79.7346 84.5835 79.5322 84.66C79.332 84.7342 79.097 84.7713 78.8271 84.7713ZM79.1442 83.874C79.3894 83.874 79.6019 83.8256 79.7818 83.7289C79.9618 83.6299 80.1001 83.4995 80.1968 83.3376C80.2957 83.1756 80.3452 82.9991 80.3452 82.8079V82.1973C80.307 82.2288 80.2418 82.258 80.1495 82.285C80.0596 82.312 79.9584 82.3356 79.8459 82.3558C79.7335 82.3761 79.6221 82.3941 79.5119 82.4098C79.4017 82.4256 79.3062 82.4391 79.2252 82.4503C79.043 82.475 78.88 82.5155 78.736 82.5718C78.5921 82.628 78.4785 82.7067 78.3953 82.8079C78.3121 82.9069 78.2705 83.0351 78.2705 83.1925C78.2705 83.4174 78.3526 83.5872 78.5167 83.7019C78.6809 83.8166 78.8901 83.874 79.1442 83.874ZM87.2341 79.4849L85.3887 84.6667H84.0393L82.1939 79.4849H83.4961L84.687 83.3342H84.741L85.9352 79.4849H87.2341ZM88.1331 84.6667V77.7577H89.3544V80.3418H89.405C89.4679 80.2159 89.5568 80.0821 89.6715 79.9404C89.7862 79.7964 89.9414 79.6739 90.137 79.5726C90.3327 79.4692 90.5823 79.4175 90.886 79.4175C91.2863 79.4175 91.6473 79.5198 91.9689 79.7245C92.2927 79.9269 92.5491 80.2271 92.7381 80.6252C92.9292 81.021 93.0248 81.5068 93.0248 82.0826C93.0248 82.6516 92.9315 83.1351 92.7448 83.5332C92.5581 83.9313 92.304 84.2349 91.9824 84.4441C91.6608 84.6533 91.2964 84.7578 90.8893 84.7578C90.5925 84.7578 90.3462 84.7084 90.1505 84.6094C89.9549 84.5104 89.7974 84.3912 89.6782 84.2518C89.5613 84.1101 89.4702 83.9763 89.405 83.8503H89.3341V84.6667H88.1331ZM89.3307 82.0758C89.3307 82.4109 89.378 82.7044 89.4724 82.9563C89.5691 83.2082 89.7075 83.405 89.8874 83.5467C90.0696 83.6862 90.29 83.7559 90.5486 83.7559C90.8185 83.7559 91.0445 83.6839 91.2267 83.54C91.4089 83.3938 91.5461 83.1947 91.6383 82.9428C91.7327 82.6887 91.78 82.3997 91.78 82.0758C91.78 81.7542 91.7339 81.4686 91.6416 81.2189C91.5494 80.9693 91.4122 80.7736 91.2301 80.6319C91.0479 80.4903 90.8207 80.4194 90.5486 80.4194C90.2877 80.4194 90.0662 80.488 89.884 80.6252C89.7018 80.7624 89.5635 80.9547 89.4691 81.2021C89.3768 81.4495 89.3307 81.7407 89.3307 82.0758ZM95.5542 84.7713C95.2258 84.7713 94.93 84.7129 94.6669 84.5959C94.406 84.4767 94.1991 84.3013 94.0462 84.0696C93.8955 83.838 93.8201 83.5523 93.8201 83.2127C93.8201 82.9204 93.8741 82.6786 93.9821 82.4874C94.09 82.2962 94.2373 82.1433 94.424 82.0286C94.6107 81.9139 94.821 81.8273 95.0549 81.7688C95.291 81.7081 95.535 81.6643 95.7869 81.6373C96.0906 81.6058 96.3368 81.5777 96.5257 81.5529C96.7147 81.5259 96.8519 81.4855 96.9373 81.4315C97.025 81.3753 97.0689 81.2887 97.0689 81.1717V81.1515C97.0689 80.8973 96.9935 80.7005 96.8429 80.5611C96.6922 80.4217 96.4751 80.3519 96.1918 80.3519C95.8926 80.3519 95.6554 80.4172 95.4799 80.5476C95.3068 80.6781 95.1898 80.8321 95.1291 81.0098L93.9888 80.8479C94.0788 80.533 94.2272 80.2698 94.4341 80.0584C94.641 79.8448 94.8941 79.6851 95.1932 79.5794C95.4923 79.4714 95.8229 79.4175 96.185 79.4175C96.4347 79.4175 96.6832 79.4467 96.9306 79.5052C97.178 79.5636 97.404 79.6604 97.6087 79.7953C97.8133 79.928 97.9775 80.109 98.1012 80.3384C98.2272 80.5678 98.2901 80.8546 98.2901 81.1987V84.6667H97.1161V83.9549H97.0756C97.0014 84.0989 96.8968 84.2338 96.7619 84.3598C96.6292 84.4835 96.4616 84.5835 96.2592 84.66C96.0591 84.7342 95.824 84.7713 95.5542 84.7713ZM95.8713 83.874C96.1164 83.874 96.329 83.8256 96.5089 83.7289C96.6888 83.6299 96.8271 83.4995 96.9238 83.3376C97.0228 83.1756 97.0723 82.9991 97.0723 82.8079V82.1973C97.034 82.2288 96.9688 82.258 96.8766 82.285C96.7866 82.312 96.6854 82.3356 96.573 82.3558C96.4605 82.3761 96.3492 82.3941 96.239 82.4098C96.1288 82.4256 96.0332 82.4391 95.9522 82.4503C95.7701 82.475 95.607 82.5155 95.4631 82.5718C95.3191 82.628 95.2056 82.7067 95.1223 82.8079C95.0391 82.9069 94.9975 83.0351 94.9975 83.1925C94.9975 83.4174 95.0796 83.5872 95.2438 83.7019C95.408 83.8166 95.6171 83.874 95.8713 83.874ZM99.5181 84.6667V79.4849H100.702V80.3486H100.756C100.851 80.0494 101.013 79.8189 101.242 79.657C101.474 79.4928 101.738 79.4107 102.035 79.4107C102.102 79.4107 102.178 79.4141 102.261 79.4208C102.346 79.4253 102.417 79.4332 102.473 79.4444V80.5678C102.422 80.5499 102.34 80.5341 102.227 80.5206C102.117 80.5049 102.01 80.497 101.907 80.497C101.684 80.497 101.484 80.5454 101.306 80.6421C101.131 80.7365 100.992 80.8681 100.891 81.0368C100.79 81.2055 100.739 81.4 100.739 81.6204V84.6667H99.5181Z" fill="#625200"/>
<path d="M122.725 76.6061V84.6667H121.607L117.51 78.7551H117.435V84.6667H116.219V76.6061H117.344L121.445 82.5256H121.52V76.6061H122.725ZM126.053 84.8006C125.67 84.8006 125.323 84.7297 125.014 84.588C124.704 84.4437 124.459 84.2351 124.278 83.9622C124.099 83.6893 124.01 83.3548 124.01 82.9586C124.01 82.6175 124.076 82.3367 124.207 82.1163C124.338 81.8959 124.515 81.7214 124.738 81.5929C124.961 81.4643 125.21 81.3672 125.486 81.3016C125.761 81.236 126.042 81.1862 126.328 81.152C126.69 81.1101 126.984 81.0759 127.21 81.0497C127.435 81.0208 127.599 80.9749 127.702 80.912C127.804 80.849 127.855 80.7466 127.855 80.605V80.5774C127.855 80.2337 127.758 79.9674 127.564 79.7784C127.372 79.5895 127.086 79.4951 126.706 79.4951C126.31 79.4951 125.998 79.583 125.769 79.7588C125.544 79.9319 125.387 80.1248 125.301 80.3373L124.195 80.0854C124.326 79.7181 124.518 79.4216 124.77 79.1959C125.024 78.9676 125.317 78.8023 125.647 78.7C125.978 78.5951 126.326 78.5426 126.69 78.5426C126.932 78.5426 127.187 78.5714 127.458 78.6292C127.731 78.6843 127.985 78.7866 128.221 78.9362C128.46 79.0857 128.656 79.2996 128.808 79.5777C128.96 79.8532 129.036 80.2114 129.036 80.6522V84.6667H127.887V83.8402H127.84C127.763 83.9924 127.649 84.142 127.497 84.2889C127.345 84.4358 127.149 84.5579 126.911 84.6549C126.672 84.752 126.386 84.8006 126.053 84.8006ZM126.308 83.856C126.634 83.856 126.912 83.7917 127.143 83.6631C127.376 83.5345 127.553 83.3666 127.674 83.1593C127.798 82.9494 127.859 82.7251 127.859 82.4863V81.707C127.817 81.749 127.736 81.7883 127.615 81.8251C127.497 81.8592 127.362 81.8894 127.21 81.9156C127.058 81.9392 126.909 81.9615 126.765 81.9825C126.621 82.0009 126.5 82.0166 126.403 82.0297C126.175 82.0586 125.966 82.1071 125.777 82.1754C125.591 82.2436 125.441 82.342 125.328 82.4705C125.218 82.5965 125.163 82.7644 125.163 82.9743C125.163 83.2656 125.271 83.486 125.486 83.6356C125.701 83.7825 125.975 83.856 126.308 83.856ZM135.448 78.6213L133.256 84.6667H131.996L129.8 78.6213H131.063L132.594 83.2735H132.657L134.184 78.6213H135.448ZM136.537 84.6667V76.6061H137.714V79.6013H137.785C137.853 79.4754 137.952 79.3297 138.08 79.1644C138.209 78.9991 138.387 78.8548 138.616 78.7315C138.844 78.6055 139.146 78.5426 139.521 78.5426C140.009 78.5426 140.444 78.6659 140.828 78.9125C141.211 79.1592 141.511 79.5147 141.729 79.9792C141.949 80.4436 142.059 81.0025 142.059 81.6558C142.059 82.3092 141.951 82.8694 141.733 83.3364C141.515 83.8009 141.216 84.159 140.835 84.4109C140.455 84.6602 140.021 84.7848 139.533 84.7848C139.165 84.7848 138.865 84.7232 138.631 84.5998C138.4 84.4765 138.219 84.3322 138.088 84.1669C137.957 84.0016 137.856 83.8547 137.785 83.7261H137.687V84.6667H136.537ZM137.691 81.644C137.691 82.0691 137.752 82.4417 137.876 82.7618C137.999 83.0819 138.177 83.3325 138.411 83.5135C138.644 83.692 138.93 83.7812 139.269 83.7812C139.621 83.7812 139.914 83.688 140.151 83.5017C140.387 83.3128 140.565 83.057 140.686 82.7342C140.809 82.4115 140.871 82.0481 140.871 81.644C140.871 81.2452 140.81 80.887 140.69 80.5695C140.572 80.252 140.393 80.0015 140.154 79.8178C139.918 79.6341 139.623 79.5423 139.269 79.5423C138.928 79.5423 138.639 79.6302 138.403 79.806C138.17 79.9818 137.992 80.2271 137.872 80.542C137.751 80.8569 137.691 81.2242 137.691 81.644ZM145.029 84.8006C144.646 84.8006 144.3 84.7297 143.99 84.588C143.681 84.4437 143.435 84.2351 143.254 83.9622C143.076 83.6893 142.987 83.3548 142.987 82.9586C142.987 82.6175 143.052 82.3367 143.183 82.1163C143.315 81.8959 143.492 81.7214 143.715 81.5929C143.938 81.4643 144.187 81.3672 144.463 81.3016C144.738 81.236 145.019 81.1862 145.305 81.152C145.667 81.1101 145.961 81.0759 146.187 81.0497C146.412 81.0208 146.576 80.9749 146.678 80.912C146.781 80.849 146.832 80.7466 146.832 80.605V80.5774C146.832 80.2337 146.735 79.9674 146.541 79.7784C146.349 79.5895 146.063 79.4951 145.683 79.4951C145.287 79.4951 144.974 79.583 144.746 79.7588C144.52 79.9319 144.364 80.1248 144.278 80.3373L143.172 80.0854C143.303 79.7181 143.494 79.4216 143.746 79.1959C144.001 78.9676 144.293 78.8023 144.624 78.7C144.955 78.5951 145.302 78.5426 145.667 78.5426C145.908 78.5426 146.164 78.5714 146.434 78.6292C146.707 78.6843 146.962 78.7866 147.198 78.9362C147.437 79.0857 147.632 79.2996 147.784 79.5777C147.937 79.8532 148.013 80.2114 148.013 80.6522V84.6667H146.863V83.8402H146.816C146.74 83.9924 146.626 84.142 146.474 84.2889C146.322 84.4358 146.126 84.5579 145.887 84.6549C145.649 84.752 145.363 84.8006 145.029 84.8006ZM145.285 83.856C145.611 83.856 145.889 83.7917 146.12 83.6631C146.353 83.5345 146.53 83.3666 146.651 83.1593C146.774 82.9494 146.836 82.7251 146.836 82.4863V81.707C146.794 81.749 146.713 81.7883 146.592 81.8251C146.474 81.8592 146.339 81.8894 146.187 81.9156C146.034 81.9392 145.886 81.9615 145.742 81.9825C145.597 82.0009 145.477 82.0166 145.38 82.0297C145.151 82.0586 144.943 82.1071 144.754 82.1754C144.568 82.2436 144.418 82.342 144.305 82.4705C144.195 82.5965 144.14 82.7644 144.14 82.9743C144.14 83.2656 144.247 83.486 144.463 83.6356C144.678 83.7825 144.952 83.856 145.285 83.856ZM149.469 84.6667V78.6213H150.607V79.5816H150.67C150.78 79.2563 150.974 79.0004 151.252 78.8141C151.533 78.6252 151.851 78.5308 152.205 78.5308C152.278 78.5308 152.365 78.5334 152.465 78.5386C152.567 78.5439 152.647 78.5504 152.705 78.5583V79.684C152.657 79.6709 152.573 79.6564 152.453 79.6407C152.332 79.6223 152.211 79.6131 152.091 79.6131C151.813 79.6131 151.565 79.6722 151.347 79.7902C151.132 79.9057 150.961 80.0671 150.835 80.2743C150.709 80.479 150.646 80.7125 150.646 80.9749V84.6667H149.469ZM156.435 84.6667V78.6213H157.611V84.6667H156.435ZM157.029 77.6885C156.824 77.6885 156.648 77.6203 156.501 77.4838C156.357 77.3448 156.285 77.1795 156.285 76.9879C156.285 76.7937 156.357 76.6284 156.501 76.492C156.648 76.3529 156.824 76.2834 157.029 76.2834C157.234 76.2834 157.408 76.3529 157.552 76.492C157.699 76.6284 157.773 76.7937 157.773 76.9879C157.773 77.1795 157.699 77.3448 157.552 77.4838C157.408 77.6203 157.234 77.6885 157.029 77.6885ZM163.614 80.0972L162.547 80.2862C162.503 80.1497 162.432 80.0198 162.335 79.8965C162.24 79.7732 162.112 79.6722 161.949 79.5934C161.786 79.5147 161.583 79.4754 161.339 79.4754C161.006 79.4754 160.728 79.5502 160.505 79.6997C160.282 79.8467 160.17 80.0369 160.17 80.2704C160.17 80.4725 160.245 80.6351 160.394 80.7585C160.544 80.8818 160.785 80.9828 161.119 81.0615L162.079 81.2819C162.635 81.4105 163.05 81.6086 163.323 81.8762C163.596 82.1439 163.732 82.4915 163.732 82.9192C163.732 83.2813 163.627 83.6041 163.417 83.8875C163.21 84.1682 162.92 84.3886 162.547 84.5487C162.177 84.7087 161.748 84.7888 161.26 84.7888C160.583 84.7888 160.031 84.6444 159.603 84.3558C159.176 84.0646 158.913 83.6513 158.816 83.116L159.954 82.9428C160.024 83.2393 160.17 83.4637 160.39 83.6159C160.611 83.7654 160.898 83.8402 161.252 83.8402C161.638 83.8402 161.946 83.7602 162.177 83.6001C162.408 83.4375 162.524 83.2393 162.524 83.0058C162.524 82.8169 162.453 82.6582 162.311 82.5296C162.172 82.401 161.958 82.3039 161.67 82.2383L160.646 82.014C160.082 81.8854 159.665 81.6808 159.395 81.4C159.127 81.1192 158.993 80.7637 158.993 80.3334C158.993 79.9765 159.093 79.6643 159.292 79.3967C159.492 79.129 159.767 78.9204 160.119 78.7709C160.47 78.6187 160.873 78.5426 161.327 78.5426C161.98 78.5426 162.495 78.6843 162.87 78.9676C163.245 79.2484 163.493 79.6249 163.614 80.0972Z" fill="#999999"/>
<path d="M172.233 84.7415C172.018 84.7415 171.833 84.6654 171.679 84.5133C171.524 84.3584 171.446 84.1721 171.446 83.9544C171.446 83.7392 171.524 83.5555 171.679 83.4033C171.833 83.2485 172.018 83.1711 172.233 83.1711C172.449 83.1711 172.634 83.2485 172.788 83.4033C172.943 83.5555 173.021 83.7392 173.021 83.9544C173.021 84.0987 172.984 84.2312 172.91 84.3519C172.84 84.47 172.745 84.5644 172.627 84.6353C172.509 84.7061 172.378 84.7415 172.233 84.7415ZM175.261 84.7415C175.046 84.7415 174.861 84.6654 174.707 84.5133C174.552 84.3584 174.474 84.1721 174.474 83.9544C174.474 83.7392 174.552 83.5555 174.707 83.4033C174.861 83.2485 175.046 83.1711 175.261 83.1711C175.477 83.1711 175.662 83.2485 175.816 83.4033C175.971 83.5555 176.049 83.7392 176.049 83.9544C176.049 84.0987 176.012 84.2312 175.938 84.3519C175.868 84.47 175.773 84.5644 175.655 84.6353C175.537 84.7061 175.406 84.7415 175.261 84.7415ZM178.289 84.7415C178.074 84.7415 177.889 84.6654 177.735 84.5133C177.58 84.3584 177.502 84.1721 177.502 83.9544C177.502 83.7392 177.58 83.5555 177.735 83.4033C177.889 83.2485 178.074 83.1711 178.289 83.1711C178.505 83.1711 178.69 83.2485 178.844 83.4033C178.999 83.5555 179.077 83.7392 179.077 83.9544C179.077 84.0987 179.04 84.2312 178.966 84.3519C178.896 84.47 178.801 84.5644 178.683 84.6353C178.565 84.7061 178.434 84.7415 178.289 84.7415Z" fill="#999999"/>
<rect x="38.3958" y="110.396" width="200.292" height="37.2083" rx="9.10417" fill="white"/>
<rect x="38.3958" y="110.396" width="200.292" height="37.2083" rx="9.10417" stroke="#E0E0E0" stroke-width="0.791667"/>
<rect x="44.333" y="119.333" width="35.6667" height="19.3333" rx="6.33333" fill="#9B70FF" fill-opacity="0.16"/>
<path d="M51.3475 132.5V125.591H52.5991V128.516H55.8006V125.591H57.0556V132.5H55.8006V129.565H52.5991V132.5H51.3475ZM60.6569 132.601C60.1373 132.601 59.6887 132.493 59.3108 132.277C58.9352 132.059 58.6462 131.751 58.4438 131.353C58.2414 130.953 58.1402 130.481 58.1402 129.939C58.1402 129.406 58.2414 128.939 58.4438 128.536C58.6485 128.131 58.9341 127.816 59.3007 127.591C59.6673 127.364 60.098 127.251 60.5928 127.251C60.9121 127.251 61.2135 127.302 61.4969 127.406C61.7825 127.507 62.0344 127.665 62.2526 127.878C62.473 128.092 62.6462 128.364 62.7721 128.695C62.8981 129.023 62.961 129.414 62.961 129.869V130.243H58.7137V129.42H61.7904C61.7881 129.186 61.7375 128.978 61.6386 128.796C61.5396 128.611 61.4013 128.466 61.2236 128.361C61.0482 128.255 60.8435 128.202 60.6096 128.202C60.36 128.202 60.1407 128.263 59.9518 128.384C59.7629 128.503 59.6156 128.661 59.5099 128.857C59.4064 129.05 59.3535 129.262 59.3513 129.494V130.213C59.3513 130.514 59.4064 130.773 59.5166 130.989C59.6268 131.202 59.7809 131.366 59.9788 131.481C60.1767 131.594 60.4084 131.65 60.6737 131.65C60.8514 131.65 61.0122 131.625 61.1562 131.576C61.3001 131.524 61.4249 131.449 61.5306 131.35C61.6363 131.251 61.7162 131.128 61.7702 130.982L62.9104 131.11C62.8385 131.411 62.7013 131.675 62.4988 131.9C62.2987 132.122 62.0423 132.295 61.7297 132.419C61.4171 132.54 61.0595 132.601 60.6569 132.601ZM63.9942 132.5V127.318H65.1783V128.182H65.2323C65.3267 127.883 65.4887 127.652 65.7181 127.49C65.9497 127.326 66.214 127.244 66.5109 127.244C66.5783 127.244 66.6537 127.247 66.7369 127.254C66.8224 127.259 66.8932 127.266 66.9494 127.278V128.401C66.8977 128.383 66.8156 128.367 66.7032 128.354C66.593 128.338 66.4861 128.33 66.3827 128.33C66.16 128.33 65.9599 128.379 65.7822 128.475C65.6068 128.57 65.4684 128.701 65.3672 128.87C65.266 129.039 65.2154 129.233 65.2154 129.454V132.5H63.9942ZM69.8077 132.601C69.3017 132.601 68.8631 132.49 68.492 132.267C68.1209 132.045 67.833 131.733 67.6284 131.333C67.426 130.932 67.3248 130.465 67.3248 129.929C67.3248 129.394 67.426 128.925 67.6284 128.523C67.833 128.12 68.1209 127.807 68.492 127.585C68.8631 127.362 69.3017 127.251 69.8077 127.251C70.3137 127.251 70.7523 127.362 71.1234 127.585C71.4945 127.807 71.7813 128.12 71.9837 128.523C72.1883 128.925 72.2907 129.394 72.2907 129.929C72.2907 130.465 72.1883 130.932 71.9837 131.333C71.7813 131.733 71.4945 132.045 71.1234 132.267C70.7523 132.49 70.3137 132.601 69.8077 132.601ZM69.8145 131.623C70.0888 131.623 70.3182 131.548 70.5027 131.397C70.6871 131.244 70.8243 131.039 70.9142 130.783C71.0065 130.526 71.0526 130.241 71.0526 129.926C71.0526 129.609 71.0065 129.322 70.9142 129.066C70.8243 128.807 70.6871 128.601 70.5027 128.448C70.3182 128.295 70.0888 128.219 69.8145 128.219C69.5333 128.219 69.2994 128.295 69.1127 128.448C68.9283 128.601 68.79 128.807 68.6978 129.066C68.6078 129.322 68.5629 129.609 68.5629 129.926C68.5629 130.241 68.6078 130.526 68.6978 130.783C68.79 131.039 68.9283 131.244 69.1127 131.397C69.2994 131.548 69.5333 131.623 69.8145 131.623Z" fill="#352666"/>
<path d="M87.8995 132.5H86.6085L89.5092 124.439H90.9143L93.815 132.5H92.5241L90.2452 125.904H90.1823L87.8995 132.5ZM88.1159 129.343H92.3037V130.367H88.1159V129.343ZM94.8682 132.5V124.439H96.0451V127.435H96.1159C96.1841 127.309 96.2825 127.163 96.4111 126.998C96.5397 126.832 96.7181 126.688 96.9464 126.565C97.1746 126.439 97.4764 126.376 97.8516 126.376C98.3397 126.376 98.7752 126.499 99.1583 126.746C99.5414 126.992 99.8418 127.348 100.06 127.812C100.28 128.277 100.39 128.836 100.39 129.489C100.39 130.142 100.281 130.703 100.064 131.17C99.8458 131.634 99.5466 131.992 99.1662 132.244C98.7857 132.493 98.3515 132.618 97.8634 132.618C97.4961 132.618 97.1956 132.556 96.9621 132.433C96.7312 132.31 96.5502 132.165 96.419 132C96.2878 131.835 96.1867 131.688 96.1159 131.559H96.0175V132.5H94.8682ZM96.0214 129.477C96.0214 129.902 96.0831 130.275 96.2064 130.595C96.3297 130.915 96.5082 131.166 96.7417 131.347C96.9752 131.525 97.2612 131.614 97.5997 131.614C97.9513 131.614 98.2452 131.521 98.4813 131.335C98.7175 131.146 98.8959 130.89 99.0166 130.568C99.1399 130.245 99.2016 129.881 99.2016 129.477C99.2016 129.078 99.1413 128.72 99.0206 128.403C98.9025 128.085 98.7241 127.835 98.4853 127.651C98.2491 127.467 97.9539 127.376 97.5997 127.376C97.2586 127.376 96.97 127.463 96.7338 127.639C96.5003 127.815 96.3232 128.06 96.2025 128.375C96.0818 128.69 96.0214 129.057 96.0214 129.477ZM104.147 132.622C103.581 132.622 103.086 132.492 102.664 132.232C102.241 131.973 101.913 131.609 101.68 131.142C101.446 130.675 101.329 130.129 101.329 129.505C101.329 128.878 101.446 128.329 101.68 127.86C101.913 127.39 102.241 127.025 102.664 126.765C103.086 126.506 103.581 126.376 104.147 126.376C104.714 126.376 105.209 126.506 105.631 126.765C106.054 127.025 106.382 127.39 106.615 127.86C106.849 128.329 106.965 128.878 106.965 129.505C106.965 130.129 106.849 130.675 106.615 131.142C106.382 131.609 106.054 131.973 105.631 132.232C105.209 132.492 104.714 132.622 104.147 132.622ZM104.151 131.634C104.519 131.634 104.823 131.537 105.064 131.343C105.306 131.149 105.484 130.89 105.6 130.568C105.718 130.245 105.777 129.889 105.777 129.501C105.777 129.115 105.718 128.761 105.6 128.438C105.484 128.113 105.306 127.852 105.064 127.655C104.823 127.458 104.519 127.36 104.151 127.36C103.781 127.36 103.474 127.458 103.23 127.655C102.989 127.852 102.809 128.113 102.691 128.438C102.576 128.761 102.518 129.115 102.518 129.501C102.518 129.889 102.576 130.245 102.691 130.568C102.809 130.89 102.989 131.149 103.23 131.343C103.474 131.537 103.781 131.634 104.151 131.634ZM111.998 129.993V126.455H113.178V132.5H112.021V131.453H111.958C111.819 131.776 111.596 132.045 111.289 132.26C110.985 132.472 110.606 132.579 110.152 132.579C109.763 132.579 109.42 132.493 109.121 132.323C108.824 132.15 108.591 131.894 108.42 131.555C108.252 131.217 108.168 130.798 108.168 130.3V126.455H109.345V130.158C109.345 130.57 109.459 130.898 109.687 131.142C109.916 131.386 110.212 131.508 110.577 131.508C110.797 131.508 111.016 131.453 111.234 131.343C111.455 131.233 111.637 131.066 111.781 130.843C111.928 130.62 112 130.337 111.998 129.993ZM117.471 126.455V127.399H114.169V126.455H117.471ZM115.054 125.006H116.231V130.725C116.231 130.953 116.265 131.125 116.333 131.241C116.402 131.353 116.49 131.431 116.597 131.473C116.707 131.512 116.827 131.532 116.955 131.532C117.05 131.532 117.132 131.525 117.203 131.512C117.274 131.499 117.329 131.488 117.369 131.481L117.581 132.453C117.513 132.479 117.416 132.505 117.29 132.531C117.164 132.56 117.006 132.576 116.818 132.579C116.508 132.584 116.219 132.529 115.952 132.413C115.684 132.298 115.468 132.12 115.302 131.878C115.137 131.637 115.054 131.334 115.054 130.969V125.006ZM124.306 126.455V127.399H121.004V126.455H124.306ZM121.89 125.006H123.066V130.725C123.066 130.953 123.1 131.125 123.169 131.241C123.237 131.353 123.325 131.431 123.432 131.473C123.543 131.512 123.662 131.532 123.791 131.532C123.885 131.532 123.968 131.525 124.039 131.512C124.109 131.499 124.164 131.488 124.204 131.481L124.416 132.453C124.348 132.479 124.251 132.505 124.125 132.531C123.999 132.56 123.842 132.576 123.653 132.579C123.343 132.584 123.055 132.529 122.787 132.413C122.519 132.298 122.303 132.12 122.138 131.878C121.972 131.637 121.89 131.334 121.89 130.969V125.006ZM126.804 128.911V132.5H125.627V124.439H126.788V127.439H126.863C127.005 127.113 127.221 126.855 127.512 126.663C127.804 126.472 128.184 126.376 128.654 126.376C129.068 126.376 129.43 126.461 129.74 126.632C130.052 126.802 130.294 127.057 130.464 127.395C130.637 127.731 130.724 128.151 130.724 128.655V132.5H129.547V128.796C129.547 128.353 129.433 128.009 129.205 127.765C128.976 127.519 128.659 127.395 128.252 127.395C127.974 127.395 127.725 127.454 127.504 127.572C127.287 127.69 127.115 127.864 126.989 128.092C126.865 128.318 126.804 128.59 126.804 128.911ZM134.789 132.622C134.193 132.622 133.68 132.495 133.25 132.24C132.822 131.983 132.492 131.622 132.258 131.158C132.027 130.691 131.912 130.144 131.912 129.517C131.912 128.897 132.027 128.352 132.258 127.879C132.492 127.407 132.817 127.038 133.234 126.773C133.654 126.508 134.145 126.376 134.706 126.376C135.047 126.376 135.378 126.432 135.698 126.545C136.018 126.658 136.306 126.835 136.56 127.076C136.815 127.318 137.015 127.631 137.162 128.017C137.309 128.4 137.383 128.866 137.383 129.414V129.831H132.577V128.95H136.23C136.23 128.64 136.167 128.366 136.041 128.127C135.915 127.886 135.738 127.696 135.509 127.557C135.284 127.418 135.019 127.348 134.714 127.348C134.384 127.348 134.095 127.429 133.848 127.592C133.604 127.752 133.415 127.962 133.282 128.222C133.15 128.479 133.085 128.758 133.085 129.06V129.749C133.085 130.153 133.156 130.497 133.297 130.78C133.442 131.063 133.642 131.28 133.9 131.429C134.157 131.576 134.457 131.65 134.801 131.65C135.024 131.65 135.227 131.618 135.411 131.555C135.595 131.49 135.753 131.393 135.887 131.264C136.021 131.136 136.123 130.977 136.194 130.788L137.308 130.989C137.219 131.317 137.059 131.604 136.828 131.851C136.6 132.095 136.312 132.285 135.966 132.421C135.622 132.555 135.23 132.622 134.789 132.622ZM143.946 132.622C143.361 132.622 142.858 132.49 142.435 132.224C142.015 131.957 141.693 131.588 141.467 131.119C141.241 130.649 141.128 130.111 141.128 129.505C141.128 128.891 141.244 128.349 141.475 127.879C141.706 127.407 142.031 127.038 142.451 126.773C142.871 126.508 143.365 126.376 143.935 126.376C144.394 126.376 144.803 126.461 145.163 126.632C145.522 126.8 145.812 127.036 146.032 127.34C146.255 127.644 146.388 128 146.43 128.407H145.285C145.222 128.123 145.077 127.879 144.852 127.675C144.629 127.47 144.33 127.368 143.954 127.368C143.626 127.368 143.339 127.454 143.092 127.627C142.848 127.798 142.658 128.042 142.522 128.359C142.385 128.674 142.317 129.047 142.317 129.477C142.317 129.918 142.384 130.299 142.518 130.619C142.652 130.939 142.84 131.187 143.085 131.363C143.331 131.538 143.621 131.626 143.954 131.626C144.177 131.626 144.379 131.586 144.56 131.504C144.744 131.42 144.898 131.301 145.021 131.146C145.147 130.991 145.235 130.805 145.285 130.587H146.43C146.388 130.978 146.261 131.327 146.048 131.634C145.836 131.941 145.551 132.183 145.194 132.358C144.84 132.534 144.424 132.622 143.946 132.622ZM150.124 132.622C149.557 132.622 149.063 132.492 148.64 132.232C148.218 131.973 147.89 131.609 147.656 131.142C147.423 130.675 147.306 130.129 147.306 129.505C147.306 128.878 147.423 128.329 147.656 127.86C147.89 127.39 148.218 127.025 148.64 126.765C149.063 126.506 149.557 126.376 150.124 126.376C150.691 126.376 151.185 126.506 151.608 126.765C152.03 127.025 152.358 127.39 152.592 127.86C152.825 128.329 152.942 128.878 152.942 129.505C152.942 130.129 152.825 130.675 152.592 131.142C152.358 131.609 152.03 131.973 151.608 132.232C151.185 132.492 150.691 132.622 150.124 132.622ZM150.128 131.634C150.495 131.634 150.8 131.537 151.041 131.343C151.283 131.149 151.461 130.89 151.576 130.568C151.695 130.245 151.754 129.889 151.754 129.501C151.754 129.115 151.695 128.761 151.576 128.438C151.461 128.113 151.283 127.852 151.041 127.655C150.8 127.458 150.495 127.36 150.128 127.36C149.758 127.36 149.451 127.458 149.207 127.655C148.966 127.852 148.786 128.113 148.668 128.438C148.552 128.761 148.495 129.115 148.495 129.501C148.495 129.889 148.552 130.245 148.668 130.568C148.786 130.89 148.966 131.149 149.207 131.343C149.451 131.537 149.758 131.634 150.128 131.634ZM154.145 132.5V126.455H155.275V127.439H155.349C155.475 127.105 155.681 126.846 155.967 126.659C156.253 126.47 156.596 126.376 156.994 126.376C157.399 126.376 157.737 126.47 158.01 126.659C158.285 126.848 158.489 127.108 158.62 127.439H158.683C158.827 127.116 159.057 126.859 159.372 126.667C159.687 126.473 160.062 126.376 160.497 126.376C161.046 126.376 161.493 126.548 161.84 126.891C162.188 127.235 162.363 127.753 162.363 128.446V132.5H161.186V128.556C161.186 128.147 161.075 127.85 160.852 127.667C160.629 127.483 160.362 127.391 160.053 127.391C159.67 127.391 159.372 127.509 159.159 127.746C158.947 127.979 158.84 128.279 158.84 128.647V132.5H157.668V128.482C157.668 128.154 157.565 127.89 157.361 127.69C157.156 127.491 156.89 127.391 156.562 127.391C156.339 127.391 156.133 127.45 155.944 127.568C155.757 127.684 155.606 127.845 155.491 128.052C155.378 128.26 155.322 128.5 155.322 128.773V132.5H154.145Z" fill="#999999"/>
<path d="M171.232 132.575C171.017 132.575 170.832 132.499 170.678 132.347C170.523 132.192 170.445 132.005 170.445 131.788C170.445 131.572 170.523 131.389 170.678 131.237C170.832 131.082 171.017 131.004 171.232 131.004C171.448 131.004 171.633 131.082 171.787 131.237C171.942 131.389 172.02 131.572 172.02 131.788C172.02 131.932 171.983 132.064 171.909 132.185C171.839 132.303 171.744 132.398 171.626 132.469C171.508 132.539 171.377 132.575 171.232 132.575ZM174.26 132.575C174.045 132.575 173.86 132.499 173.706 132.347C173.551 132.192 173.473 132.005 173.473 131.788C173.473 131.572 173.551 131.389 173.706 131.237C173.86 131.082 174.045 131.004 174.26 131.004C174.476 131.004 174.661 131.082 174.815 131.237C174.97 131.389 175.048 131.572 175.048 131.788C175.048 131.932 175.011 132.064 174.937 132.185C174.867 132.303 174.772 132.398 174.654 132.469C174.536 132.539 174.405 132.575 174.26 132.575ZM177.288 132.575C177.073 132.575 176.888 132.499 176.734 132.347C176.579 132.192 176.501 132.005 176.501 131.788C176.501 131.572 176.579 131.389 176.734 131.237C176.888 131.082 177.073 131.004 177.288 131.004C177.504 131.004 177.689 131.082 177.843 131.237C177.998 131.389 178.076 131.572 178.076 131.788C178.076 131.932 178.039 132.064 177.965 132.185C177.895 132.303 177.8 132.398 177.682 132.469C177.564 132.539 177.433 132.575 177.288 132.575Z" fill="#999999"/>
<rect x="38.3958" y="158.396" width="200.292" height="37.2083" rx="9.10417" fill="white"/>
<rect x="38.3958" y="158.396" width="200.292" height="37.2083" rx="9.10417" stroke="#E0E0E0" stroke-width="0.791667"/>
<rect x="44.333" y="167.333" width="57.6667" height="19.3333" rx="6.33333" fill="#FF99FF" fill-opacity="0.16"/>
<path d="M57.5211 177.045C57.5211 177.79 57.3817 178.427 57.1028 178.958C56.8262 179.487 56.4483 179.892 55.9693 180.173C55.4925 180.454 54.9516 180.594 54.3466 180.594C53.7416 180.594 53.1996 180.454 52.7205 180.173C52.2437 179.889 51.8659 179.483 51.587 178.955C51.3104 178.424 51.1721 177.788 51.1721 177.045C51.1721 176.301 51.3104 175.665 51.587 175.136C51.8659 174.605 52.2437 174.199 52.7205 173.918C53.1996 173.637 53.7416 173.496 54.3466 173.496C54.9516 173.496 55.4925 173.637 55.9693 173.918C56.4483 174.199 56.8262 174.605 57.1028 175.136C57.3817 175.665 57.5211 176.301 57.5211 177.045ZM56.2628 177.045C56.2628 176.521 56.1807 176.079 56.0165 175.72C55.8546 175.358 55.6297 175.084 55.3418 174.9C55.0539 174.713 54.7222 174.62 54.3466 174.62C53.971 174.62 53.6393 174.713 53.3514 174.9C53.0635 175.084 52.8375 175.358 52.6733 175.72C52.5114 176.079 52.4304 176.521 52.4304 177.045C52.4304 177.569 52.5114 178.013 52.6733 178.375C52.8375 178.734 53.0635 179.008 53.3514 179.194C53.6393 179.379 53.971 179.471 54.3466 179.471C54.7222 179.471 55.0539 179.379 55.3418 179.194C55.6297 179.008 55.8546 178.734 56.0165 178.375C56.1807 178.013 56.2628 177.569 56.2628 177.045ZM61.9532 178.321V175.318H63.1744V180.5H61.9903V179.579H61.9363C61.8194 179.869 61.6271 180.106 61.3594 180.291C61.094 180.475 60.7668 180.567 60.3777 180.567C60.0381 180.567 59.7379 180.492 59.477 180.341C59.2183 180.189 59.0159 179.967 58.8697 179.677C58.7235 179.384 58.6504 179.031 58.6504 178.618V175.318H59.8717V178.429C59.8717 178.757 59.9616 179.018 60.1416 179.211C60.3215 179.405 60.5576 179.501 60.85 179.501C61.0299 179.501 61.2042 179.458 61.3729 179.37C61.5416 179.282 61.6799 179.152 61.7879 178.979C61.8981 178.803 61.9532 178.584 61.9532 178.321ZM64.4302 180.5V175.318H65.6143V176.182H65.6683C65.7628 175.883 65.9247 175.652 66.1541 175.49C66.3858 175.326 66.65 175.244 66.9469 175.244C67.0144 175.244 67.0897 175.247 67.1729 175.254C67.2584 175.259 67.3292 175.266 67.3855 175.278V176.401C67.3337 176.383 67.2517 176.367 67.1392 176.354C67.029 176.338 66.9222 176.33 66.8187 176.33C66.5961 176.33 66.3959 176.379 66.2182 176.475C66.0428 176.57 65.9045 176.701 65.8033 176.87C65.7021 177.039 65.6515 177.233 65.6515 177.454V180.5H64.4302ZM70.3036 174.64V173.591H75.8161V174.64H73.6806V180.5H72.4391V174.64H70.3036ZM78.3673 180.601C77.8478 180.601 77.3991 180.493 77.0213 180.277C76.6457 180.059 76.3567 179.751 76.1543 179.353C75.9518 178.953 75.8506 178.481 75.8506 177.939C75.8506 177.406 75.9518 176.939 76.1543 176.536C76.3589 176.131 76.6445 175.816 77.0111 175.591C77.3777 175.364 77.8084 175.251 78.3032 175.251C78.6226 175.251 78.924 175.302 79.2073 175.406C79.493 175.507 79.7449 175.665 79.963 175.878C80.1834 176.092 80.3566 176.364 80.4826 176.695C80.6085 177.023 80.6715 177.414 80.6715 177.869V178.243H76.4241V177.42H79.5008C79.4986 177.186 79.448 176.978 79.349 176.796C79.2501 176.611 79.1118 176.466 78.9341 176.361C78.7587 176.255 78.554 176.202 78.3201 176.202C78.0704 176.202 77.8512 176.263 77.6622 176.384C77.4733 176.503 77.326 176.661 77.2203 176.857C77.1168 177.05 77.064 177.262 77.0617 177.494V178.213C77.0617 178.514 77.1168 178.773 77.2271 178.989C77.3373 179.202 77.4913 179.366 77.6892 179.481C77.8871 179.594 78.1188 179.65 78.3842 179.65C78.5619 179.65 78.7227 179.625 78.8666 179.576C79.0105 179.524 79.1354 179.449 79.2411 179.35C79.3468 179.251 79.4266 179.128 79.4806 178.982L80.6209 179.11C80.5489 179.411 80.4117 179.675 80.2093 179.9C80.0091 180.122 79.7527 180.295 79.4401 180.419C79.1275 180.54 78.7699 180.601 78.3673 180.601ZM83.1958 180.605C82.8674 180.605 82.5716 180.546 82.3085 180.429C82.0476 180.31 81.8407 180.135 81.6878 179.903C81.5371 179.671 81.4617 179.386 81.4617 179.046C81.4617 178.754 81.5157 178.512 81.6237 178.321C81.7316 178.129 81.8789 177.977 82.0656 177.862C82.2523 177.747 82.4626 177.661 82.6965 177.602C82.9326 177.541 83.1766 177.498 83.4285 177.471C83.7322 177.439 83.9784 177.411 84.1673 177.386C84.3563 177.359 84.4935 177.319 84.5789 177.265C84.6666 177.209 84.7105 177.122 84.7105 177.005V176.985C84.7105 176.731 84.6352 176.534 84.4845 176.394C84.3338 176.255 84.1167 176.185 83.8334 176.185C83.5342 176.185 83.297 176.25 83.1215 176.381C82.9484 176.511 82.8314 176.665 82.7707 176.843L81.6304 176.681C81.7204 176.366 81.8688 176.103 82.0757 175.892C82.2826 175.678 82.5357 175.518 82.8348 175.413C83.1339 175.305 83.4645 175.251 83.8266 175.251C84.0763 175.251 84.3248 175.28 84.5722 175.338C84.8196 175.397 85.0456 175.494 85.2503 175.629C85.4549 175.761 85.6191 175.942 85.7428 176.172C85.8688 176.401 85.9317 176.688 85.9317 177.032V180.5H84.7577V179.788H84.7172C84.643 179.932 84.5384 180.067 84.4035 180.193C84.2708 180.317 84.1032 180.417 83.9008 180.493C83.7007 180.567 83.4656 180.605 83.1958 180.605ZM83.5129 179.707C83.758 179.707 83.9706 179.659 84.1505 179.562C84.3304 179.463 84.4687 179.333 84.5654 179.171C84.6644 179.009 84.7139 178.832 84.7139 178.641V178.031C84.6756 178.062 84.6104 178.091 84.5182 178.118C84.4282 178.145 84.327 178.169 84.2146 178.189C84.1021 178.209 83.9908 178.227 83.8806 178.243C83.7704 178.259 83.6748 178.272 83.5938 178.284C83.4117 178.308 83.2486 178.349 83.1047 178.405C82.9607 178.461 82.8472 178.54 82.7639 178.641C82.6807 178.74 82.6391 178.868 82.6391 179.026C82.6391 179.251 82.7212 179.42 82.8854 179.535C83.0496 179.65 83.2587 179.707 83.5129 179.707ZM87.1597 180.5V175.318H88.327V176.199H88.3877C88.4956 175.902 88.6744 175.67 88.9241 175.504C89.1737 175.335 89.4717 175.251 89.8181 175.251C90.1689 175.251 90.4647 175.336 90.7053 175.507C90.9482 175.676 91.1192 175.906 91.2181 176.199H91.2721C91.3868 175.911 91.5802 175.681 91.8524 175.51C92.1267 175.337 92.4517 175.251 92.8273 175.251C93.3041 175.251 93.6932 175.401 93.9946 175.703C94.296 176.004 94.4466 176.444 94.4466 177.022V180.5H93.222V177.211C93.222 176.889 93.1366 176.654 92.9656 176.506C92.7947 176.355 92.5856 176.28 92.3382 176.28C92.0435 176.28 91.813 176.372 91.6466 176.556C91.4824 176.738 91.4003 176.976 91.4003 177.268V180.5H90.2027V177.16C90.2027 176.893 90.1217 176.679 89.9598 176.519C89.8001 176.359 89.5909 176.28 89.3323 176.28C89.1569 176.28 88.9972 176.325 88.8532 176.415C88.7093 176.502 88.5946 176.627 88.5091 176.789C88.4237 176.949 88.3809 177.135 88.3809 177.349V180.5H87.1597Z" fill="#663D66"/>
<path d="M109.219 180.5V172.439H112.092C112.719 172.439 113.238 172.554 113.65 172.782C114.062 173.01 114.371 173.322 114.575 173.719C114.78 174.112 114.882 174.556 114.882 175.049C114.882 175.545 114.779 175.991 114.571 176.387C114.367 176.781 114.057 177.093 113.642 177.324C113.231 177.552 112.712 177.666 112.088 177.666H110.112V176.635H111.978C112.374 176.635 112.695 176.567 112.942 176.43C113.189 176.291 113.37 176.102 113.485 175.864C113.6 175.625 113.658 175.353 113.658 175.049C113.658 174.744 113.6 174.474 113.485 174.238C113.37 174.002 113.187 173.817 112.938 173.683C112.691 173.549 112.366 173.482 111.962 173.482H110.435V180.5H109.219ZM118.632 180.622C118.037 180.622 117.524 180.495 117.094 180.24C116.666 179.983 116.335 179.622 116.102 179.158C115.871 178.691 115.755 178.144 115.755 177.517C115.755 176.897 115.871 176.352 116.102 175.879C116.335 175.407 116.661 175.038 117.078 174.773C117.498 174.508 117.988 174.376 118.55 174.376C118.891 174.376 119.222 174.432 119.542 174.545C119.862 174.658 120.149 174.835 120.404 175.076C120.658 175.318 120.859 175.631 121.006 176.017C121.153 176.4 121.226 176.866 121.226 177.414V177.831H116.421V176.95H120.073C120.073 176.64 120.01 176.366 119.884 176.127C119.758 175.886 119.581 175.696 119.353 175.557C119.127 175.418 118.862 175.348 118.558 175.348C118.227 175.348 117.938 175.429 117.692 175.592C117.448 175.752 117.259 175.962 117.125 176.222C116.994 176.479 116.928 176.758 116.928 177.06V177.749C116.928 178.153 116.999 178.497 117.141 178.78C117.285 179.063 117.486 179.28 117.743 179.429C118 179.576 118.301 179.65 118.644 179.65C118.867 179.65 119.071 179.618 119.254 179.555C119.438 179.49 119.597 179.393 119.731 179.264C119.864 179.136 119.967 178.977 120.038 178.788L121.151 178.989C121.062 179.317 120.902 179.604 120.671 179.851C120.443 180.095 120.156 180.285 119.809 180.421C119.466 180.555 119.073 180.622 118.632 180.622ZM122.421 180.5V174.455H123.559V175.415H123.622C123.732 175.09 123.926 174.834 124.204 174.647C124.485 174.458 124.802 174.364 125.156 174.364C125.23 174.364 125.317 174.367 125.416 174.372C125.519 174.377 125.599 174.384 125.656 174.392V175.517C125.609 175.504 125.525 175.49 125.404 175.474C125.284 175.456 125.163 175.446 125.042 175.446C124.764 175.446 124.516 175.505 124.298 175.623C124.083 175.739 123.913 175.9 123.787 176.108C123.661 176.312 123.598 176.546 123.598 176.808V180.5H122.421ZM129.798 174.455V175.399H126.382V174.455H129.798ZM127.319 180.5V173.754C127.319 173.376 127.401 173.063 127.567 172.813C127.732 172.561 127.951 172.374 128.224 172.25C128.497 172.125 128.793 172.062 129.113 172.062C129.35 172.062 129.552 172.081 129.719 172.121C129.887 172.157 130.012 172.191 130.093 172.223L129.818 173.175C129.763 173.16 129.692 173.141 129.605 173.12C129.519 173.097 129.414 173.085 129.29 173.085C129.004 173.085 128.8 173.156 128.676 173.297C128.556 173.439 128.495 173.644 128.495 173.911V180.5H127.319ZM133.269 180.622C132.673 180.622 132.16 180.495 131.73 180.24C131.302 179.983 130.972 179.622 130.738 179.158C130.507 178.691 130.392 178.144 130.392 177.517C130.392 176.897 130.507 176.352 130.738 175.879C130.972 175.407 131.297 175.038 131.714 174.773C132.134 174.508 132.625 174.376 133.186 174.376C133.527 174.376 133.858 174.432 134.178 174.545C134.498 174.658 134.786 174.835 135.04 175.076C135.295 175.318 135.495 175.631 135.642 176.017C135.789 176.4 135.863 176.866 135.863 177.414V177.831H131.057V176.95H134.709C134.709 176.64 134.647 176.366 134.521 176.127C134.395 175.886 134.218 175.696 133.989 175.557C133.764 175.418 133.499 175.348 133.194 175.348C132.864 175.348 132.575 175.429 132.328 175.592C132.084 175.752 131.895 175.962 131.762 176.222C131.63 176.479 131.565 176.758 131.565 177.06V177.749C131.565 178.153 131.636 178.497 131.777 178.78C131.922 179.063 132.122 179.28 132.379 179.429C132.637 179.576 132.937 179.65 133.281 179.65C133.504 179.65 133.707 179.618 133.891 179.555C134.075 179.49 134.233 179.393 134.367 179.264C134.501 179.136 134.603 178.977 134.674 178.788L135.788 178.989C135.699 179.317 135.539 179.604 135.308 179.851C135.079 180.095 134.792 180.285 134.446 180.421C134.102 180.555 133.71 180.622 133.269 180.622ZM139.604 180.622C139.019 180.622 138.515 180.49 138.093 180.224C137.673 179.957 137.35 179.588 137.124 179.119C136.899 178.649 136.786 178.111 136.786 177.505C136.786 176.891 136.901 176.349 137.132 175.879C137.363 175.407 137.689 175.038 138.108 174.773C138.528 174.508 139.023 174.376 139.592 174.376C140.051 174.376 140.461 174.461 140.82 174.632C141.18 174.8 141.47 175.036 141.69 175.34C141.913 175.644 142.046 176 142.088 176.407H140.942C140.879 176.123 140.735 175.879 140.509 175.675C140.286 175.47 139.987 175.368 139.612 175.368C139.284 175.368 138.997 175.454 138.75 175.627C138.506 175.798 138.316 176.042 138.179 176.359C138.043 176.674 137.975 177.047 137.975 177.477C137.975 177.918 138.042 178.299 138.175 178.619C138.309 178.939 138.498 179.187 138.742 179.363C138.989 179.538 139.279 179.626 139.612 179.626C139.835 179.626 140.037 179.586 140.218 179.504C140.402 179.42 140.555 179.301 140.679 179.146C140.805 178.991 140.892 178.805 140.942 178.587H142.088C142.046 178.978 141.918 179.327 141.706 179.634C141.493 179.941 141.209 180.183 140.852 180.358C140.498 180.534 140.082 180.622 139.604 180.622ZM146.057 174.455V175.399H142.755V174.455H146.057ZM143.641 173.006H144.817V178.725C144.817 178.953 144.852 179.125 144.92 179.241C144.988 179.353 145.076 179.431 145.183 179.473C145.294 179.512 145.413 179.532 145.542 179.532C145.636 179.532 145.719 179.525 145.79 179.512C145.86 179.499 145.916 179.488 145.955 179.481L146.167 180.453C146.099 180.479 146.002 180.505 145.876 180.531C145.75 180.56 145.593 180.576 145.404 180.579C145.094 180.584 144.806 180.529 144.538 180.413C144.27 180.298 144.054 180.12 143.889 179.878C143.723 179.637 143.641 179.334 143.641 178.969V173.006ZM152.893 174.455V175.399H149.59V174.455H152.893ZM150.476 173.006H151.653V178.725C151.653 178.953 151.687 179.125 151.755 179.241C151.823 179.353 151.911 179.431 152.019 179.473C152.129 179.512 152.248 179.532 152.377 179.532C152.471 179.532 152.554 179.525 152.625 179.512C152.696 179.499 152.751 179.488 152.79 179.481L153.003 180.453C152.935 180.479 152.837 180.505 152.711 180.531C152.586 180.56 152.428 180.576 152.239 180.579C151.93 180.584 151.641 180.529 151.373 180.413C151.106 180.298 150.889 180.12 150.724 179.878C150.559 179.637 150.476 179.334 150.476 178.969V173.006ZM156.624 180.622C156.028 180.622 155.515 180.495 155.085 180.24C154.657 179.983 154.327 179.622 154.093 179.158C153.862 178.691 153.747 178.144 153.747 177.517C153.747 176.897 153.862 176.352 154.093 175.879C154.327 175.407 154.652 175.038 155.069 174.773C155.489 174.508 155.98 174.376 156.541 174.376C156.883 174.376 157.213 174.432 157.533 174.545C157.853 174.658 158.141 174.835 158.395 175.076C158.65 175.318 158.85 175.631 158.997 176.017C159.144 176.4 159.218 176.866 159.218 177.414V177.831H154.412V176.95H158.065C158.065 176.64 158.002 176.366 157.876 176.127C157.75 175.886 157.573 175.696 157.344 175.557C157.119 175.418 156.854 175.348 156.549 175.348C156.219 175.348 155.93 175.429 155.683 175.592C155.439 175.752 155.25 175.962 155.117 176.222C154.985 176.479 154.92 176.758 154.92 177.06V177.749C154.92 178.153 154.991 178.497 155.132 178.78C155.277 179.063 155.477 179.28 155.735 179.429C155.992 179.576 156.292 179.65 156.636 179.65C156.859 179.65 157.062 179.618 157.246 179.555C157.43 179.49 157.588 179.393 157.722 179.264C157.856 179.136 157.958 178.977 158.029 178.788L159.143 178.989C159.054 179.317 158.894 179.604 158.663 179.851C158.435 180.095 158.147 180.285 157.801 180.421C157.457 180.555 157.065 180.622 156.624 180.622ZM162.172 180.634C161.789 180.634 161.443 180.563 161.133 180.421C160.823 180.277 160.578 180.068 160.397 179.795C160.219 179.523 160.129 179.188 160.129 178.792C160.129 178.451 160.195 178.17 160.326 177.95C160.457 177.729 160.634 177.555 160.857 177.426C161.08 177.298 161.33 177.2 161.605 177.135C161.881 177.069 162.161 177.019 162.448 176.985C162.81 176.943 163.103 176.909 163.329 176.883C163.555 176.854 163.719 176.808 163.821 176.745C163.923 176.682 163.975 176.58 163.975 176.438V176.411C163.975 176.067 163.878 175.801 163.683 175.612C163.492 175.423 163.206 175.328 162.825 175.328C162.429 175.328 162.117 175.416 161.889 175.592C161.663 175.765 161.507 175.958 161.42 176.171L160.314 175.919C160.445 175.551 160.637 175.255 160.889 175.029C161.143 174.801 161.436 174.636 161.767 174.533C162.097 174.428 162.445 174.376 162.81 174.376C163.051 174.376 163.307 174.405 163.577 174.462C163.85 174.518 164.104 174.62 164.341 174.769C164.579 174.919 164.775 175.133 164.927 175.411C165.079 175.686 165.155 176.045 165.155 176.485V180.5H164.006V179.673H163.959C163.883 179.826 163.769 179.975 163.616 180.122C163.464 180.269 163.269 180.391 163.03 180.488C162.791 180.585 162.505 180.634 162.172 180.634ZM162.428 179.689C162.753 179.689 163.031 179.625 163.262 179.496C163.496 179.368 163.673 179.2 163.794 178.993C163.917 178.783 163.979 178.558 163.979 178.32V177.54C163.937 177.582 163.855 177.622 163.735 177.658C163.616 177.692 163.481 177.723 163.329 177.749C163.177 177.772 163.029 177.795 162.884 177.816C162.74 177.834 162.619 177.85 162.522 177.863C162.294 177.892 162.085 177.94 161.896 178.009C161.71 178.077 161.561 178.175 161.448 178.304C161.338 178.43 161.282 178.598 161.282 178.808C161.282 179.099 161.39 179.319 161.605 179.469C161.82 179.616 162.095 179.689 162.428 179.689ZM166.612 180.5V174.455H167.742V175.439H167.816C167.942 175.105 168.148 174.846 168.434 174.659C168.72 174.47 169.063 174.376 169.462 174.376C169.866 174.376 170.204 174.47 170.477 174.659C170.752 174.848 170.956 175.108 171.087 175.439H171.15C171.294 175.116 171.524 174.859 171.839 174.667C172.154 174.473 172.529 174.376 172.964 174.376C173.513 174.376 173.96 174.548 174.307 174.891C174.656 175.235 174.83 175.753 174.83 176.446V180.5H173.653V176.556C173.653 176.147 173.542 175.85 173.319 175.667C173.096 175.483 172.829 175.391 172.52 175.391C172.137 175.391 171.839 175.509 171.626 175.746C171.414 175.979 171.307 176.279 171.307 176.647V180.5H170.135V176.482C170.135 176.154 170.032 175.89 169.828 175.69C169.623 175.491 169.357 175.391 169.029 175.391C168.806 175.391 168.6 175.45 168.411 175.568C168.224 175.684 168.073 175.845 167.958 176.052C167.845 176.26 167.789 176.5 167.789 176.773V180.5H166.612Z" fill="#999999"/>
<path d="M184.232 180.575C184.017 180.575 183.832 180.499 183.678 180.347C183.523 180.192 183.445 180.005 183.445 179.788C183.445 179.572 183.523 179.389 183.678 179.237C183.832 179.082 184.017 179.004 184.232 179.004C184.448 179.004 184.633 179.082 184.787 179.237C184.942 179.389 185.02 179.572 185.02 179.788C185.02 179.932 184.983 180.064 184.909 180.185C184.839 180.303 184.744 180.398 184.626 180.469C184.508 180.539 184.377 180.575 184.232 180.575ZM187.26 180.575C187.045 180.575 186.86 180.499 186.706 180.347C186.551 180.192 186.473 180.005 186.473 179.788C186.473 179.572 186.551 179.389 186.706 179.237C186.86 179.082 187.045 179.004 187.26 179.004C187.476 179.004 187.661 179.082 187.815 179.237C187.97 179.389 188.048 179.572 188.048 179.788C188.048 179.932 188.011 180.064 187.937 180.185C187.867 180.303 187.772 180.398 187.654 180.469C187.536 180.539 187.405 180.575 187.26 180.575ZM190.288 180.575C190.073 180.575 189.888 180.499 189.734 180.347C189.579 180.192 189.501 180.005 189.501 179.788C189.501 179.572 189.579 179.389 189.734 179.237C189.888 179.082 190.073 179.004 190.288 179.004C190.504 179.004 190.689 179.082 190.843 179.237C190.998 179.389 191.076 179.572 191.076 179.788C191.076 179.932 191.039 180.064 190.965 180.185C190.895 180.303 190.8 180.398 190.682 180.469C190.564 180.539 190.433 180.575 190.288 180.575Z" fill="#999999"/>
<rect x="38.3958" y="206.396" width="200.292" height="37.2083" rx="9.10417" fill="white"/>
<rect x="38.3958" y="206.396" width="200.292" height="37.2083" rx="9.10417" stroke="#E0E0E0" stroke-width="0.791667"/>
<rect x="47.5" y="215.5" width="58.5" height="19.3333" rx="6.33333" fill="#6696FF" fill-opacity="0.16"/>
<g clip-path="url(#clip2_6808_16288)">
<path d="M59.1855 229.521H57.9799C57.6324 229.521 57.3255 229.294 57.2233 228.962L56.1271 225.4C55.9705 224.891 56.3511 224.375 56.8838 224.375H57.989V223.188C57.989 222.86 58.2548 222.594 58.5827 222.594C58.9106 222.594 59.1765 222.86 59.1765 223.188V224.375H60.2817C60.8143 224.375 61.195 224.891 61.0383 225.4L59.9422 228.962C59.84 229.294 59.5331 229.521 59.1855 229.521Z" fill="#293C66"/>
<path d="M54.8223 221.802C54.4943 221.802 54.2285 221.536 54.2285 221.208C54.2285 220.881 54.4943 220.615 54.8223 220.615H62.3431C62.671 220.615 62.9368 220.881 62.9368 221.208C62.9368 221.536 62.671 221.802 62.3431 221.802H54.8223Z" fill="#293C66"/>
</g>
<path d="M70.3485 228.667V221.758H74.7746V222.807H71.6001V224.683H74.471V225.732H71.6001V228.667H70.3485ZM77.7408 228.768C77.2348 228.768 76.7962 228.657 76.4251 228.434C76.054 228.211 75.7661 227.9 75.5615 227.499C75.3591 227.099 75.2579 226.631 75.2579 226.096C75.2579 225.561 75.3591 225.092 75.5615 224.689C75.7661 224.287 76.054 223.974 76.4251 223.751C76.7962 223.529 77.2348 223.417 77.7408 223.417C78.2468 223.417 78.6854 223.529 79.0565 223.751C79.4276 223.974 79.7144 224.287 79.9168 224.689C80.1214 225.092 80.2238 225.561 80.2238 226.096C80.2238 226.631 80.1214 227.099 79.9168 227.499C79.7144 227.9 79.4276 228.211 79.0565 228.434C78.6854 228.657 78.2468 228.768 77.7408 228.768ZM77.7476 227.79C78.0219 227.79 78.2513 227.714 78.4358 227.564C78.6202 227.411 78.7574 227.206 78.8473 226.95C78.9396 226.693 78.9857 226.408 78.9857 226.093C78.9857 225.776 78.9396 225.489 78.8473 225.232C78.7574 224.974 78.6202 224.768 78.4358 224.615C78.2513 224.462 78.0219 224.386 77.7476 224.386C77.4664 224.386 77.2325 224.462 77.0459 224.615C76.8614 224.768 76.7231 224.974 76.6309 225.232C76.5409 225.489 76.496 225.776 76.496 226.093C76.496 226.408 76.5409 226.693 76.6309 226.95C76.7231 227.206 76.8614 227.411 77.0459 227.564C77.2325 227.714 77.4664 227.79 77.7476 227.79ZM83.5206 228.768C83.0146 228.768 82.576 228.657 82.2049 228.434C81.8338 228.211 81.5459 227.9 81.3413 227.499C81.1388 227.099 81.0376 226.631 81.0376 226.096C81.0376 225.561 81.1388 225.092 81.3413 224.689C81.5459 224.287 81.8338 223.974 82.2049 223.751C82.576 223.529 83.0146 223.417 83.5206 223.417C84.0266 223.417 84.4652 223.529 84.8363 223.751C85.2074 223.974 85.4941 224.287 85.6966 224.689C85.9012 225.092 86.0036 225.561 86.0036 226.096C86.0036 226.631 85.9012 227.099 85.6966 227.499C85.4941 227.9 85.2074 228.211 84.8363 228.434C84.4652 228.657 84.0266 228.768 83.5206 228.768ZM83.5273 227.79C83.8017 227.79 84.0311 227.714 84.2156 227.564C84.4 227.411 84.5372 227.206 84.6271 226.95C84.7193 226.693 84.7654 226.408 84.7654 226.093C84.7654 225.776 84.7193 225.489 84.6271 225.232C84.5372 224.974 84.4 224.768 84.2156 224.615C84.0311 224.462 83.8017 224.386 83.5273 224.386C83.2462 224.386 83.0123 224.462 82.8256 224.615C82.6412 224.768 82.5029 224.974 82.4107 225.232C82.3207 225.489 82.2757 225.776 82.2757 226.093C82.2757 226.408 82.3207 226.693 82.4107 226.95C82.5029 227.206 82.6412 227.411 82.8256 227.564C83.0123 227.714 83.2462 227.79 83.5273 227.79ZM89.6276 223.485V224.43H86.6487V223.485H89.6276ZM87.3842 222.243H88.6054V227.108C88.6054 227.272 88.6302 227.398 88.6796 227.486C88.7314 227.571 88.7988 227.63 88.8821 227.661C88.9653 227.693 89.0575 227.709 89.1587 227.709C89.2352 227.709 89.3049 227.703 89.3679 227.692C89.4331 227.681 89.4826 227.67 89.5163 227.661L89.7221 228.616C89.6569 228.639 89.5635 228.663 89.4421 228.69C89.3229 228.717 89.1767 228.733 89.0035 228.738C88.6976 228.747 88.4221 228.7 88.177 228.599C87.9318 228.496 87.7373 228.336 87.5934 228.12C87.4517 227.904 87.3819 227.634 87.3842 227.311V222.243ZM92.8873 228.768C92.3678 228.768 91.9191 228.66 91.5413 228.444C91.1657 228.226 90.8767 227.918 90.6743 227.52C90.4719 227.119 90.3706 226.648 90.3706 226.106C90.3706 225.573 90.4719 225.105 90.6743 224.703C90.8789 224.298 91.1646 223.983 91.5312 223.758C91.8978 223.531 92.3285 223.417 92.8232 223.417C93.1426 223.417 93.444 223.469 93.7274 223.573C94.013 223.674 94.2649 223.831 94.483 224.045C94.7035 224.259 94.8766 224.531 95.0026 224.861C95.1285 225.19 95.1915 225.581 95.1915 226.035V226.41H90.9442V225.587H94.0209C94.0186 225.353 93.968 225.145 93.8691 224.963C93.7701 224.778 93.6318 224.633 93.4541 224.527C93.2787 224.422 93.074 224.369 92.8401 224.369C92.5905 224.369 92.3712 224.43 92.1823 224.551C91.9933 224.67 91.846 224.828 91.7403 225.023C91.6369 225.217 91.584 225.429 91.5818 225.661V226.379C91.5818 226.681 91.6369 226.939 91.7471 227.155C91.8573 227.369 92.0113 227.533 92.2093 227.648C92.4072 227.76 92.6388 227.817 92.9042 227.817C93.0819 227.817 93.2427 227.792 93.3866 227.742C93.5306 227.691 93.6554 227.615 93.7611 227.516C93.8668 227.417 93.9466 227.295 94.0006 227.149L95.1409 227.277C95.0689 227.578 94.9317 227.841 94.7293 228.066C94.5291 228.289 94.2728 228.462 93.9601 228.586C93.6475 228.707 93.2899 228.768 92.8873 228.768ZM96.2247 228.667V223.485H97.4088V224.349H97.4628C97.5572 224.049 97.7191 223.819 97.9486 223.657C98.1802 223.493 98.4445 223.411 98.7413 223.411C98.8088 223.411 98.8842 223.414 98.9674 223.421C99.0528 223.425 99.1237 223.433 99.1799 223.444V224.568C99.1282 224.55 99.0461 224.534 98.9336 224.521C98.8234 224.505 98.7166 224.497 98.6131 224.497C98.3905 224.497 98.1903 224.545 98.0127 224.642C97.8372 224.737 97.6989 224.868 97.5977 225.037C97.4965 225.205 97.4459 225.4 97.4459 225.62V228.667H96.2247Z" fill="#293C66"/>
<path d="M114.435 220.606V228.667H113.219V220.606H114.435ZM118.823 222.621V223.566H115.52V222.621H118.823ZM116.406 221.173H117.583V226.892C117.583 227.12 117.617 227.292 117.685 227.407C117.753 227.52 117.841 227.598 117.949 227.639C118.059 227.679 118.178 227.699 118.307 227.699C118.401 227.699 118.484 227.692 118.555 227.679C118.626 227.666 118.681 227.655 118.72 227.647L118.933 228.62C118.865 228.646 118.767 228.672 118.642 228.698C118.516 228.727 118.358 228.743 118.169 228.745C117.86 228.751 117.571 228.696 117.303 228.58C117.036 228.465 116.819 228.286 116.654 228.045C116.489 227.803 116.406 227.5 116.406 227.136V221.173ZM122.836 228.667V222.621H124.013V228.667H122.836ZM123.43 221.688C123.226 221.688 123.05 221.62 122.903 221.484C122.758 221.345 122.686 221.179 122.686 220.988C122.686 220.794 122.758 220.628 122.903 220.492C123.05 220.353 123.226 220.283 123.43 220.283C123.635 220.283 123.809 220.353 123.954 220.492C124.101 220.628 124.174 220.794 124.174 220.988C124.174 221.179 124.101 221.345 123.954 221.484C123.809 221.62 123.635 221.688 123.43 221.688ZM126.662 225.077V228.667H125.485V222.621H126.615V223.605H126.689C126.828 223.285 127.046 223.028 127.343 222.834C127.642 222.64 128.018 222.543 128.472 222.543C128.884 222.543 129.245 222.629 129.555 222.802C129.864 222.973 130.104 223.227 130.275 223.566C130.446 223.904 130.531 224.323 130.531 224.821V228.667H129.354V224.963C129.354 224.525 129.24 224.183 129.012 223.936C128.783 223.687 128.47 223.562 128.071 223.562C127.798 223.562 127.555 223.621 127.343 223.739C127.133 223.857 126.966 224.03 126.843 224.259C126.722 224.484 126.662 224.757 126.662 225.077ZM134.545 228.789C133.96 228.789 133.456 228.656 133.033 228.391C132.614 228.124 132.291 227.755 132.065 227.285C131.84 226.816 131.727 226.278 131.727 225.672C131.727 225.058 131.842 224.516 132.073 224.046C132.304 223.574 132.629 223.205 133.049 222.94C133.469 222.675 133.964 222.543 134.533 222.543C134.992 222.543 135.401 222.628 135.761 222.798C136.12 222.966 136.41 223.202 136.631 223.507C136.854 223.811 136.986 224.167 137.028 224.573H135.883C135.82 224.29 135.676 224.046 135.45 223.841C135.227 223.637 134.928 223.534 134.553 223.534C134.225 223.534 133.937 223.621 133.691 223.794C133.447 223.965 133.256 224.209 133.12 224.526C132.984 224.841 132.915 225.214 132.915 225.644C132.915 226.085 132.982 226.465 133.116 226.785C133.25 227.106 133.439 227.353 133.683 227.529C133.929 227.705 134.219 227.793 134.553 227.793C134.776 227.793 134.978 227.752 135.159 227.671C135.342 227.587 135.496 227.468 135.619 227.313C135.745 227.158 135.833 226.972 135.883 226.754H137.028C136.986 227.145 136.859 227.494 136.646 227.801C136.434 228.108 136.149 228.349 135.792 228.525C135.438 228.701 135.022 228.789 134.545 228.789ZM139.353 220.606V228.667H138.176V220.606H139.353ZM144.655 226.16V222.621H145.835V228.667H144.678V227.62H144.615C144.476 227.943 144.253 228.212 143.946 228.427C143.642 228.639 143.263 228.745 142.809 228.745C142.42 228.745 142.077 228.66 141.778 228.49C141.481 228.316 141.248 228.061 141.077 227.722C140.909 227.384 140.825 226.965 140.825 226.467V222.621H142.002V226.325C142.002 226.737 142.116 227.065 142.344 227.309C142.573 227.553 142.869 227.675 143.234 227.675C143.454 227.675 143.673 227.62 143.891 227.51C144.112 227.399 144.294 227.233 144.438 227.01C144.585 226.787 144.657 226.503 144.655 226.16ZM149.569 228.785C149.081 228.785 148.645 228.66 148.262 228.411C147.882 228.159 147.583 227.801 147.365 227.336C147.15 226.869 147.042 226.309 147.042 225.656C147.042 225.002 147.151 224.444 147.369 223.979C147.589 223.515 147.891 223.159 148.274 222.913C148.657 222.666 149.091 222.543 149.577 222.543C149.952 222.543 150.254 222.606 150.482 222.731C150.713 222.855 150.891 222.999 151.017 223.164C151.146 223.33 151.246 223.475 151.316 223.601H151.387V220.606H152.564V228.667H151.415V227.726H151.316C151.246 227.855 151.143 228.002 151.009 228.167C150.878 228.332 150.697 228.477 150.466 228.6C150.235 228.723 149.936 228.785 149.569 228.785ZM149.829 227.781C150.167 227.781 150.453 227.692 150.687 227.514C150.923 227.332 151.101 227.082 151.222 226.762C151.345 226.442 151.407 226.069 151.407 225.644C151.407 225.224 151.347 224.857 151.226 224.542C151.105 224.227 150.928 223.982 150.695 223.806C150.461 223.63 150.172 223.542 149.829 223.542C149.474 223.542 149.179 223.634 148.943 223.818C148.707 224.001 148.529 224.252 148.408 224.57C148.29 224.887 148.231 225.245 148.231 225.644C148.231 226.048 148.291 226.412 148.412 226.734C148.532 227.057 148.711 227.313 148.947 227.502C149.186 227.688 149.48 227.781 149.829 227.781ZM156.738 228.789C156.143 228.789 155.63 228.662 155.199 228.407C154.772 228.15 154.441 227.789 154.208 227.325C153.977 226.858 153.861 226.31 153.861 225.683C153.861 225.064 153.977 224.518 154.208 224.046C154.441 223.574 154.767 223.205 155.184 222.94C155.604 222.675 156.094 222.543 156.656 222.543C156.997 222.543 157.327 222.599 157.648 222.712C157.968 222.825 158.255 223.002 158.51 223.243C158.764 223.485 158.965 223.798 159.112 224.184C159.259 224.567 159.332 225.033 159.332 225.581V225.998H154.526V225.117H158.179C158.179 224.807 158.116 224.533 157.99 224.294C157.864 224.053 157.687 223.862 157.459 223.723C157.233 223.584 156.968 223.515 156.664 223.515C156.333 223.515 156.044 223.596 155.798 223.759C155.554 223.919 155.365 224.129 155.231 224.388C155.1 224.646 155.034 224.925 155.034 225.227V225.916C155.034 226.32 155.105 226.663 155.247 226.947C155.391 227.23 155.592 227.447 155.849 227.596C156.106 227.743 156.406 227.817 156.75 227.817C156.973 227.817 157.177 227.785 157.36 227.722C157.544 227.657 157.703 227.559 157.837 227.431C157.97 227.302 158.073 227.144 158.144 226.955L159.257 227.155C159.168 227.483 159.008 227.771 158.777 228.017C158.549 228.261 158.262 228.452 157.915 228.588C157.571 228.722 157.179 228.789 156.738 228.789ZM165.057 224.097L163.991 224.286C163.946 224.15 163.875 224.02 163.778 223.897C163.684 223.773 163.555 223.672 163.392 223.593C163.23 223.515 163.026 223.475 162.782 223.475C162.449 223.475 162.171 223.55 161.948 223.7C161.725 223.847 161.613 224.037 161.613 224.27C161.613 224.472 161.688 224.635 161.838 224.758C161.987 224.882 162.229 224.983 162.562 225.062L163.522 225.282C164.078 225.41 164.493 225.609 164.766 225.876C165.039 226.144 165.175 226.492 165.175 226.919C165.175 227.281 165.07 227.604 164.86 227.887C164.653 228.168 164.363 228.389 163.991 228.549C163.621 228.709 163.192 228.789 162.704 228.789C162.027 228.789 161.474 228.644 161.047 228.356C160.619 228.065 160.356 227.651 160.259 227.116L161.397 226.943C161.468 227.239 161.613 227.464 161.834 227.616C162.054 227.765 162.341 227.84 162.696 227.84C163.081 227.84 163.39 227.76 163.621 227.6C163.851 227.437 163.967 227.239 163.967 227.006C163.967 226.817 163.896 226.658 163.754 226.53C163.615 226.401 163.401 226.304 163.113 226.238L162.09 226.014C161.525 225.885 161.108 225.681 160.838 225.4C160.57 225.119 160.436 224.764 160.436 224.333C160.436 223.977 160.536 223.664 160.736 223.397C160.935 223.129 161.211 222.92 161.562 222.771C161.914 222.619 162.317 222.543 162.77 222.543C163.424 222.543 163.938 222.684 164.313 222.968C164.689 223.248 164.936 223.625 165.057 224.097Z" fill="#999999"/>
<path d="M174.233 228.742C174.018 228.742 173.833 228.665 173.679 228.513C173.524 228.358 173.446 228.172 173.446 227.954C173.446 227.739 173.524 227.556 173.679 227.403C173.833 227.249 174.018 227.171 174.233 227.171C174.449 227.171 174.634 227.249 174.788 227.403C174.943 227.556 175.021 227.739 175.021 227.954C175.021 228.099 174.984 228.231 174.91 228.352C174.84 228.47 174.745 228.564 174.627 228.635C174.509 228.706 174.378 228.742 174.233 228.742ZM177.261 228.742C177.046 228.742 176.861 228.665 176.707 228.513C176.552 228.358 176.474 228.172 176.474 227.954C176.474 227.739 176.552 227.556 176.707 227.403C176.861 227.249 177.046 227.171 177.261 227.171C177.477 227.171 177.662 227.249 177.816 227.403C177.971 227.556 178.049 227.739 178.049 227.954C178.049 228.099 178.012 228.231 177.938 228.352C177.868 228.47 177.773 228.564 177.655 228.635C177.537 228.706 177.406 228.742 177.261 228.742ZM180.289 228.742C180.074 228.742 179.889 228.665 179.735 228.513C179.58 228.358 179.502 228.172 179.502 227.954C179.502 227.739 179.58 227.556 179.735 227.403C179.889 227.249 180.074 227.171 180.289 227.171C180.505 227.171 180.69 227.249 180.844 227.403C180.999 227.556 181.077 227.739 181.077 227.954C181.077 228.099 181.04 228.231 180.966 228.352C180.896 228.47 180.801 228.564 180.683 228.635C180.565 228.706 180.434 228.742 180.289 228.742Z" fill="#999999"/>
<rect x="12" y="12" width="62" height="20" rx="6" fill="#6696FF" fill-opacity="0.16"/>
<rect x="12.5" y="12.5" width="61" height="19" rx="5.5" stroke="#6696FF" stroke-opacity="0.32"/>
<path d="M25.2834 21.2734H23.728C23.6996 21.0722 23.6416 20.8935 23.554 20.7372C23.4664 20.5786 23.3539 20.4437 23.2166 20.3324C23.0793 20.2211 22.9207 20.1359 22.7408 20.0767C22.5632 20.0175 22.3703 19.9879 22.1619 19.9879C21.7855 19.9879 21.4576 20.0814 21.1783 20.2685C20.8989 20.4531 20.6823 20.723 20.5284 21.0781C20.3745 21.4309 20.2976 21.8594 20.2976 22.3636C20.2976 22.8821 20.3745 23.3177 20.5284 23.6705C20.6847 24.0232 20.9025 24.2895 21.1818 24.4695C21.4612 24.6494 21.7843 24.7393 22.1513 24.7393C22.3572 24.7393 22.5478 24.7121 22.723 24.6577C22.9006 24.6032 23.058 24.5239 23.1953 24.4197C23.3326 24.3132 23.4463 24.1842 23.5362 24.0327C23.6286 23.8812 23.6925 23.7083 23.728 23.5142L25.2834 23.5213C25.2431 23.8551 25.1425 24.1771 24.9815 24.4872C24.8229 24.795 24.6087 25.0708 24.3388 25.3146C24.0713 25.5561 23.7517 25.7479 23.38 25.8899C23.0107 26.0296 22.5928 26.0994 22.1264 26.0994C21.4777 26.0994 20.8977 25.9527 20.3864 25.6591C19.8774 25.3655 19.4749 24.9406 19.179 24.3842C18.8854 23.8279 18.7386 23.1544 18.7386 22.3636C18.7386 21.5705 18.8878 20.8958 19.1861 20.3395C19.4844 19.7831 19.8892 19.3594 20.4006 19.0682C20.9119 18.7746 21.4872 18.6278 22.1264 18.6278C22.5478 18.6278 22.9384 18.687 23.2983 18.8054C23.6605 18.9238 23.9813 19.0966 24.2607 19.3239C24.54 19.5488 24.7673 19.8246 24.9425 20.1513C25.12 20.478 25.2337 20.852 25.2834 21.2734ZM33.0692 22.3636C33.0692 23.1567 32.9189 23.8314 32.6183 24.3878C32.32 24.9441 31.9128 25.3691 31.3967 25.6626C30.8829 25.9538 30.3053 26.0994 29.6637 26.0994C29.0174 26.0994 28.4374 25.9527 27.9237 25.6591C27.4099 25.3655 27.0039 24.9406 26.7056 24.3842C26.4073 23.8279 26.2582 23.1544 26.2582 22.3636C26.2582 21.5705 26.4073 20.8958 26.7056 20.3395C27.0039 19.7831 27.4099 19.3594 27.9237 19.0682C28.4374 18.7746 29.0174 18.6278 29.6637 18.6278C30.3053 18.6278 30.8829 18.7746 31.3967 19.0682C31.9128 19.3594 32.32 19.7831 32.6183 20.3395C32.9189 20.8958 33.0692 21.5705 33.0692 22.3636ZM31.5103 22.3636C31.5103 21.8499 31.4334 21.4167 31.2795 21.0639C31.128 20.7112 30.9137 20.4437 30.6367 20.2614C30.3597 20.0791 30.0354 19.9879 29.6637 19.9879C29.292 19.9879 28.9677 20.0791 28.6907 20.2614C28.4137 20.4437 28.1983 20.7112 28.0444 21.0639C27.8929 21.4167 27.8171 21.8499 27.8171 22.3636C27.8171 22.8774 27.8929 23.3106 28.0444 23.6634C28.1983 24.0161 28.4137 24.2836 28.6907 24.4659C28.9677 24.6482 29.292 24.7393 29.6637 24.7393C30.0354 24.7393 30.3597 24.6482 30.6367 24.4659C30.9137 24.2836 31.128 24.0161 31.2795 23.6634C31.4334 23.3106 31.5103 22.8774 31.5103 22.3636ZM40.2914 18.7273V26H38.9632L35.7992 21.4226H35.7459V26H34.2083V18.7273H35.5577L38.6969 23.3011H38.7608V18.7273H40.2914ZM41.2848 19.995V18.7273H47.2578V19.995H45.0312V26H43.5114V19.995H41.2848ZM48.2415 26V18.7273H53.142V19.995H49.7791V21.728H52.8899V22.9957H49.7791V24.7322H53.1562V26H48.2415ZM60.4476 18.7273V26H59.1195L55.9554 21.4226H55.9022V26H54.3645V18.7273H55.714L58.8532 23.3011H58.9171V18.7273H60.4476ZM61.4411 19.995V18.7273H67.4141V19.995H65.1875V26H63.6676V19.995H61.4411Z" fill="#293C66"/>
</g>
<defs>
<clipPath id="clip0_6808_16288">
<rect width="278" height="278" rx="16" fill="white"/>
</clipPath>
<clipPath id="clip1_6808_16288">
<rect width="9.5" height="9.5" fill="white" transform="translate(53.833 76.4167)"/>
</clipPath>
<clipPath id="clip2_6808_16288">
<rect width="9.5" height="9.5" fill="white" transform="translate(53.833 220.417)"/>
</clipPath>
</defs>
</svg>
